<svg width="175" height="150" viewBox="0 0 175 150" fill="none" xmlns="http://www.w3.org/2000/svg">
<path fill-rule="evenodd" clip-rule="evenodd" d="M135.475 94.807C147.427 88.8169 159.184 81.8357 172.613 79.8715C173.412 79.7519 173.967 79.0119 173.853 78.2101C173.733 77.411 172.993 76.8555 172.191 76.97C158.449 78.9813 146.39 86.0566 134.161 92.1872C133.436 92.5462 133.144 93.4316 133.508 94.1538C133.867 94.8787 134.75 95.1659 135.475 94.807Z" fill="#636779"/>
<path fill-rule="evenodd" clip-rule="evenodd" d="M125.305 78.2372C127.184 72.8968 129.85 68.2267 134.035 64.3898C134.633 63.8421 134.671 62.9159 134.128 62.3182C133.579 61.7233 132.65 61.6847 132.057 62.2296C127.506 66.4012 124.587 71.4583 122.544 77.2626C122.273 78.0264 122.672 78.8646 123.438 79.1316C124.198 79.4009 125.039 78.9982 125.305 78.2372Z" fill="#636779"/>
<path fill-rule="evenodd" clip-rule="evenodd" d="M95.4252 46.7272C94.0378 40.0491 94.9544 33.7603 98.3086 27.7875C98.7038 27.083 98.4538 26.1886 97.7465 25.7943C97.0443 25.3972 96.1493 25.6487 95.7541 26.3532C92.043 32.9652 91.0206 39.9286 92.5565 47.3228C92.719 48.1151 93.4997 48.6224 94.2888 48.459C95.0833 48.2933 95.5928 47.5167 95.4252 46.7272Z" fill="#636779"/>
<path fill-rule="evenodd" clip-rule="evenodd" d="M33.1279 69.7869C32.7522 71.5017 32.5287 73.253 32.4834 75.0151C32.4627 75.7999 32.5443 77.4009 33.0357 78.5498C33.555 79.7761 34.4787 80.5525 35.7798 80.5283C37.5074 80.495 38.5557 79.8454 39.1718 78.9822C39.7657 78.1522 39.9778 77.0287 39.8145 75.7604C39.5014 73.3368 37.7467 70.3113 36.4119 68.7621C36.8953 67.0876 37.5368 65.461 38.3203 63.9017C44.1565 52.2877 59.1931 47.4308 75.0375 51.7317C80.5835 53.2384 86.2418 59.5867 91.3527 66.9648C99.3119 78.4518 105.767 92.5763 107.785 96.6468C108.286 97.6508 108.691 98.189 108.806 98.2789C109.356 98.727 109.865 98.6487 110.195 98.5461C110.671 98.3926 110.974 98.1256 111.176 97.8322C111.448 97.4327 111.573 96.9179 111.431 96.3012C111.35 95.962 111.15 95.5361 110.904 95.0993C110.731 94.798 110.49 94.4957 110.436 94.2429C110.09 92.6201 109.845 90.9864 109.585 89.3483C108.698 83.8482 108.432 78.3933 108.397 72.8225C108.282 55.1222 107.513 36.7647 113.788 19.8967C114.069 19.14 113.686 18.2941 112.926 18.0132C112.171 17.7296 111.328 18.1156 111.042 18.8756C104.64 36.0786 105.352 54.7899 105.467 72.8414C105.498 77.5798 105.692 82.2381 106.276 86.9075C102.775 79.9594 97.6625 70.4822 91.9325 62.7386C86.8371 55.8513 81.1952 50.3701 75.8042 48.9052C58.4472 44.1935 42.0921 49.8655 35.7031 62.5864C35.0201 63.9477 34.43 65.359 33.9509 66.8043C23.4351 59.9695 9.88534 62.1936 2.19852 72.2241C1.70427 72.8671 1.82796 73.7862 2.46808 74.2786C3.11337 74.7684 4.03142 74.6479 4.52566 74.0048C11.4525 64.9664 23.8066 63.1769 33.1279 69.7869ZM35.6025 72.6313C35.4981 73.446 35.4363 74.2659 35.4114 75.0927C35.401 75.5349 35.4179 76.3654 35.6187 77.0802C35.6675 77.2467 35.7872 77.4843 35.845 77.593C36.2955 77.5791 36.6199 77.5154 36.7868 77.28C36.9965 76.988 36.9653 76.5799 36.9084 76.1357C36.7667 75.0205 36.2263 73.7297 35.6025 72.6313Z" fill="#636779"/>
</svg>
