<svg width="300" height="151" viewBox="0 0 300 151" fill="none" xmlns="http://www.w3.org/2000/svg">
    <path fill-rule="evenodd" clip-rule="evenodd"
        d="M172.068 57.4653L184.792 51.5364L186.775 55.8949L202.829 54.1031L200.995 64.1461L212.585 68.839L207.392 80.4917L215.783 89.9074L210.254 92.5986L211.194 102.492H202.015L200.497 120.846L181.213 105.508L165.706 113.197L154.244 92.5986L151.022 74.5996L155.323 71.0736L156.052 61.6739L163.248 60.8714L167.966 54.5735L172.068 57.4653Z"
        fill="url(#paint0_radial_1027_22587)" />
    <path d="M185.809 104.399C184.443 104.757 183.437 102.668 181.671 104.154" stroke="black"
        stroke-width="0.216288" stroke-miterlimit="3" stroke-linejoin="round" />
    <path fill-rule="evenodd" clip-rule="evenodd"
        d="M161.37 75.3716C158.287 81.0077 149.133 91.9713 150.189 98.4975C150.657 101.387 159.798 95.3994 164.791 88.7993C165.192 87.3257 157.975 88.7993 157.975 88.7993L162.784 87.124"
        fill="url(#paint1_radial_1027_22587)" />
    <path fill-rule="evenodd" clip-rule="evenodd"
        d="M166.401 72.0005C164.966 73.1443 163.802 74.6756 162.061 74.1429C162.792 74.4127 162.997 75.063 162.995 76.5043C163.341 75.7133 164.701 74.9892 165.633 75.515C165.116 74.1428 165.298 73.3726 166.401 72.0005Z"
        fill="url(#paint2_linear_1027_22587)" />
    <path d="M164.92 78.7C166.327 79.002 167.664 79.5255 168.9 80.2635"
        stroke="url(#paint3_linear_1027_22587)" stroke-width="0.578266" stroke-miterlimit="3"
        stroke-linecap="round" />
    <path fill-rule="evenodd" clip-rule="evenodd"
        d="M177.274 75.3516C175.653 76.8943 174.247 78.1719 173.211 77.6577C175.008 78.6447 175.351 79.7285 175.243 81.0084C176.341 79.5279 177.44 78.9191 178.538 79.1958C176.62 78.7461 176.555 77.2679 177.274 75.3516Z"
        fill="url(#paint4_linear_1027_22587)" />
    <path fill-rule="evenodd" clip-rule="evenodd"
        d="M121.141 70.8207V107.599L96.0707 118.012V137.356L74.7447 146.213V126.87L71 128.425V47.5745L81.3724 43.2663V48.433L90.5939 44.6029V39.4362L96.0707 37.1615V10.9127L117.394 2.05625V28.305L121.141 26.7485V39.2107L113.649 42.3226V73.9326L121.141 70.8207Z"
        fill="url(#paint5_linear_1027_22587)" />
    <path d="M131.73 10.7713L123.543 14.1719V43.0454L131.73 39.6448V10.7713Z" fill="#FFD5DA"
        fill-opacity="0.69" />
    <path d="M81.4768 66.0682L73.5049 69.3792V77.3515L81.4768 74.0405V66.0682Z" fill="#04FFE3" />
    <path d="M85.5641 23.8676L84.3096 27.6367L87.0625 30.0268L88.3171 26.2578L85.5641 23.8676Z"
        fill="#EDDADA" />
    <path d="M111.262 14.0619L108.103 18.5334L111.262 20.3809L114.421 15.9093L111.262 14.0619Z"
        fill="#BCBAFE" />
    <path d="M112.507 42.1852L110.018 43.219V122.945L112.507 121.911V42.1852Z" fill="#FFF0F2" />
    <path d="M108.032 86.6137L84.1987 96.5115V98.3757L108.032 88.478V86.6137Z" fill="#9BB8C8" />
    <path d="M112.161 55.4393L90.7109 64.3474V67.112L112.161 58.2039V55.4393Z" fill="#E8F6E9" />
    <path d="M108.807 76.5802L77.6201 89.532V91.8554L108.807 78.9036V76.5802Z" fill="#9BB8C8" />
    <path d="M108.73 73.388L83.4141 83.9016V85.8843L108.73 75.3707V73.388Z" fill="#9BB8C8" />
    <path d="M108.032 91.5458L84.0312 101.513V102.058L108.032 92.0899V91.5458Z" fill="#9BB8C8" />
    <path d="M119.804 36.1533L74.0254 55.1648V56.8116L119.804 37.8001V36.1533Z" fill="#55010B"
        fill-opacity="0.44" />
    <path d="M108.796 80.5517L83.8486 90.9124V91.8296L108.796 81.469V80.5517Z" fill="#9BB8C8" />
    <path d="M108.797 70.5941L94.8213 76.3982V77.5132L108.797 71.7092V70.5941Z" fill="#9BB8C8" />
    <path d="M108.729 67.9299L93.2134 74.3735V75.4886L108.729 69.045V67.9299Z" fill="#9BB8C8" />
    <path d="M108.73 83.0662L98.519 87.3066V88.1063L108.73 83.8659V83.0662Z" fill="#9BB8C8" />
    <path d="M117.294 91.1071L108.029 94.9551V119.519L117.294 115.671V91.1071Z" fill="#56AAA1"
        fill-opacity="0.45" />
    <path fill-rule="evenodd" clip-rule="evenodd"
        d="M123.155 52.7571L121.066 54.9222L122.553 58.0944L125.229 58.4506L126.558 55.4967L125.665 53.4553L123.155 52.7571Z"
        fill="#FFCFB1" />
    <path d="M121.641 54.922L124.079 55.1393L125.071 53.7126" stroke="#CA9F9F"
        stroke-width="0.123914" stroke-miterlimit="3" stroke-linecap="round" stroke-linejoin="round" />
    <path d="M125.07 58.1534L124.078 55.1392" stroke="#CA9F9F" stroke-width="0.183209"
        stroke-miterlimit="3" stroke-linecap="round" stroke-linejoin="round" />
    <path
        d="M140.479 19.1553C141.128 19.1553 141.654 18.6292 141.654 17.9803C141.654 17.3313 141.128 16.8052 140.479 16.8052C139.83 16.8052 139.304 17.3313 139.304 17.9803C139.304 18.6292 139.83 19.1553 140.479 19.1553Z"
        fill="#D2B2B6" />
    <path
        d="M113.452 130.078C114.973 130.078 116.206 128.934 116.206 127.524C116.206 126.113 114.973 124.969 113.452 124.969C111.932 124.969 110.699 126.113 110.699 127.524C110.699 128.934 111.932 130.078 113.452 130.078Z"
        fill="#9EFF04" />
    <path fill-rule="evenodd" clip-rule="evenodd"
        d="M164.668 96.9297L169.303 116.232L186.21 120.007L182.947 100.525L164.668 96.9297Z"
        fill="#29FFC5" />
    <path
        d="M195.302 77.4038C198.678 86.0009 203.191 94.4707 199.947 97.5124C196.702 100.554 187.252 110.588 181.607 107.191C181.607 107.191 184.591 100.964 188.4 94.0605C187.033 91.2828 188.243 91.5352 188.4 90.0133C188.558 88.4915 192.714 80.0066 195.302 77.4038Z"
        fill="url(#paint6_radial_1027_22587)" />
    <path d="M110.699 84.9675V100.702" stroke="white" stroke-width="0.454352" stroke-miterlimit="3"
        stroke-linecap="round" />
    <path fill-rule="evenodd" clip-rule="evenodd"
        d="M148.342 104.981C148.148 105.675 148.153 107.805 148.645 108.676C149.134 109.549 150.951 110.659 151.645 110.854C150.951 110.659 148.821 110.664 147.951 111.154C147.078 111.645 145.967 113.463 145.773 114.156C145.967 113.463 145.962 111.333 145.471 110.459C144.981 109.589 143.164 108.478 142.47 108.284C143.164 108.478 145.293 108.473 146.165 107.981C147.037 107.492 148.148 105.675 148.342 104.981Z"
        fill="#FFAEB7" />
    <path d="M109.739 85.6853V113.886" stroke="white" stroke-width="0.16988" stroke-miterlimit="3"
        stroke-linecap="round" />
    <path fill-rule="evenodd" clip-rule="evenodd"
        d="M178.893 102.679L166.617 100.224L166.369 99.272L178.645 101.727L178.893 102.679Z"
        fill="#C9C9C9" />
    <path fill-rule="evenodd" clip-rule="evenodd"
        d="M179.283 104.108L167.008 101.653L166.759 100.7L179.035 103.156L179.283 104.108Z"
        fill="#535353" />
    <path fill-rule="evenodd" clip-rule="evenodd"
        d="M180.189 107.515L167.913 105.059L167.665 104.107L179.941 106.562L180.189 107.515Z"
        fill="#535353" />
    <g clip-path="url(#clip0_1027_22587)">
        <path fill-rule="evenodd" clip-rule="evenodd"
            d="M179.715 105.812L167.439 103.356L167.19 102.404L179.466 104.86L179.715 105.812Z"
            fill="#535353" />
        <path fill-rule="evenodd" clip-rule="evenodd"
            d="M180.621 109.219L168.345 106.764L168.097 105.812L180.373 108.267L180.621 109.219Z"
            fill="#535353" />
        <path fill-rule="evenodd" clip-rule="evenodd"
            d="M182.455 106.482L182.525 106.752C181.841 107.052 181.532 107.067 180.994 106.998C180.824 106.975 180.633 106.945 180.395 106.89C180.319 106.874 180.236 106.861 180.152 106.827C180.1 106.806 180.054 106.777 180.002 106.742C179.966 106.716 179.941 106.696 179.909 106.664C179.814 106.568 179.785 106.51 179.688 106.395L179.756 106.123C179.898 106.068 179.954 106.034 180.085 105.999C180.131 105.987 180.166 105.981 180.211 105.978C180.274 105.974 180.332 105.974 180.389 105.984C180.488 106.002 180.574 106.039 180.654 106.069C180.893 106.159 181.072 106.246 181.234 106.312C181.62 106.47 181.864 106.54 182.455 106.482Z"
            fill="url(#paint7_linear_1027_22587)" />
        <path fill-rule="evenodd" clip-rule="evenodd"
            d="M182.608 106.941L182.749 107.183C182.321 107.521 181.902 107.718 181.457 107.836C181.249 107.89 181.039 107.918 180.821 107.929C180.628 107.939 180.43 107.942 180.231 107.905C180.149 107.89 180.069 107.87 179.991 107.834C179.919 107.8 179.86 107.766 179.797 107.714C179.686 107.621 179.64 107.556 179.538 107.444L179.613 107.174C179.762 107.129 179.835 107.085 179.982 107.05C180.03 107.039 180.068 107.031 180.117 107.027C180.183 107.023 180.246 107.019 180.309 107.027C180.504 107.05 180.687 107.106 180.871 107.13C181.158 107.167 181.432 107.194 181.723 107.161C182.01 107.127 182.297 107.065 182.608 106.941Z"
            fill="url(#paint8_linear_1027_22587)" />
        <path fill-rule="evenodd" clip-rule="evenodd"
            d="M182.817 107.449L182.949 107.697C182.599 107.951 182.381 108.146 182.141 108.304C181.94 108.435 181.732 108.529 181.448 108.604C181.245 108.658 181.005 108.699 180.697 108.711C180.6 108.714 180.495 108.721 180.387 108.704C180.32 108.694 180.255 108.677 180.186 108.65C180.138 108.633 180.1 108.615 180.054 108.589C179.931 108.514 179.87 108.454 179.741 108.356L179.767 108.077C179.896 108.013 179.956 107.967 180.075 107.917C180.129 107.894 180.17 107.88 180.224 107.866C180.275 107.852 180.32 107.842 180.37 107.836C180.41 107.831 180.451 107.83 180.489 107.831C180.586 107.833 180.678 107.845 180.762 107.852C181.142 107.885 181.394 107.9 181.62 107.861C182.004 107.793 182.284 107.644 182.817 107.449Z"
            fill="url(#paint9_linear_1027_22587)" />
    </g>
    <path fill-rule="evenodd" clip-rule="evenodd"
        d="M165.432 87.5774C165.439 87.5719 165.448 87.5664 165.454 87.5664C165.227 87.6031 165.009 87.7643 164.829 87.964C164.604 88.215 164.422 88.499 164.349 88.7152L164.065 88.6565C164.092 88.3396 164.257 87.8651 164.516 87.4748C164.71 87.1817 164.972 86.9673 165.252 86.8538C165.377 86.8061 165.595 86.8171 165.866 86.8941C166.117 86.9637 166.447 87.0809 166.756 87.2568C166.808 87.2861 166.855 87.3191 166.901 87.3576C166.974 87.4162 167.033 87.4767 167.095 87.5445C167.141 87.5958 167.172 87.6379 167.209 87.691C167.277 87.7881 167.308 87.8504 167.365 87.942L167.227 88.1985C167.095 88.1985 167.005 88.2113 166.859 88.1967C166.743 88.1857 166.643 88.171 166.527 88.138C166.441 88.1124 166.359 88.0776 166.28 88.0391C166.088 87.9457 165.917 87.8284 165.756 87.7441C165.653 87.691 165.565 87.6397 165.487 87.6104C165.468 87.6031 165.446 87.5847 165.432 87.5774ZM165.432 87.5774C165.423 87.5829 165.415 87.5884 165.415 87.5793C165.417 87.5719 165.423 87.5719 165.432 87.5774Z"
        fill="url(#paint10_linear_1027_22587)" />
    <path fill-rule="evenodd" clip-rule="evenodd"
        d="M163.843 89.0026L163.727 88.7365C164.266 88.4232 164.935 88.3477 165.546 88.4698C165.834 88.529 166.1 88.6438 166.338 88.7963C166.54 88.9269 166.713 89.0937 166.85 89.2863C166.911 89.3721 166.966 89.463 167.003 89.5619C167.021 89.6122 167.038 89.6616 167.045 89.7139C167.061 89.8363 167.079 89.9497 167.055 90.0792C167.044 90.1328 167.041 90.1763 167.019 90.2295C166.97 90.3515 166.94 90.4303 166.859 90.5467L166.57 90.5237C166.516 90.4048 166.452 90.3519 166.39 90.248C166.353 90.1828 166.305 90.1441 166.269 90.0821C166.239 90.0297 166.199 89.9867 166.172 89.9351C166.089 89.7778 166.005 89.6255 165.877 89.5048C165.783 89.4159 165.687 89.3303 165.577 89.2607C165.073 88.9516 164.419 88.83 163.843 89.0026Z"
        fill="url(#paint11_linear_1027_22587)" />
    <path fill-rule="evenodd" clip-rule="evenodd"
        d="M163.615 89.3906L163.601 89.0997C164.071 89.0096 164.625 89.098 165.137 89.3202C165.354 89.4144 165.552 89.5416 165.734 89.6879C165.865 89.793 165.978 89.9119 166.075 90.0419C166.146 90.1324 166.214 90.2275 166.25 90.3354C166.289 90.4496 166.315 90.5626 166.305 90.6819C166.299 90.763 166.301 90.8221 166.272 90.8974C166.225 91.0172 166.203 91.0803 166.125 91.1891L165.835 91.1811C165.778 91.09 165.726 91.0685 165.661 90.9879C165.638 90.9588 165.612 90.9461 165.591 90.9165C165.551 90.8585 165.495 90.8248 165.456 90.7662C165.426 90.7204 165.4 90.6711 165.372 90.6224C165.328 90.5482 165.289 90.4704 165.236 90.3991C165.097 90.2059 164.933 90.0249 164.735 89.878C164.382 89.6167 163.991 89.4242 163.615 89.3906Z"
        fill="url(#paint12_linear_1027_22587)" />
    <path fill-rule="evenodd" clip-rule="evenodd"
        d="M163.008 89.627L163.127 89.3613C163.648 89.5116 164.082 89.8139 164.415 90.2041C164.569 90.3836 164.69 90.587 164.784 90.8032C164.89 91.0487 164.969 91.3143 164.956 91.5837C164.954 91.6405 164.945 91.6917 164.928 91.7449C164.903 91.8291 164.883 91.9006 164.835 91.9757C164.811 92.016 164.798 92.0453 164.765 92.082C164.685 92.1718 164.646 92.2175 164.551 92.2945L164.271 92.2121C164.238 92.1076 164.199 92.0655 164.162 91.9647C164.148 91.9263 164.133 91.9043 164.122 91.8658C164.102 91.7889 164.069 91.7302 164.054 91.6533C164.049 91.6203 164.043 91.5873 164.042 91.5544C164.036 91.4756 164.036 91.3968 164.029 91.3198C163.999 91.045 163.939 90.7775 163.811 90.532C163.624 90.1748 163.366 89.8542 163.008 89.627Z"
        fill="url(#paint13_linear_1027_22587)" />
    <ellipse opacity="0.35" cx="182.027" cy="138.608" rx="70.0946" ry="9.27613"
        fill="url(#paint14_radial_1027_22587)" />
    <defs>
        <radialGradient id="paint0_radial_1027_22587" cx="0" cy="0" r="1"
            gradientUnits="userSpaceOnUse"
            gradientTransform="translate(178.271 80.1371) rotate(7.49757) scale(46.3968 41.6201)">
            <stop offset="0.348536" stop-color="#FFF8D6" />
            <stop offset="0.424608" stop-color="#FFE767" />
            <stop offset="0.618936" stop-color="#FF9D42" />
            <stop offset="0.808975" stop-color="#FA4119" />
        </radialGradient>
        <radialGradient id="paint1_radial_1027_22587" cx="0" cy="0" r="1"
            gradientUnits="userSpaceOnUse"
            gradientTransform="translate(174.713 68.1258) rotate(127.844) scale(43.6403 82.2402)">
            <stop offset="0.169575" stop-color="#FFF8D6" stop-opacity="0" />
            <stop offset="0.357477" stop-color="#FFF8D6" stop-opacity="0.1" />
            <stop offset="0.619583" stop-color="#FFE767" />
            <stop offset="0.812983" stop-color="#FF9D42" />
            <stop offset="0.914067" stop-color="#FA4119" />
        </radialGradient>
        <linearGradient id="paint2_linear_1027_22587" x1="168.372" y1="74.2524" x2="160.147"
            y2="78.6964" gradientUnits="userSpaceOnUse">
            <stop stop-color="#FF9D42" />
            <stop offset="1" stop-color="#FA4119" />
        </linearGradient>
        <linearGradient id="paint3_linear_1027_22587" x1="165.359" y1="78.2847" x2="168.21"
            y2="80.7107" gradientUnits="userSpaceOnUse">
            <stop stop-color="#DD8500" />
            <stop offset="1" stop-color="#FD7631" />
        </linearGradient>
        <linearGradient id="paint4_linear_1027_22587" x1="173.211" y1="73.879" x2="175.394"
            y2="81.9145" gradientUnits="userSpaceOnUse">
            <stop stop-color="#FF9D42" />
            <stop offset="1" stop-color="#FA4119" />
        </linearGradient>
        <linearGradient id="paint5_linear_1027_22587" x1="101.612" y1="14.5915" x2="101.619"
            y2="129.137" gradientUnits="userSpaceOnUse">
            <stop stop-color="#FFD5DA" stop-opacity="0.57" />
            <stop offset="1" stop-color="#29FFC5" />
        </linearGradient>
        <radialGradient id="paint6_radial_1027_22587" cx="0" cy="0" r="1"
            gradientUnits="userSpaceOnUse"
            gradientTransform="translate(178.044 63.4689) rotate(77.0281) scale(90.1471 175.47)">
            <stop offset="0.0541677" stop-color="#FFF8D6" stop-opacity="0" />
            <stop offset="0.320275" stop-color="#FFF8D6" stop-opacity="0.1" />
            <stop offset="0.383224" stop-color="#FFE767" />
            <stop offset="0.512079" stop-color="#FF9D42" />
            <stop offset="0.555431" stop-color="#FA4119" />
        </radialGradient>
        <linearGradient id="paint7_linear_1027_22587" x1="183.191" y1="106.786" x2="179.729"
            y2="107.795" gradientUnits="userSpaceOnUse">
            <stop offset="0.315747" stop-color="#FFAD4A" />
            <stop offset="1" stop-color="#FD6A2C" />
        </linearGradient>
        <linearGradient id="paint8_linear_1027_22587" x1="183.191" y1="106.786" x2="179.729"
            y2="107.795" gradientUnits="userSpaceOnUse">
            <stop offset="0.315747" stop-color="#FFAD4A" />
            <stop offset="1" stop-color="#FD6A2C" />
        </linearGradient>
        <linearGradient id="paint9_linear_1027_22587" x1="183.191" y1="106.786" x2="179.729"
            y2="107.795" gradientUnits="userSpaceOnUse">
            <stop offset="0.315747" stop-color="#FFAD4A" />
            <stop offset="1" stop-color="#FD6A2C" />
        </linearGradient>
        <linearGradient id="paint10_linear_1027_22587" x1="164.156" y1="87.6978" x2="164.916"
            y2="89.1369" gradientUnits="userSpaceOnUse">
            <stop stop-color="#FFE976" />
            <stop offset="1" stop-color="#FC692B" />
        </linearGradient>
        <linearGradient id="paint11_linear_1027_22587" x1="164.442" y1="89.9658" x2="166.381"
            y2="90.4238" gradientUnits="userSpaceOnUse">
            <stop stop-color="#FFE976" />
            <stop offset="1" stop-color="#FC692B" />
        </linearGradient>
        <linearGradient id="paint12_linear_1027_22587" x1="163.988" y1="90.3226" x2="165.619"
            y2="90.9941" gradientUnits="userSpaceOnUse">
            <stop stop-color="#FFE976" />
            <stop offset="1" stop-color="#FC692B" />
        </linearGradient>
        <linearGradient id="paint13_linear_1027_22587" x1="163.062" y1="90.7156" x2="164.417"
            y2="91.6916" gradientUnits="userSpaceOnUse">
            <stop stop-color="#FFE976" />
            <stop offset="1" stop-color="#FC692B" />
        </linearGradient>
        <radialGradient id="paint14_radial_1027_22587" cx="0" cy="0" r="1"
            gradientUnits="userSpaceOnUse"
            gradientTransform="translate(182.027 138.608) scale(70.0946 9.27613)">
            <stop stop-color="#FFEDD7" />
            <stop offset="0.66" stop-color="#FFEDD7" />
            <stop offset="1" stop-color="#FBFCFE" stop-opacity="0" />
        </radialGradient>
        <clipPath id="clip0_1027_22587">
            <rect width="18.3209" height="18.3209" fill="white"
                transform="translate(165.752 102.404)" />
        </clipPath>
    </defs>
</svg>
    