<svg width="300" height="151" viewBox="0 0 300 151" fill="none" xmlns="http://www.w3.org/2000/svg">
    <path fill-rule="evenodd" clip-rule="evenodd"
        d="M118.7 80.2722C118.699 80.2722 118.699 80.2722 118.698 80.2722L118.701 80.2776L118.7 80.2722ZM119.513 80.3944C119.265 80.3099 118.99 80.2771 118.7 80.2722L118.687 80.1962C119.187 80.0251 119.816 79.9491 120.321 80.2369C120.477 80.3129 120.612 80.4337 120.745 80.5521C120.948 80.734 121.146 80.9104 121.404 80.9104C121.545 80.9143 121.673 80.8974 121.805 80.88C121.946 80.8614 122.09 80.8423 122.259 80.8479L122.305 80.9158C122.104 81.4128 121.572 81.8636 120.991 81.6925C120.866 81.6599 120.733 81.5676 120.644 81.4834C120.526 81.362 120.454 81.2495 120.388 81.1478C120.358 81.1017 120.33 81.0578 120.299 81.0163C120.132 80.7459 119.915 80.568 119.664 80.4542C119.858 81.096 120.086 81.738 120.413 82.3084C120.611 82.576 120.785 82.8043 120.958 83.0301L120.958 83.0301L120.958 83.0301C121.188 83.3313 121.414 83.6282 121.689 84.0084L121.659 84.0845C120.875 84.1822 120.156 83.5957 119.928 82.8706C119.606 82.0836 119.496 81.2341 119.513 80.3944ZM119.29 85.4183C117.257 84.7503 117.96 81.8527 118.609 80.3917L118.611 80.3889L118.69 80.4134C118.625 80.8533 118.571 81.2905 118.562 81.725C118.497 82.5669 118.679 83.3952 118.942 84.1583C119.037 84.5412 119.162 84.9024 119.344 85.3559L119.29 85.4183ZM121.42 85.3185C119.013 85.305 118.902 82.1928 119.013 80.4059L119.094 80.4005C119.117 80.5102 119.139 80.6197 119.16 80.729C119.233 81.0931 119.305 81.4542 119.401 81.8072C119.699 83.2058 120.467 84.2051 121.45 85.2425L121.42 85.3185Z"
        fill="url(#paint0_linear_1027_22567)" />
    <path
        d="M42.1704 38.8643L56.8921 51.6333L52.1214 55.2126L59.4619 60.8394L57.8717 71.4522L67.204 73.3423L69.1931 84.8839L78.4956 81.5762L86.0993 89.2208L94.2268 81.5762L103.958 86.0951L105.92 74.9473L120.061 81.951L114.574 64.6712L126.213 60.2338L117.033 51.188L122.256 40.2764L112.72 37.6395L110.965 25.6254L101.372 28.2162L95.1386 18.7113L87.2716 24.1725L78.0424 18.3447L73.6273 28.2162L61.9748 27.5997L63.2041 38.4922L42.1649 38.867L42.1704 38.8643Z"
        fill="url(#paint1_radial_1027_22567)" />
    <path
        d="M89.9634 48.5974C90.0801 48.5974 90.1941 48.5485 90.2755 48.4535C90.4193 48.2824 90.3976 48.0244 90.2267 47.8805C88.7748 46.6584 88.1263 45.8926 87.8603 44.3311C87.8332 44.1763 87.7192 44.0487 87.5673 44.0052C87.4153 43.9618 87.2525 44.0134 87.1493 44.1329C85.3448 46.2538 83.5184 46.433 80.7803 46.0257C80.5605 45.9931 80.3516 46.1452 80.319 46.3679C80.2865 46.5905 80.4384 46.7969 80.6609 46.8295C83.3583 47.2314 85.3529 47.0875 87.2335 45.2381C87.6161 46.5552 88.3651 47.3727 89.7029 48.4997C89.7789 48.5648 89.8712 48.5947 89.9661 48.5947L89.9634 48.5974Z"
        fill="url(#paint2_linear_1027_22567)" />
    <path fill-rule="evenodd" clip-rule="evenodd"
        d="M41.6087 38.5272C42.2085 38.7065 42.8597 38.7825 43.4947 38.8477V38.8504L43.5029 38.9319C42.8489 39.1084 42.1813 39.2252 41.4921 39.1708C41.457 39.1678 41.4213 39.1651 41.3852 39.1623C41.0639 39.1373 40.7086 39.1098 40.4256 38.8803C40.1162 38.6413 39.8747 38.2502 39.9371 37.8456L40.0104 37.8103C40.3523 37.9977 40.5884 38.0873 40.8408 38.1769C40.9587 38.2132 41.0722 38.2743 41.1906 38.3379C41.3202 38.4076 41.4556 38.4804 41.6087 38.5272ZM43.4756 38.9947C42.5991 39.3559 41.5978 39.5053 40.6968 39.2228L40.5492 39.1607C39.9385 38.9039 39.4478 38.6975 38.857 38.237L38.7837 38.2696C38.762 38.8481 39.1636 39.3831 39.6493 39.6791C40.0347 39.8963 40.4879 39.9398 40.9221 39.9479C41.8664 39.9778 42.7945 39.6356 43.519 39.0599L43.4756 38.9893V38.9947ZM43.3047 39.6414C42.5368 39.8641 41.7444 40.0461 40.9574 40.114C40.7021 40.1047 40.4704 40.1025 40.2468 40.1004H40.2468C39.7503 40.0956 39.2943 40.0913 38.7105 40.0108L38.6562 40.0732C38.8326 40.524 39.3048 40.7956 39.7498 40.8934C40.1641 40.9964 40.5694 40.8889 40.946 40.7891C40.9863 40.7784 41.0263 40.7678 41.066 40.7576C41.8855 40.5458 42.6399 40.171 43.34 39.7175L43.3047 39.6442V39.6414Z"
        fill="url(#paint3_linear_1027_22567)" />
    <path
        d="M107.426 51.6038C107.586 51.6038 107.738 51.5088 107.803 51.3485C107.887 51.1394 107.787 50.9032 107.578 50.819C105.106 49.8169 104.43 48.1088 104.064 46.4115C104.02 46.2132 103.841 46.0774 103.638 46.091C103.434 46.1046 103.274 46.2675 103.261 46.4685C103.176 47.7177 102.734 48.7334 102.048 49.2521C101.657 49.5481 101.212 49.6621 100.794 49.5725C100.574 49.5263 100.357 49.6675 100.311 49.8875C100.265 50.1075 100.406 50.3247 100.626 50.3709C101.277 50.5094 101.958 50.3437 102.539 49.9038C103.071 49.5019 103.478 48.9099 103.744 48.1767C104.281 49.4937 105.258 50.7538 107.274 51.5712C107.323 51.5902 107.377 51.6011 107.426 51.6011V51.6038Z"
        fill="url(#paint4_linear_1027_22567)" />
    <path
        d="M93.0937 56.7848C92.4843 56.4373 92.4529 55.3432 93.0236 54.3411C93.5943 53.3391 94.5509 52.8085 95.1603 53.1561C95.7697 53.5037 95.801 54.5977 95.2304 55.5998C94.6597 56.6018 93.7031 57.1324 93.0937 56.7848Z"
        fill="url(#paint5_linear_1027_22567)" />
    <path d="M42.1733 39.076L31.9645 46.8102L40.8816 23.4827L42.1733 39.076Z"
        fill="url(#paint6_linear_1027_22567)" />
    <path d="M40.8813 23.4827L31.9642 46.8102L29.3184 33.7913L40.8813 23.4827Z"
        fill="url(#paint7_linear_1027_22567)" />
    <path
        d="M29.3162 33.7903L37.5631 32.1636L42.1709 39.0722L34.5943 39.9304L29.3189 33.7903H29.3162Z"
        fill="url(#paint8_linear_1027_22567)" />
    <path
        d="M43.1702 38.8858C42.7957 38.7527 42.6735 38.3997 42.3099 38.291C42.2041 38.253 42.025 38.196 42.025 38.0982C42.0385 37.6175 41.9924 37.1885 41.6668 36.7322L41.5854 36.7268C41.4632 36.849 41.3791 36.9766 41.3167 37.1124C40.9504 37.7316 41.3656 38.8532 42.2285 38.769C42.2882 38.769 42.2963 38.7608 42.3506 38.7744C42.565 38.864 42.8988 38.9971 43.1566 38.9645L43.1729 38.8858H43.1702Z"
        fill="url(#paint9_linear_1027_22567)" />
    <path
        d="M188.069 53.2378L184.399 54.8365L181.684 37.2515C177.02 39.0785 173.426 44.2931 169.87 49.6599L165.549 40.9055C162.758 42.5422 160.388 47.6045 157.979 52.3624L152.244 48.5942C150.714 51.2586 150.485 56.2448 150.294 61.3071L143.259 55.2171L145.706 70.0235L138.864 73.602L141.959 82.6222L135.957 91.2321L144.81 96.6549C144.504 98.7765 140.602 110.891 140.223 113.11C142.236 112.399 147.209 110.291 151.642 108.578C151.438 111.569 153.143 122.642 154.377 127.595C156.638 125.507 166.671 115.995 171.771 114.659C173.58 116.911 188.365 128.271 190.055 128.845C190.055 121.108 189.65 109.792 191.295 106.11L208.678 100.359L199.005 91.8715L218.734 89.8542L205.046 80.3004L220.722 64.0476C214.031 63.4006 207.301 62.7535 198.469 62.2206L200.457 47.8329C197.781 48.6322 194.302 50.2689 190.708 52.0579L188.069 53.2378Z"
        fill="url(#paint10_radial_1027_22567)" />
    <path
        d="M151.663 68.1697L134.797 45.7702C134.644 44.2858 127.15 45.8463 132.77 46.4934L145.104 80.7154C150.14 86.5307 152.272 83.6662 154.082 80.0735C155.893 76.4808 152.556 70.8209 151.663 68.1697Z"
        fill="url(#paint11_linear_1027_22567)" />
    <path
        d="M130.935 40.8209C131.356 42.6479 132.197 44.3988 133.459 45.7691L133.612 45.6549C133.229 44.8175 132.962 43.9801 132.77 43.1427C132.579 42.3054 132.465 41.4299 132.426 40.5925C132.412 40.28 132.43 39.9568 132.448 39.6309C132.478 39.0838 132.508 38.5291 132.388 38.0043C132.337 37.7251 132.278 37.4629 132.218 37.2007C132.099 36.6763 131.98 36.1519 131.929 35.4921L131.776 35.416C131.318 35.6825 131.012 36.1392 130.82 36.634C130.209 38.0043 130.553 39.4507 130.935 40.8209Z"
        fill="url(#paint12_linear_1027_22567)" />
    <path
        d="M136.594 43.752C135.944 44.8177 135.103 45.6932 134.147 46.5306C134.147 46.5306 134.223 46.6828 134.223 46.6448C135.715 46.2641 137.053 45.3887 138.162 44.3229C139.156 43.4855 139.576 42.1534 139.041 40.8592L138.85 40.8212C138.2 41.2779 137.779 41.7347 137.397 42.1914C137.175 42.4568 137.043 42.7736 136.911 43.0895C136.817 43.3173 136.722 43.5447 136.594 43.752Z"
        fill="url(#paint13_linear_1027_22567)" />
    <path
        d="M133.078 46.2907C131.801 45.4444 130.498 44.5814 129.597 43.2953C128.373 41.0496 127.953 38.1188 129.329 35.835L129.52 35.8731C129.903 36.9769 130.17 37.9285 130.4 38.9562C130.545 39.4716 130.544 40.043 130.543 40.6096C130.542 41.089 130.542 41.5651 130.629 42.0012C130.82 42.9528 131.432 43.714 132.082 44.4753C132.38 44.8207 132.691 45.1589 133.005 45.4993C133.352 45.8758 133.701 46.2549 134.036 46.6491C134.098 46.6606 134.161 46.6719 134.223 46.6829V46.8352C134.213 46.8357 134.203 46.8361 134.193 46.8366C134.203 46.8488 134.213 46.861 134.223 46.8732L134.109 46.9874C134.042 46.9408 133.976 46.8943 133.909 46.8481C131.564 46.9312 129.196 46.7069 127.073 45.5411C125.888 44.9321 124.703 43.8663 124.435 42.496C124.321 42.0012 124.321 41.4303 124.359 40.9355C124.474 40.06 125.047 39.3749 125.582 38.804L125.773 38.842C125.827 39.2167 125.822 39.5579 125.817 39.8814C125.812 40.248 125.807 40.5917 125.888 40.9355C126.118 41.7729 126.423 42.4199 126.882 43.1812C127.418 44.0566 128.335 44.6656 129.291 45.1604C130.62 45.8057 132.004 46.2322 133.442 46.5327C133.321 46.4519 133.2 46.3714 133.078 46.2907Z"
        fill="url(#paint14_linear_1027_22567)" />
    <path fill-rule="evenodd" clip-rule="evenodd"
        d="M207.311 44.3716C209.119 43.2844 210.481 41.3063 210.57 39.1837L210.435 39.1032C209.871 39.7095 209.309 40.3066 208.748 40.9037C208.187 41.5009 207.625 42.098 207.061 42.7042C205.219 44.7166 202.559 45.9338 199.804 46.0296C200.415 45.5368 201.04 45.1174 201.698 44.708L201.738 44.682C203.767 43.3862 206.542 41.6133 206.012 38.8052L205.877 38.7247C205.61 38.9869 205.394 39.2403 205.195 39.4742L205.195 39.4742C205.139 39.539 205.085 39.6023 205.032 39.6639C204.922 39.7918 204.799 39.9308 204.67 40.0763L204.67 40.0763C204.289 40.5066 203.858 40.9933 203.58 41.4152C203.05 42.2878 202.307 43.0138 201.562 43.7408C200.843 44.4432 200.123 45.1465 199.593 45.984L199.717 46.1009L199.737 46.0847L199.731 46.1885C202.343 46.6566 205.102 45.8556 207.311 44.3716ZM206.385 46.2391C204.192 47.0125 201.776 46.6831 199.563 46.2155L199.566 46.3359C200.425 46.7937 201.328 47.1057 202.279 47.3921C203.716 47.7854 205.291 47.8613 206.785 47.6743C208.328 47.4618 209.603 46.2925 210.366 44.969L210.279 44.863C209.762 44.9862 209.318 45.1313 208.863 45.313C208.48 45.4564 208.052 45.6162 207.624 45.776C207.196 45.9358 206.768 46.0956 206.385 46.2391ZM197.91 43.2441C198.091 44.6118 198.623 46.0057 199.497 47.0648L199.629 47.0249C199.394 46.3572 199.221 45.7479 199.179 45.0988C199.138 44.4497 199.097 43.8006 199.128 43.1734C199.141 42.9309 199.182 42.6911 199.223 42.45C199.289 42.0678 199.356 41.6825 199.308 41.2777L199.308 41.2775C199.23 40.6175 199.152 39.9574 198.855 39.2312L198.698 39.2236C198.194 39.828 197.91 40.4984 197.783 41.1764C197.652 41.71 197.746 42.2603 197.841 42.8214C197.865 42.9616 197.889 43.1026 197.91 43.2441Z"
        fill="url(#paint15_linear_1027_22567)" />
    <path
        d="M197.702 78.8193L200.664 46.6613C200.678 46.448 203.391 46.3927 203.058 46.1026C202.599 45.7035 199.04 45.1161 198.935 45.3839L183.127 82.3354C183.105 82.4082 183.094 82.4447 183.072 82.5175C182.833 87.8943 196.902 87.0892 197.702 78.8193Z"
        fill="url(#paint16_linear_1027_22567)" />
    <path
        d="M163.789 78.87C164.377 76.9609 164.134 75.1933 163.246 74.922C162.358 74.6507 161.161 75.9785 160.572 77.8876C159.984 79.7968 160.227 81.5644 161.115 81.8357C162.003 82.107 163.2 80.7792 163.789 78.87Z"
        fill="url(#paint17_linear_1027_22567)" />
    <path
        d="M162.377 63.0307C162.507 62.8646 162.476 62.6255 162.309 62.4967C162.143 62.3678 161.902 62.398 161.773 62.5641L160.467 64.24C160.045 64.0978 159.596 64.0498 159.232 64.0372C159.215 64.0366 159.196 64.0358 159.176 64.0351C158.785 64.0199 157.903 63.9857 157.903 64.5116C157.94 64.7664 158.171 64.8523 158.397 64.8272C158.525 64.813 158.837 64.7851 159.205 64.798C159.714 64.8157 160.261 64.9086 160.624 65.1532C160.655 65.1743 160.718 65.2405 160.794 65.3983C160.866 65.549 160.934 65.7488 160.994 65.9898C161.116 66.4712 161.199 67.07 161.255 67.664C161.311 68.2554 161.339 68.8295 161.353 69.2567C161.355 69.3137 161.353 69.3832 161.35 69.4591C161.337 69.8241 161.319 70.3384 161.75 70.3384C162.077 70.3331 162.141 70.1807 162.13 69.7576C162.128 69.6312 162.125 69.4504 162.117 69.2317C162.103 68.795 162.074 68.2044 162.016 67.5926C161.959 66.9835 161.871 66.3408 161.736 65.8047C161.669 65.537 161.587 65.284 161.484 65.0706C161.403 64.9014 161.297 64.7304 161.153 64.6013L162.377 63.0307Z"
        fill="url(#paint18_linear_1027_22567)" />
    <path
        d="M172.773 63.7109C172.761 63.501 172.581 63.3402 172.37 63.3517C172.159 63.3632 171.998 63.5426 172.009 63.7525L172.126 65.8685C171.83 66.0382 171.556 66.2868 171.314 66.5512C170.913 66.9876 170.536 67.5349 170.215 68.0606C169.892 68.5886 169.619 69.1069 169.426 69.4922C169.385 69.5736 169.369 69.6096 169.351 69.6491C169.326 69.7033 169.298 69.7642 169.201 69.9581C169.032 70.2936 169.09 70.5314 169.314 70.6394C169.683 70.8173 169.892 70.3323 170.035 70.0008C170.062 69.9366 170.087 69.8781 170.111 69.8313C170.297 69.4583 170.56 68.9602 170.868 68.4561C171.178 67.9498 171.525 67.4494 171.878 67.0648C172.244 66.6659 172.581 66.4936 172.822 66.4533C173.336 66.3674 173.735 66.6581 174.07 67.1631C174.274 67.47 174.437 67.8127 174.547 68.1644L174.548 68.1648C174.608 68.3661 174.82 68.4809 175.023 68.4212C175.298 68.3401 175.322 68.0622 175.243 67.8349C175.173 67.633 175.002 67.1861 174.708 66.743C174.358 66.2159 173.754 65.5923 172.879 65.6398L172.773 63.7109Z"
        fill="url(#paint19_linear_1027_22567)" />
    <path
        d="M282.686 46.3007L269.788 47.4391L266.641 34.3059L255.352 43.4959L250.192 34.6948L242.814 44.6741L232.587 42.1435L231.296 54.7294L222.041 58.2532L226.194 69.9314L219.226 75.7637L226.548 84.6949L220.858 93.8579L230.976 99.1772L229.279 109.861L240.876 108.106L242.869 118.653L254.271 111.845L259.085 119.668L267.199 109.539L276.19 113.664L278.484 102.183L288.714 99.2033L285.128 86.3479L293.258 79.3077L283.636 71.7314L289.086 62.2503L278.928 57.8365L282.686 46.3007Z"
        fill="url(#paint20_radial_1027_22567)" />
    <path
        d="M244.376 60.7811C244.658 59.862 244.866 58.9916 245.039 58.005C245.081 57.7723 244.925 57.5519 244.691 57.5101C244.46 57.4716 244.236 57.6234 244.194 57.8561C244.043 58.7146 243.872 59.4555 243.643 60.2378C242.907 59.7772 242.048 59.449 241.05 59.2577C240.82 59.2104 240.592 59.3648 240.548 59.5973C240.503 59.8297 240.656 60.0527 240.889 60.0974C243.052 60.512 244.486 61.6278 245.278 63.5074C245.34 63.656 245.479 63.7532 245.629 63.7686C245.697 63.7756 245.769 63.7652 245.838 63.7367C246.055 63.6464 246.158 63.3963 246.068 63.1767C245.656 62.1983 245.095 61.403 244.376 60.7811Z"
        fill="url(#paint21_linear_1027_22567)" />
    <path
        d="M262.496 59.2491C262.467 59.015 262.251 58.8507 262.016 58.8799C260.179 59.115 258.41 59.8281 256.974 60.8511C257.207 59.8262 257.445 58.7841 257.716 57.7691C257.778 57.5414 257.641 57.3081 257.413 57.2461C257.183 57.1871 256.95 57.3201 256.887 57.5507C256.568 58.7445 256.29 59.9751 256.022 61.1652L255.892 61.7414C255.387 62.2228 254.952 62.75 254.606 63.3099C254.481 63.5104 254.543 63.7746 254.745 63.8989C254.8 63.9343 254.864 63.9527 254.926 63.959C255.085 63.9753 255.247 63.9031 255.336 63.7582C256.625 61.6744 259.29 60.0933 262.128 59.7298C262.363 59.7006 262.528 59.4864 262.499 59.2523L262.496 59.2491Z"
        fill="url(#paint22_linear_1027_22567)" />
    <path
        d="M246.161 69.4589L243.873 65.1861L240.794 68.9083L239.199 68.3594C237.404 70.7083 235.882 73.2125 234.201 75.6412L231.364 80.1406L231.712 86.1193C232.684 88.8291 235.054 96.3395 235.054 96.3395L238.415 94.7113L246.2 81.2334L246.164 69.4592L246.161 69.4589Z"
        fill="url(#paint23_linear_1027_22567)" />
    <path
        d="M260.07 67.1919C257.831 68.8256 255.736 70.6251 253.47 72.2236L246.161 69.459L246.197 81.2331L238.412 94.711L245.208 105.864L254.474 93.6485L261.32 74.7118L260.07 67.1948L260.07 67.1919Z"
        fill="url(#paint24_linear_1027_22567)" />
    <path
        d="M254.478 93.646L260.214 96.9454L264.103 93.3865L269.376 88.0704L268.024 79.1062L266.296 72.6599L261.321 74.7061L256.961 83.3362L254.475 93.6428L254.478 93.646Z"
        fill="url(#paint25_linear_1027_22567)" />
    <path
        d="M251.583 76.4293L258.806 74.267L258.265 80.9574L255.257 86.8643L247.675 87.4491L248.643 81.3832L251.583 76.4263L251.583 76.4293Z"
        fill="url(#paint26_linear_1027_22567)" />
    <path
        d="M242.508 76.8914L249.106 71.8594L253.626 76.8857L256.227 83.7621L250.358 94.8356L240.395 90.0596L239.318 82.2789L242.511 76.8917L242.508 76.8914Z"
        fill="url(#paint27_linear_1027_22567)" />
    <path
        d="M256.235 83.6561L248.764 85.2269L242.99 82.525L242.585 81.2452L249.254 80.4511L256.228 83.7206"
        fill="url(#paint28_linear_1027_22567)" />
    <path
        d="M260.722 91.6497L246.924 94.7755L251.253 80.0601L260.418 79.0038L263.503 81.3171L260.722 91.6497Z"
        fill="url(#paint29_linear_1027_22567)" />
    <path
        d="M251.253 80.0598L257.669 87.7307L260.794 87.9032L260.676 91.6004L254.43 89.3892L251.253 80.0569L251.253 80.0598Z"
        fill="#231F20" />
    <path
        d="M239.557 71.8007C239.557 71.8007 235.165 77.5033 234.279 78.6863L233.006 83.287L234.581 88.4169L242.556 96.4078L238.829 85.6532L239.554 71.8004L239.557 71.8007Z"
        fill="url(#paint30_linear_1027_22567)" />
    <path
        d="M243.391 79.2533L239.557 71.8L238.832 85.6529L242.559 96.4074L245.228 85.0767L243.391 79.2533Z"
        fill="url(#paint31_linear_1027_22567)" />
    <path
        d="M233.006 83.2867L238.832 85.6532L245.228 85.0771L239.281 79.9488L233.007 83.2838L233.006 83.2867Z"
        fill="url(#paint32_linear_1027_22567)" />
    <path
        d="M234.932 82.2137C234.272 79.6946 230.606 68.717 230.606 68.717C225.533 67.7029 224.687 69.7119 223.019 76.9682C223.114 77.2793 227.33 84.1138 230.837 84.7554C232.786 85.112 233.801 85.2279 234.702 84.4517C235.171 84.0069 235.225 83.3326 234.932 82.2137Z"
        fill="url(#paint33_radial_1027_22567)" />
    <path
        d="M275.581 91.1994C286.286 87.8153 280.883 80.3667 276.584 78.7198L252.969 82.7058C252.268 82.846 250.996 83.3348 251.515 84.1687C253.841 88.8506 264.876 94.5835 275.581 91.1994Z"
        fill="url(#paint34_radial_1027_22567)" />
    <path
        d="M256.685 82.3476C256.685 82.3475 256.685 82.3473 256.686 82.3472L256.686 82.3501L256.685 82.3476Z"
        fill="url(#paint35_linear_1027_22567)" />
    <path
        d="M256.685 82.3476L256.662 82.2647C256.463 82.2929 256.263 82.3233 256.061 82.3539C255.243 82.4781 254.408 82.605 253.604 82.5938C253.245 82.6007 252.923 82.4641 252.6 82.3272C252.223 82.1671 251.845 82.0067 251.407 82.0751C251.114 82.1161 250.843 82.2039 250.592 82.353L250.601 82.4398C250.727 82.4877 250.855 82.5302 250.981 82.5724C251.315 82.6838 251.643 82.7933 251.928 82.9966C252.118 83.1198 252.423 83.2844 252.746 83.3264C254.073 83.412 255.297 82.9131 256.494 82.4253C256.558 82.3994 256.621 82.3734 256.685 82.3476Z"
        fill="url(#paint36_linear_1027_22567)" />
    <path
        d="M254.621 84.657L254.62 84.6571L254.615 84.5705C253.52 84.5085 252.43 84.3404 251.387 84.0319C251.089 83.9161 250.807 83.8045 250.53 83.6951C249.834 83.4205 249.173 83.1596 248.398 82.8808L248.335 82.9425C248.812 84.0936 250.07 84.6197 251.23 84.7209C252.357 84.8988 253.504 84.8595 254.62 84.6571L254.62 84.66L254.621 84.657Z"
        fill="url(#paint37_linear_1027_22567)" />
    <path
        d="M247.659 84.1852C249.058 86.7136 252.517 86.3338 254.887 85.6823L254.873 85.5949C254.235 85.6331 253.6 85.6658 252.975 85.6372C251.472 85.6516 250.195 85.1255 248.865 84.5779C248.49 84.4232 248.11 84.2667 247.72 84.1203L247.659 84.1852Z"
        fill="url(#paint38_linear_1027_22567)" />
    <path
        d="M247.779 86.2917C249.649 88.2553 253.139 87.3186 255.294 86.3281L255.297 86.3284L255.267 86.2453C254.036 86.5486 252.772 86.7181 251.517 86.6753C250.914 86.6148 250.349 86.5351 249.783 86.4553L249.782 86.4552C249.149 86.3659 248.513 86.2762 247.82 86.213L247.779 86.2917Z"
        fill="url(#paint39_linear_1027_22567)" />
    <path
        d="M232.921 81.1646C232.886 81.2078 232.851 81.2491 232.819 81.2875L232.822 81.2907L232.881 81.356C232.94 81.3195 233 81.2826 233.06 81.2457C233.332 81.0773 233.603 80.9099 233.879 80.7948C234.035 80.719 234.217 80.6903 234.248 80.732C234.292 80.7817 234.336 80.8343 234.381 80.8879C234.582 81.1266 234.8 81.387 235.118 81.5115C235.795 81.7825 236.523 81.475 236.972 80.9582L236.945 80.8754C236.546 80.7766 236.152 80.7435 235.764 80.711C235.636 80.7002 235.509 80.6895 235.382 80.6765C235.255 80.6694 235.136 80.6394 235.006 80.5402L234.775 80.3506C234.077 79.7687 233.369 80.6235 232.921 81.1646Z"
        fill="url(#paint40_linear_1027_22567)" />
    <path
        d="M232.223 81.3267C233.191 81.6898 234.187 82.0201 235.201 82.1804C235.843 82.2265 236.407 82.2525 236.995 82.2796L236.995 82.2797C237.375 82.2972 237.765 82.3152 238.194 82.3394L238.227 82.4198C236.935 83.7596 234.938 82.9474 233.54 82.241C233.069 81.9824 232.612 81.7103 232.182 81.4055L232.223 81.3267Z"
        fill="url(#paint41_linear_1027_22567)" />
    <path
        d="M234.626 84.2425C233.353 84.0231 232.122 83.5472 230.943 83.0025L230.946 83.0058L230.899 83.081C231.433 83.4765 231.998 83.8307 232.587 84.1548C234.329 85.0742 236.797 85.9082 238.442 84.3556L238.405 84.2749C237.062 84.3415 235.936 84.3829 234.626 84.2425Z"
        fill="url(#paint42_linear_1027_22567)" />
    <path
        d="M233.829 85.7342C232.802 85.22 231.869 84.508 231.027 83.7136L231.027 83.7165L230.959 83.7718C231.286 84.2675 231.667 84.7303 232.078 85.1694C233.313 86.4189 235.219 87.8588 237.032 86.8954L237.02 86.8082C235.858 86.4668 234.921 86.1781 233.829 85.7342Z"
        fill="url(#paint43_linear_1027_22567)" />
    <path d="M29.6606 91.4905L22.3409 97.9021" stroke="black" stroke-width="0.345234"
        stroke-miterlimit="10" />
    <path
        d="M55.8986 95.3252L54.6433 113.923L47.424 109.683L41.4875 119.747L37.553 109.972L19.7853 119.747L20.5199 104.65L10.5452 99.2404L16.0862 88.842L3.97535 75.2985L16.3969 75.4227L16.6144 61.1335L28.9738 67.9208L37.6909 49.9583L42.9523 68.9772L50.8892 59.5143L52.9434 74.4561L61.621 75.2985L56.5331 87.6114L61.9844 94.0076L55.8986 95.3252Z"
        fill="url(#paint44_radial_1027_22567)" />
    <path
        d="M51.9413 103.867L55.5249 95.7606L47.76 91.8199C44.7574 89.2109 51.1058 83.456 51.9413 84.7506L61.5078 96.5581L52.0035 105.248C51.6341 104.999 51.5547 104.578 51.9448 103.867H51.9413Z"
        fill="url(#paint45_radial_1027_22567)" />
    <path
        d="M32.6373 115.346L25.7706 109.822L26.2263 101.378L45.259 96.7588L51.2178 101.865L50.7103 109.736L32.6373 115.346Z"
        fill="url(#paint46_linear_1027_22567)" />
    <path
        d="M25.3344 110.701C25.179 110.618 25.0029 110.456 24.7992 110.183C24.309 109.53 15.0495 101.138 14.9109 100.323C14.7722 99.5083 23.2178 87.1833 25.2375 86.7068C26.3152 86.4773 26.5907 88.6021 27.7038 90.1391C28.817 91.6755 29.6778 92.3338 30.9556 93.5055L21.8648 100.745L26.3528 108.982C26.3528 108.982 25.9799 111.056 25.3344 110.704"
        fill="url(#paint47_radial_1027_22567)" />
    <path fill-rule="evenodd" clip-rule="evenodd"
        d="M53.3909 102.194C53.3004 102.161 53.2105 102.126 53.1214 102.091L53.1214 102.091C52.9079 102.008 52.6988 101.926 52.4967 101.887C52.3551 101.838 52.2308 101.863 52.2446 101.887C52.2457 101.889 52.2467 101.89 52.2475 101.89C52.2492 101.892 52.2495 101.892 52.2446 101.904C51.7785 102.753 50.6702 102.895 49.9624 102.073L49.9831 101.983C50.1696 101.883 50.3319 101.831 50.4872 101.797C50.7358 101.721 50.9706 101.652 51.2054 101.655L51.2188 101.655C51.3038 101.656 51.3863 101.656 51.4781 101.597C51.5124 101.574 51.5479 101.547 51.585 101.518C51.709 101.424 51.851 101.317 52.0237 101.293C52.1135 101.271 52.1947 101.284 52.2792 101.297C52.3019 101.3 52.3248 101.304 52.3482 101.307C52.3877 101.32 52.4694 101.353 52.529 101.377L52.5761 101.396C52.9248 101.597 53.1976 101.863 53.4462 102.118L53.3875 102.191L53.3909 102.194ZM53.5274 102.566L53.5289 102.564V102.568L53.5274 102.566ZM53.5274 102.566L53.4737 102.488C52.6761 102.747 51.8578 102.992 51.0292 103.12C50.1246 103.158 49.5065 103.217 48.595 103.452L48.5674 103.538C48.8967 103.878 49.3158 104.052 49.7538 104.103C49.1029 104.148 48.4788 104.192 47.7335 104.294L47.7025 104.38C49.6153 105.996 52.3809 104.318 53.8897 103.161L53.831 103.082C52.8711 103.483 51.8699 103.842 50.8306 104.021L50.7426 104.029C50.9347 103.98 51.1199 103.913 51.2916 103.831C52.1299 103.535 52.858 103.08 53.5274 102.566ZM49.2206 106.02C51.2197 107.083 53.1631 104.798 53.9849 103.427L53.9112 103.302C53.8105 103.39 53.7091 103.479 53.6067 103.569C53.025 104.083 52.4123 104.623 51.7135 104.949C51.6612 104.967 51.6097 104.984 51.5589 105.002C50.7204 105.286 50.0703 105.506 49.2206 105.926V106.02Z"
        fill="url(#paint48_radial_1027_22567)" />
    <path fill-rule="evenodd" clip-rule="evenodd"
        d="M25.7017 108.978C25.6119 109.004 25.5212 109.03 25.43 109.053L25.4334 109.047L25.3817 108.971C25.6544 108.743 25.9514 108.511 26.3139 108.346C26.3341 108.34 26.3665 108.33 26.4016 108.319C26.4561 108.302 26.5171 108.283 26.5487 108.277C26.5741 108.276 26.5993 108.274 26.6242 108.272C26.7073 108.267 26.7882 108.261 26.8732 108.29C27.0399 108.33 27.1721 108.445 27.2869 108.544C27.3219 108.575 27.3554 108.604 27.3877 108.629C27.4774 108.698 27.5672 108.705 27.6535 108.708C27.8849 108.722 28.1127 108.808 28.3544 108.901C28.5029 108.95 28.6617 109.012 28.8378 109.122L28.8516 109.212C28.0713 109.948 26.9837 109.72 26.597 108.867C26.5922 108.855 26.5924 108.855 26.5942 108.853C26.5949 108.853 26.596 108.852 26.597 108.85C26.6143 108.829 26.4934 108.794 26.3484 108.829C26.1417 108.851 25.9245 108.914 25.7017 108.978ZM25.2618 109.399C25.8799 109.948 26.567 110.445 27.3749 110.797C27.5361 110.887 27.7113 110.965 27.8948 111.027L27.8162 111.014C26.7976 110.759 25.8343 110.334 24.9159 109.872L24.8503 109.941V109.944C24.874 109.965 24.898 109.986 24.9223 110.007L24.8844 110.028H24.8879C25.5784 111.412 27.1471 113.929 29.2326 113.066C29.2683 113.041 29.2521 113.004 29.2326 112.973C28.8307 112.347 28.2376 112.157 27.6759 111.978C27.3195 111.864 26.9757 111.754 26.7014 111.539C26.19 111.138 25.838 110.821 25.4482 110.444C26.9086 111.598 29.1104 112.832 30.896 111.612L30.8753 111.525C30.1472 111.368 29.5332 111.275 28.8924 111.18C29.3287 111.164 29.7568 111.03 30.1129 110.731L30.0922 110.645C29.2083 110.345 28.5971 110.241 27.6994 110.131C26.8846 109.941 26.0939 109.64 25.324 109.326L25.2618 109.399Z"
        fill="url(#paint49_radial_1027_22567)" />
    <path
        d="M26.5567 101.637C26.6741 101.485 26.8915 101.457 27.04 101.578L33.4717 106.584L50.471 102.024C50.654 101.975 50.8439 102.082 50.8922 102.269C50.9406 102.452 50.8335 102.641 50.6471 102.693L33.5339 107.285L32.9504 113.106C32.94 113.195 32.8675 113.261 32.7778 113.261C32.7709 113.261 32.7674 113.261 32.7605 113.261C32.6673 113.251 32.5948 113.168 32.6052 113.071L33.1886 107.247L26.6119 102.127C26.46 102.01 26.4358 101.792 26.5532 101.644L26.5567 101.637Z"
        fill="#FD2D2E" />
    <path
        d="M43.4796 79.3174C44.47 80.9482 44.6252 81.6085 46.4409 81.3444C45.2029 81.9453 44.2158 82.6517 44.0904 83.728C43.7206 83.1403 42.8524 82.8168 41.2908 82.8663C42.5982 82.3975 42.3572 81.9717 43.4796 79.3207V79.3174ZM36.2596 84.0548C34.9126 84.0548 34.3118 83.8006 33.602 81.4996C33.2719 83.3978 31.334 84.408 29.6404 84.2496C31.6542 84.4378 33.3643 85.1905 34.1698 86.3459C34.3085 85.4711 34.982 84.692 36.2629 84.0548H36.2596Z"
        fill="url(#paint50_radial_1027_22567)" />
    <path fill-rule="evenodd" clip-rule="evenodd"
        d="M32.5407 88.4264C32.3496 88.6221 32.3533 88.9356 32.549 89.1267C34.507 91.0383 37.4709 91.3392 40.068 90.5675C40.3302 90.4896 40.4796 90.2139 40.4017 89.9517C40.3238 89.6895 40.0481 89.5401 39.7859 89.618C37.4125 90.3233 34.863 90.0016 33.241 88.418C33.0453 88.2269 32.7318 88.2307 32.5407 88.4264Z"
        fill="url(#paint51_linear_1027_22567)" />
    <ellipse opacity="0.35" cx="172.468" cy="142.335" rx="46.6573" ry="6.1745"
        fill="url(#paint52_radial_1027_22567)" />
    <ellipse opacity="0.35" cx="253.341" cy="142.335" rx="46.6573" ry="6.1745"
        fill="url(#paint53_radial_1027_22567)" />
    <ellipse opacity="0.35" cx="90.3659" cy="142.152" rx="27.4572" ry="4.99223"
        fill="url(#paint54_radial_1027_22567)" />
    <ellipse opacity="0.35" cx="38.4468" cy="142.152" rx="34.4464" ry="5.99067"
        fill="url(#paint55_radial_1027_22567)" />
    <defs>
        <linearGradient id="paint0_linear_1027_22567" x1="118.007" y1="82.7019" x2="122.602"
            y2="83.1931" gradientUnits="userSpaceOnUse">
            <stop stop-color="#FF9330" />
            <stop offset="0.878495" stop-color="#FA4119" />
        </linearGradient>
        <radialGradient id="paint1_radial_1027_22567" cx="0" cy="0" r="1"
            gradientUnits="userSpaceOnUse"
            gradientTransform="translate(90.4715 53.7828) rotate(173.43) scale(68.7455 64.178)">
            <stop offset="0.221759" stop-color="#FFF8D6" />
            <stop offset="0.335" stop-color="#FFE767" />
            <stop offset="0.435" stop-color="#FF9D42" />
            <stop offset="0.686918" stop-color="#FA4119" />
        </radialGradient>
        <linearGradient id="paint2_linear_1027_22567" x1="90.3805" y1="46.2912" x2="80.3107"
            y2="46.2912" gradientUnits="userSpaceOnUse">
            <stop offset="0.16" stop-color="#ED7100" />
            <stop offset="0.9" stop-color="#FA4119" />
        </linearGradient>
        <linearGradient id="paint3_linear_1027_22567" x1="38.7268" y1="39.3556" x2="43.6999"
            y2="40.3752" gradientUnits="userSpaceOnUse">
            <stop stop-color="#FA4119" />
            <stop offset="0.878495" stop-color="#FF9330" />
        </linearGradient>
        <linearGradient id="paint4_linear_1027_22567" x1="107.84" y1="48.844" x2="100.299"
            y2="48.844" gradientUnits="userSpaceOnUse">
            <stop offset="0.16" stop-color="#FA4119" />
            <stop offset="0.9" stop-color="#ED7100" />
        </linearGradient>
        <linearGradient id="paint5_linear_1027_22567" x1="95.2337" y1="55.599" x2="93.0231"
            y2="54.3401" gradientUnits="userSpaceOnUse">
            <stop offset="0.1" stop-color="#FA4119" />
            <stop offset="0.84" stop-color="#ED7100" />
        </linearGradient>
        <linearGradient id="paint6_linear_1027_22567" x1="42.1733" y1="35.1464" x2="31.9645"
            y2="35.1464" gradientUnits="userSpaceOnUse">
            <stop stop-color="#5DDDEF" />
            <stop offset="0.82" stop-color="#69BAE8" />
        </linearGradient>
        <linearGradient id="paint7_linear_1027_22567" x1="34.0157" y1="26.3613" x2="41.0211"
            y2="51.8832" gradientUnits="userSpaceOnUse">
            <stop stop-color="#4298EB" />
            <stop offset="0.82" stop-color="#69BAE8" />
        </linearGradient>
        <linearGradient id="paint8_linear_1027_22567" x1="43.1858" y1="41.7417" x2="29.9382"
            y2="31.1438" gradientUnits="userSpaceOnUse">
            <stop offset="0.27" stop-color="#66B4D7" />
            <stop offset="0.32" stop-color="#70B9CE" />
            <stop offset="0.44" stop-color="#85C5BD" />
            <stop offset="0.58" stop-color="#94CDB2" />
            <stop offset="0.75" stop-color="#9DD2AB" />
            <stop offset="1" stop-color="#A0D4A9" />
        </linearGradient>
        <linearGradient id="paint9_linear_1027_22567" x1="41.2121" y1="37.8359" x2="43.3038"
            y2="38.0804" gradientUnits="userSpaceOnUse">
            <stop stop-color="#FA4119" />
            <stop offset="0.878495" stop-color="#FF9330" />
        </linearGradient>
        <radialGradient id="paint10_radial_1027_22567" cx="0" cy="0" r="1"
            gradientUnits="userSpaceOnUse"
            gradientTransform="translate(169.773 77.1642) rotate(91.3986) scale(56.2585 58.6611)">
            <stop offset="0.27967" stop-color="#F3F6FF" />
            <stop offset="0.445" stop-color="#D1DEFF" />
            <stop offset="0.607135" stop-color="#C3BCFF" />
            <stop offset="0.833404" stop-color="#BA61FF" />
        </radialGradient>
        <linearGradient id="paint11_linear_1027_22567" x1="119.854" y1="47.8092" x2="161.226"
            y2="70.9184" gradientUnits="userSpaceOnUse">
            <stop stop-color="#BA61FF" />
            <stop offset="0.314673" stop-color="#C3BCFF" />
            <stop offset="0.595" stop-color="#D1DEFF" />
            <stop offset="1" stop-color="#F3F6FF" stop-opacity="0" />
        </linearGradient>
        <linearGradient id="paint12_linear_1027_22567" x1="124.336" y1="31.7923" x2="135.539"
            y2="50.7869" gradientUnits="userSpaceOnUse">
            <stop offset="0.17792" stop-color="#A54AEA" />
            <stop offset="0.856452" stop-color="#7365EE" />
        </linearGradient>
        <linearGradient id="paint13_linear_1027_22567" x1="124.336" y1="31.7923" x2="135.539"
            y2="50.7869" gradientUnits="userSpaceOnUse">
            <stop offset="0.17792" stop-color="#A54AEA" />
            <stop offset="0.856452" stop-color="#7365EE" />
        </linearGradient>
        <linearGradient id="paint14_linear_1027_22567" x1="124.336" y1="31.7923" x2="135.539"
            y2="50.7869" gradientUnits="userSpaceOnUse">
            <stop offset="0.17792" stop-color="#A54AEA" />
            <stop offset="0.856452" stop-color="#7365EE" />
        </linearGradient>
        <linearGradient id="paint15_linear_1027_22567" x1="209.692" y1="36.9706" x2="197.864"
            y2="49.4411" gradientUnits="userSpaceOnUse">
            <stop offset="0.121505" stop-color="#A54AEA" />
            <stop offset="1" stop-color="#7365EE" />
        </linearGradient>
        <linearGradient id="paint16_linear_1027_22567" x1="200.767" y1="48.2894" x2="174.023"
            y2="64.4077" gradientUnits="userSpaceOnUse">
            <stop stop-color="#BA61FF" />
            <stop offset="0.469057" stop-color="#C3BCFF" />
            <stop offset="0.714401" stop-color="#D1DEFF" />
            <stop offset="0.917489" stop-color="#F3F6FF" stop-opacity="0" />
        </linearGradient>
        <linearGradient id="paint17_linear_1027_22567" x1="166.667" y1="77.084" x2="156.005"
            y2="84.2458" gradientUnits="userSpaceOnUse">
            <stop offset="0.0775548" stop-color="#685BDC" />
            <stop offset="0.547788" stop-color="#598CE9" />
        </linearGradient>
        <linearGradient id="paint18_linear_1027_22567" x1="157.381" y1="64.8043" x2="161.944"
            y2="70.0803" gradientUnits="userSpaceOnUse">
            <stop offset="0.1" stop-color="#685BDC" />
            <stop offset="1" stop-color="#598CE9" />
        </linearGradient>
        <linearGradient id="paint19_linear_1027_22567" x1="177.699" y1="64.8038" x2="165.989"
            y2="71.005" gradientUnits="userSpaceOnUse">
            <stop offset="0.16" stop-color="#685BDC" />
            <stop offset="0.9" stop-color="#598CE9" />
        </linearGradient>
        <radialGradient id="paint20_radial_1027_22567" cx="0" cy="0" r="1"
            gradientUnits="userSpaceOnUse"
            gradientTransform="translate(252.993 68.745) rotate(51.0317) scale(75.5356 72.2013)">
            <stop offset="0.27572" stop-color="#EFFFF7" />
            <stop offset="0.344177" stop-color="#B8FFE4" />
            <stop offset="0.434689" stop-color="#6FE8EC" />
            <stop offset="0.589449" stop-color="#4991E5" />
        </radialGradient>
        <linearGradient id="paint21_linear_1027_22567" x1="240.483" y1="60.1556" x2="246.038"
            y2="63.8368" gradientUnits="userSpaceOnUse">
            <stop offset="0.16" stop-color="#018EAD" />
            <stop offset="0.9" stop-color="#00AAB5" />
        </linearGradient>
        <linearGradient id="paint22_linear_1027_22567" x1="254.5" y1="63.9153" x2="262.299"
            y2="61.1943" gradientUnits="userSpaceOnUse">
            <stop offset="0.1" stop-color="#00AAB5" />
            <stop offset="0.84" stop-color="#018EAD" />
        </linearGradient>
        <linearGradient id="paint23_linear_1027_22567" x1="235.831" y1="101.758" x2="242.251"
            y2="55.8054" gradientUnits="userSpaceOnUse">
            <stop stop-color="#A2D0EE" />
            <stop offset="1" stop-color="#B0CCEE" />
        </linearGradient>
        <linearGradient id="paint24_linear_1027_22567" x1="247.258" y1="103.354" x2="253.675"
            y2="57.4013" gradientUnits="userSpaceOnUse">
            <stop stop-color="#A2D0EE" />
            <stop offset="0.84" stop-color="#D1ECBC" />
        </linearGradient>
        <linearGradient id="paint25_linear_1027_22567" x1="261.292" y1="95.3733" x2="265.253"
            y2="67.0303" gradientUnits="userSpaceOnUse">
            <stop stop-color="#A2D0EE" />
            <stop offset="0.78" stop-color="#A6D6C4" />
        </linearGradient>
        <linearGradient id="paint26_linear_1027_22567" x1="250.201" y1="83.4837" x2="258.016"
            y2="78.9826" gradientUnits="userSpaceOnUse">
            <stop stop-color="#A2D0EE" />
            <stop offset="1" stop-color="#97E7DD" />
        </linearGradient>
        <linearGradient id="paint27_linear_1027_22567" x1="247.399" y1="90.3724" x2="248.134"
            y2="75.9129" gradientUnits="userSpaceOnUse">
            <stop stop-color="#A2D0EE" />
            <stop offset="1" stop-color="#5182BB" />
        </linearGradient>
        <linearGradient id="paint28_linear_1027_22567" x1="242.493" y1="82.1719" x2="256.242"
            y2="83.5828" gradientUnits="userSpaceOnUse">
            <stop offset="0.08" stop-color="#7954A3" />
            <stop offset="1" stop-color="#7CD1E6" />
        </linearGradient>
        <linearGradient id="paint29_linear_1027_22567" x1="256.068" y1="83.7746" x2="254.458"
            y2="91.8816" gradientUnits="userSpaceOnUse">
            <stop stop-color="#A2D0EE" />
            <stop offset="1" stop-color="#876ECD" />
        </linearGradient>
        <linearGradient id="paint30_linear_1027_22567" x1="233.007" y1="83.2782" x2="245.284"
            y2="84.5379" gradientUnits="userSpaceOnUse">
            <stop stop-color="#A2D0EE" />
            <stop offset="1" stop-color="#BB519E" />
        </linearGradient>
        <linearGradient id="paint31_linear_1027_22567" x1="238.813" y1="86.6197" x2="248.592"
            y2="75.5627" gradientUnits="userSpaceOnUse">
            <stop stop-color="#A2D0EE" />
            <stop offset="1" stop-color="#BB519E" />
        </linearGradient>
        <linearGradient id="paint32_linear_1027_22567" x1="233.119" y1="82.1932" x2="245.395"
            y2="83.4529" gradientUnits="userSpaceOnUse">
            <stop offset="0.12" stop-color="#87B3C1" />
            <stop offset="0.55" stop-color="#70B9CE" />
            <stop offset="1" stop-color="#A0CBD4" />
        </linearGradient>
        <radialGradient id="paint33_radial_1027_22567" cx="0" cy="0" r="1"
            gradientUnits="userSpaceOnUse"
            gradientTransform="translate(230.464 66.5965) rotate(82.9934) scale(20.4804 18.102)">
            <stop offset="0.0922551" stop-color="#EFFFF7" stop-opacity="0" />
            <stop offset="0.403969" stop-color="#B8FFE4" />
            <stop offset="0.671183" stop-color="#6FE8EC" />
            <stop offset="0.852971" stop-color="#4991E5" />
        </radialGradient>
        <radialGradient id="paint34_radial_1027_22567" cx="0" cy="0" r="1"
            gradientUnits="userSpaceOnUse"
            gradientTransform="translate(276.102 72.1057) rotate(139.175) scale(31.9388 23.9604)">
            <stop stop-color="#EFFFF7" stop-opacity="0" />
            <stop offset="0.286216" stop-color="#B8FFE4" stop-opacity="0.83" />
            <stop offset="0.585716" stop-color="#6FE8EC" />
            <stop offset="0.80101" stop-color="#4991E5" />
        </radialGradient>
        <linearGradient id="paint35_linear_1027_22567" x1="248.22" y1="85.1579" x2="256.208"
            y2="86.9925" gradientUnits="userSpaceOnUse">
            <stop stop-color="#456CF5" />
            <stop offset="1" stop-color="#4991E5" />
        </linearGradient>
        <linearGradient id="paint36_linear_1027_22567" x1="248.22" y1="85.1579" x2="256.208"
            y2="86.9925" gradientUnits="userSpaceOnUse">
            <stop stop-color="#456CF5" />
            <stop offset="1" stop-color="#4991E5" />
        </linearGradient>
        <linearGradient id="paint37_linear_1027_22567" x1="248.22" y1="85.1579" x2="256.208"
            y2="86.9925" gradientUnits="userSpaceOnUse">
            <stop stop-color="#456CF5" />
            <stop offset="1" stop-color="#4991E5" />
        </linearGradient>
        <linearGradient id="paint38_linear_1027_22567" x1="248.22" y1="85.1579" x2="256.208"
            y2="86.9925" gradientUnits="userSpaceOnUse">
            <stop stop-color="#456CF5" />
            <stop offset="1" stop-color="#4991E5" />
        </linearGradient>
        <linearGradient id="paint39_linear_1027_22567" x1="248.22" y1="85.1579" x2="256.208"
            y2="86.9925" gradientUnits="userSpaceOnUse">
            <stop stop-color="#456CF5" />
            <stop offset="1" stop-color="#4991E5" />
        </linearGradient>
        <linearGradient id="paint40_linear_1027_22567" x1="230.994" y1="82.1578" x2="239.711"
            y2="88.1455" gradientUnits="userSpaceOnUse">
            <stop stop-color="#4991E5" />
            <stop offset="1" stop-color="#456CF5" />
        </linearGradient>
        <linearGradient id="paint41_linear_1027_22567" x1="230.994" y1="82.1578" x2="239.711"
            y2="88.1455" gradientUnits="userSpaceOnUse">
            <stop stop-color="#4991E5" />
            <stop offset="1" stop-color="#456CF5" />
        </linearGradient>
        <linearGradient id="paint42_linear_1027_22567" x1="230.994" y1="82.1578" x2="239.711"
            y2="88.1455" gradientUnits="userSpaceOnUse">
            <stop stop-color="#4991E5" />
            <stop offset="1" stop-color="#456CF5" />
        </linearGradient>
        <linearGradient id="paint43_linear_1027_22567" x1="230.994" y1="82.1578" x2="239.711"
            y2="88.1455" gradientUnits="userSpaceOnUse">
            <stop stop-color="#4991E5" />
            <stop offset="1" stop-color="#456CF5" />
        </linearGradient>
        <radialGradient id="paint44_radial_1027_22567" cx="0" cy="0" r="1"
            gradientUnits="userSpaceOnUse"
            gradientTransform="translate(35.4387 84.0026) rotate(-34.872) scale(53.3368 49.0445)">
            <stop offset="0.179636" stop-color="#FFF9FF" />
            <stop offset="0.273686" stop-color="#FFE2FE" />
            <stop offset="0.564578" stop-color="#FF89AC" />
            <stop offset="0.869362" stop-color="#FC2C2C" />
        </radialGradient>
        <radialGradient id="paint45_radial_1027_22567" cx="0" cy="0" r="1"
            gradientUnits="userSpaceOnUse"
            gradientTransform="translate(46.9593 86.2059) rotate(39.629) scale(20.5024 19.1105)">
            <stop offset="0.0822582" stop-color="#FFF9FF" stop-opacity="0" />
            <stop offset="0.262081" stop-color="#FFE2FE" stop-opacity="0.4" />
            <stop offset="0.584229" stop-color="#FF89AC" />
            <stop offset="0.869362" stop-color="#FC2C2C" />
        </radialGradient>
        <linearGradient id="paint46_linear_1027_22567" x1="38.4942" y1="96.7588" x2="38.4942"
            y2="115.346" gradientUnits="userSpaceOnUse">
            <stop stop-color="#E9BDB8" />
            <stop offset="1" stop-color="#FC2D99" />
        </linearGradient>
        <radialGradient id="paint47_radial_1027_22567" cx="0" cy="0" r="1"
            gradientUnits="userSpaceOnUse"
            gradientTransform="translate(28.5638 88.2822) rotate(122.416) scale(20.2148 20.5142)">
            <stop offset="0.154701" stop-color="#FFF9FF" />
            <stop offset="0.321764" stop-color="#FFE2FE" />
            <stop offset="0.72" stop-color="#FF89AC" />
            <stop offset="1" stop-color="#FC2C2C" />
        </radialGradient>
        <radialGradient id="paint48_radial_1027_22567" cx="0" cy="0" r="1"
            gradientUnits="userSpaceOnUse"
            gradientTransform="translate(53.4874 103.112) rotate(161.522) scale(7.24688 7.79687)">
            <stop stop-color="#FD2D2E" />
            <stop offset="1" stop-color="#C93131" />
        </radialGradient>
        <radialGradient id="paint49_radial_1027_22567" cx="0" cy="0" r="1"
            gradientUnits="userSpaceOnUse"
            gradientTransform="translate(28.309 111.827) rotate(-146.598) scale(4.14293 4.35505)">
            <stop stop-color="#C93131" />
            <stop offset="1" stop-color="#FD2D2E" />
        </radialGradient>
        <radialGradient id="paint50_radial_1027_22567" cx="0" cy="0" r="1"
            gradientUnits="userSpaceOnUse"
            gradientTransform="translate(39.6873 86.8114) rotate(-22.211) scale(17.6732 6.16459)">
            <stop offset="0.0994933" stop-color="#E20ABD" />
            <stop offset="0.575463" stop-color="#DF0A70" />
        </radialGradient>
        <linearGradient id="paint51_linear_1027_22567" x1="41.8953" y1="88.2771" x2="34.7664"
            y2="91.8431" gradientUnits="userSpaceOnUse">
            <stop offset="0.16" stop-color="#E20ABD" />
            <stop offset="0.909943" stop-color="#DF0A70" />
        </linearGradient>
        <radialGradient id="paint52_radial_1027_22567" cx="0" cy="0" r="1"
            gradientUnits="userSpaceOnUse"
            gradientTransform="translate(172.468 142.335) scale(46.6573 6.1745)">
            <stop stop-color="#E4EBFD" />
            <stop offset="0.66" stop-color="#E4EBFD" />
            <stop offset="1" stop-color="#FBFCFE" stop-opacity="0" />
        </radialGradient>
        <radialGradient id="paint53_radial_1027_22567" cx="0" cy="0" r="1"
            gradientUnits="userSpaceOnUse"
            gradientTransform="translate(253.341 142.335) scale(46.6573 6.1745)">
            <stop stop-color="#E4EBFD" />
            <stop offset="0.66" stop-color="#E4EBFD" />
            <stop offset="1" stop-color="#FBFCFE" stop-opacity="0" />
        </radialGradient>
        <radialGradient id="paint54_radial_1027_22567" cx="0" cy="0" r="1"
            gradientUnits="userSpaceOnUse"
            gradientTransform="translate(90.3659 142.152) scale(27.4572 4.99223)">
            <stop stop-color="#E4EBFD" />
            <stop offset="0.66" stop-color="#E4EBFD" />
            <stop offset="1" stop-color="#FBFCFE" stop-opacity="0" />
        </radialGradient>
        <radialGradient id="paint55_radial_1027_22567" cx="0" cy="0" r="1"
            gradientUnits="userSpaceOnUse"
            gradientTransform="translate(38.4468 142.152) scale(34.4464 5.99067)">
            <stop stop-color="#E4EBFD" />
            <stop offset="0.66" stop-color="#E4EBFD" />
            <stop offset="1" stop-color="#FBFCFE" stop-opacity="0" />
        </radialGradient>
    </defs>
</svg>
    