
<svg width="132" height="71" viewBox="0 0 132 71" fill="none" xmlns="http://www.w3.org/2000/svg">
<path d="M23.1149 20.3938C26.2275 8.75826 36.9194 0.181283 49.6307 0.181282C60.0575 0.181281 69.1259 5.95052 73.7682 14.4426C74.841 14.2645 75.9425 14.1674 77.0684 14.1674C86.1408 14.1674 93.7814 20.2239 96.1189 28.4813C98.5583 27.7774 101.132 27.393 103.796 27.393C118.951 27.393 131.234 39.5747 131.234 54.6047C127.947 67.1009 100.473 69.2581 85.3181 69.2581C56.7677 69.2581 0.233893 77.0726 0.233891 47.2293C0.23389 33.7408 10.1304 22.5543 23.1149 20.3979L23.1149 20.3938Z" fill="url(#paint0_radial_380_10822)"/>
<defs>
<radialGradient id="paint0_radial_380_10822" cx="0" cy="0" r="1" gradientUnits="userSpaceOnUse" gradientTransform="translate(56.2921 48.4917) rotate(-64.5278) scale(36.69 103.918)">
<stop stop-color="white" stop-opacity="0"/>
<stop offset="1" stop-color="white"/>
</radialGradient>
</defs>
</svg>
