<svg width="240" height="60" viewBox="0 0 240 60" fill="none" xmlns="http://www.w3.org/2000/svg">
<g clip-path="url(#clip0_380_10873)">
<path d="M80.0996 25.1647C80.0996 26.9171 79.6958 28.5262 78.8884 29.9914C78.0809 31.4279 76.8408 32.5916 75.1681 33.4822C73.4954 34.3729 71.419 34.8182 68.9389 34.8182H64.3534V45.6785H56.9561V15.4247H68.9389C71.3613 15.4247 73.4089 15.8414 75.0816 16.6745C76.7542 17.5078 78.0088 18.6571 78.8451 20.1223C79.6814 21.5876 80.0996 23.2684 80.0996 25.1647ZM68.3765 28.9571C69.7896 28.9571 70.8422 28.6267 71.5343 27.9659C72.2265 27.305 72.5726 26.3713 72.5726 25.1647C72.5726 23.9579 72.2265 23.0242 71.5343 22.3633C70.8422 21.7025 69.7896 21.3721 68.3765 21.3721H64.3534V28.9571H68.3765ZM82.0472 33.6115C82.0472 31.1407 82.5087 28.9715 83.4315 27.1039C84.3832 25.2364 85.6666 23.7998 87.2816 22.7942C88.8965 21.7886 90.6991 21.286 92.689 21.286C94.3905 21.286 95.8757 21.6307 97.1446 22.3202C98.4423 23.0098 99.4373 23.9147 100.129 25.0354V21.6307H107.527V45.6785H100.129V42.274C99.4085 43.3945 98.3991 44.2994 97.1014 44.989C95.8324 45.6785 94.3471 46.0234 92.6457 46.0234C90.6846 46.0234 88.8965 45.5206 87.2816 44.515C85.6666 43.4807 84.3832 42.0298 83.4315 40.1623C82.5087 38.266 82.0472 36.0824 82.0472 33.6115ZM100.129 33.6547C100.129 31.8158 99.6104 30.3649 98.5721 29.3018C97.5627 28.2388 96.3227 27.7073 94.8518 27.7073C93.3811 27.7073 92.1266 28.2388 91.0883 29.3018C90.0789 30.3362 89.5744 31.7728 89.5744 33.6115C89.5744 35.4503 90.0789 36.9157 91.0883 38.0074C92.1266 39.0704 93.3811 39.602 94.8518 39.602C96.3227 39.602 97.5627 39.0704 98.5721 38.0074C99.6104 36.9443 100.129 35.4934 100.129 33.6547ZM116.166 19.1311C114.868 19.1311 113.801 18.7576 112.965 18.0106C112.157 17.2348 111.754 16.2866 111.754 15.1661C111.754 14.0169 112.157 13.0688 112.965 12.3218C113.801 11.5461 114.868 11.1582 116.166 11.1582C117.435 11.1582 118.473 11.5461 119.281 12.3218C120.117 13.0688 120.535 14.0169 120.535 15.1661C120.535 16.2866 120.117 17.2348 119.281 18.0106C118.473 18.7576 117.435 19.1311 116.166 19.1311ZM119.843 21.6307V45.6785H112.446V21.6307H119.843ZM132.168 25.6387C133.034 24.317 134.115 23.2828 135.413 22.5358C136.711 21.76 138.153 21.3721 139.739 21.3721V29.1725H137.706C135.86 29.1725 134.475 29.5748 133.553 30.3793C132.63 31.1551 132.168 32.5342 132.168 34.5166V45.6785H124.771V21.6307H132.168V25.6387ZM177.492 21.6307L170.96 45.6785H162.784L158.977 30.0776L155.041 45.6785H146.908L140.333 21.6307H147.73L151.147 38.8262L155.214 21.6307H163.043L167.154 38.74L170.528 21.6307H177.492ZM183.6 19.1311C182.304 19.1311 181.236 18.7576 180.399 18.0106C179.592 17.2348 179.188 16.2866 179.188 15.1661C179.188 14.0169 179.592 13.0688 180.399 12.3218C181.236 11.5461 182.304 11.1582 183.6 11.1582C184.869 11.1582 185.908 11.5461 186.715 12.3218C187.552 13.0688 187.969 14.0169 187.969 15.1661C187.969 16.2866 187.552 17.2348 186.715 18.0106C185.908 18.7576 184.869 19.1311 183.6 19.1311ZM187.278 21.6307V45.6785H179.881V21.6307H187.278ZM202.026 46.0234C199.92 46.0234 198.045 45.6643 196.403 44.9459C194.758 44.2277 193.461 43.2508 192.509 42.0154C191.557 40.7512 191.023 39.3434 190.908 37.792H198.218C198.306 38.6251 198.694 39.3002 199.387 39.8174C200.079 40.3346 200.93 40.5932 201.939 40.5932C202.862 40.5932 203.568 40.4209 204.059 40.076C204.578 39.7025 204.837 39.2285 204.837 38.6539C204.837 37.9643 204.477 37.4615 203.756 37.1455C203.035 36.8006 201.867 36.4271 200.252 36.025C198.521 35.6227 197.08 35.2061 195.927 34.7752C194.772 34.3154 193.778 33.6115 192.941 32.6635C192.105 31.6865 191.687 30.3793 191.687 28.7416C191.687 27.3625 192.062 26.1127 192.812 24.9922C193.59 23.843 194.715 22.9379 196.186 22.2772C197.685 21.6163 199.459 21.286 201.507 21.286C204.535 21.286 206.913 22.033 208.645 23.527C210.404 25.021 211.412 27.0034 211.673 29.4743H204.837C204.723 28.6411 204.348 27.9802 203.712 27.4918C203.107 27.0034 202.3 26.7592 201.29 26.7592C200.426 26.7592 199.762 26.9315 199.301 27.2764C198.839 27.5924 198.608 28.0378 198.608 28.6123C198.608 29.3018 198.968 29.819 199.689 30.1639C200.439 30.5086 201.593 30.8534 203.151 31.1981C204.938 31.6579 206.396 32.1175 207.52 32.5772C208.645 33.0082 209.625 33.7265 210.461 34.7321C211.327 35.7089 211.774 37.0306 211.802 38.6969C211.802 40.1048 211.399 41.3689 210.59 42.4894C209.812 43.5812 208.674 44.4431 207.174 45.0752C205.703 45.7073 203.986 46.0234 202.026 46.0234ZM238.649 33.2668C238.649 33.9563 238.606 34.6745 238.52 35.4215H221.779C221.893 36.9157 222.369 38.0648 223.206 38.8693C224.072 39.6451 225.124 40.033 226.363 40.033C228.209 40.033 229.492 39.2572 230.213 37.7057H238.086C237.683 39.286 236.948 40.7081 235.881 41.9723C234.843 43.2364 233.53 44.2277 231.945 44.9459C230.358 45.6643 228.584 46.0234 226.624 46.0234C224.259 46.0234 222.154 45.5206 220.308 44.515C218.462 43.5094 217.019 42.0728 215.982 40.2053C214.943 38.3378 214.425 36.1543 214.425 33.6547C214.425 31.1551 214.93 28.9715 215.938 27.1039C216.977 25.2364 218.418 23.7998 220.264 22.7942C222.11 21.7886 224.23 21.286 226.624 21.286C228.959 21.286 231.035 21.7744 232.853 22.7512C234.67 23.728 236.082 25.1215 237.093 26.9315C238.13 28.7416 238.649 30.8534 238.649 33.2668ZM231.079 31.3274C231.079 30.0632 230.647 29.0576 229.781 28.3106C228.915 27.5636 227.834 27.1901 226.537 27.1901C225.297 27.1901 224.243 27.5492 223.379 28.2676C222.542 28.9858 222.024 30.0058 221.822 31.3274H231.079Z" fill="#232323"/>
<g filter="url(#filter0_d_380_10873)">
<path d="M35.0256 8.55005H11.0055C10.3323 8.55005 9.78662 9.09369 9.78662 9.76431V41.2254C9.78662 41.8961 10.3323 42.4397 11.0055 42.4397H35.0256C35.6987 42.4397 36.2444 41.8961 36.2444 41.2254V9.76431C36.2444 9.09369 35.6987 8.55005 35.0256 8.55005Z" fill="#B1AFF8"/>
</g>
<g opacity="0.5" filter="url(#filter1_d_380_10873)">
<path d="M40.8679 15.0542H16.8477C16.1746 15.0542 15.6289 15.5978 15.6289 16.2685V47.7296C15.6289 48.4002 16.1746 48.9438 16.8477 48.9438H40.8679C41.541 48.9438 42.0867 48.4002 42.0867 47.7296V16.2685C42.0867 15.5978 41.541 15.0542 40.8679 15.0542Z" fill="#6A67E7"/>
</g>
</g>
<defs>
<filter id="filter0_d_380_10873" x="-14.8225" y="-12.9829" width="75.6762" height="83.1079" filterUnits="userSpaceOnUse" color-interpolation-filters="sRGB">
<feFlood flood-opacity="0" result="BackgroundImageFix"/>
<feColorMatrix in="SourceAlpha" type="matrix" values="0 0 0 0 0 0 0 0 0 0 0 0 0 0 0 0 0 0 127 0" result="hardAlpha"/>
<feOffset dy="3.07613"/>
<feGaussianBlur stdDeviation="12.3046"/>
<feComposite in2="hardAlpha" operator="out"/>
<feColorMatrix type="matrix" values="0 0 0 0 0 0 0 0 0 0 0 0 0 0 0 0 0 0 0.08 0"/>
<feBlend mode="normal" in2="BackgroundImageFix" result="effect1_dropShadow_380_10873"/>
<feBlend mode="normal" in="SourceGraphic" in2="effect1_dropShadow_380_10873" result="shape"/>
</filter>
<filter id="filter1_d_380_10873" x="-8.9802" y="-6.47877" width="75.6762" height="83.1079" filterUnits="userSpaceOnUse" color-interpolation-filters="sRGB">
<feFlood flood-opacity="0" result="BackgroundImageFix"/>
<feColorMatrix in="SourceAlpha" type="matrix" values="0 0 0 0 0 0 0 0 0 0 0 0 0 0 0 0 0 0 127 0" result="hardAlpha"/>
<feOffset dy="3.07613"/>
<feGaussianBlur stdDeviation="12.3046"/>
<feComposite in2="hardAlpha" operator="out"/>
<feColorMatrix type="matrix" values="0 0 0 0 0 0 0 0 0 0 0 0 0 0 0 0 0 0 0.08 0"/>
<feBlend mode="normal" in2="BackgroundImageFix" result="effect1_dropShadow_380_10873"/>
<feBlend mode="normal" in="SourceGraphic" in2="effect1_dropShadow_380_10873" result="shape"/>
</filter>
<clipPath id="clip0_380_10873">
<rect width="240" height="60" fill="white"/>
</clipPath>
</defs>
</svg>
