<svg width="340" height="110" viewBox="0 0 340 110" fill="none" xmlns="http://www.w3.org/2000/svg">
    <g clip-path="url(#clip0_1027_24728)">
        <path fill-rule="evenodd" clip-rule="evenodd"
            d="M31.8684 31.3864C29.6694 29.0549 27.1252 27.0166 24.645 25.0594C24.1096 24.6399 23.3313 24.7184 22.9503 25.2589C22.5276 25.775 22.6303 26.5409 23.1243 26.9357C25.5296 28.8303 28.0033 30.7976 30.0949 33.0269C30.5391 33.5047 31.3096 33.5335 31.8047 33.084C32.2995 32.6349 32.3123 31.8646 31.8684 31.3864Z"
            fill="#FF0420" />
        <path fill-rule="evenodd" clip-rule="evenodd"
            d="M46.2086 25.6803C44.562 18.7787 42.0421 12.1133 40.5481 5.1448C40.4265 4.50472 39.7787 4.08509 39.1317 4.22566C38.4845 4.36665 38.05 4.99654 38.213 5.66145C39.6992 12.6428 42.2117 19.3205 43.8506 26.235C44.0195 26.89 44.6772 27.293 45.3308 27.1413C45.9429 26.9651 46.3776 26.3353 46.2086 25.6803Z"
            fill="#FF0420" />
        <path fill-rule="evenodd" clip-rule="evenodd"
            d="M64.2252 13.7652C62.8553 16.3259 61.4852 18.8866 60.115 21.4477C59.7728 22.0172 60.0048 22.7551 60.6 23.0751C61.1955 23.3946 61.8998 23.158 62.2422 22.5881C63.6146 20.0232 64.987 17.4588 66.3592 14.8944C66.66 14.3 66.4265 13.5652 65.8293 13.2485C65.2734 12.9567 64.5258 13.1712 64.2252 13.7652Z"
            fill="#FF0420" />
        <g clip-path="url(#clip1_1027_24728)">
            <path
                d="M47.5383 27.61C47.7091 27.1993 48.2909 27.1993 48.4617 27.61L55.8178 45.2963C55.8898 45.4694 56.0526 45.5877 56.2395 45.6027L75.3334 47.1334C75.7767 47.169 75.9565 47.7222 75.6187 48.0116L61.0712 60.473C60.9288 60.595 60.8666 60.7864 60.9101 60.9688L65.3546 79.6012C65.4578 80.0338 64.9872 80.3757 64.6076 80.1439L48.2606 70.1592C48.1006 70.0615 47.8994 70.0615 47.7394 70.1592L31.3924 80.1439C31.0128 80.3757 30.5422 80.0338 30.6454 79.6012L35.0899 60.9688C35.1334 60.7864 35.0712 60.595 34.9288 60.4731L20.3813 48.0116C20.0435 47.7222 20.2233 47.169 20.6666 47.1334L39.7605 45.6027C39.9474 45.5877 40.1102 45.4694 40.1822 45.2963L47.5383 27.61Z"
                fill="#FF8C22" />
        </g>
        <g clip-path="url(#clip2_1027_24728)">
            <path
                d="M123.538 27.61C123.709 27.1993 124.291 27.1993 124.462 27.61L131.818 45.2963C131.89 45.4694 132.053 45.5877 132.24 45.6027L151.333 47.1334C151.777 47.169 151.956 47.7222 151.619 48.0116L137.071 60.473C136.929 60.595 136.867 60.7864 136.91 60.9688L141.355 79.6012C141.458 80.0338 140.987 80.3757 140.608 80.1439L124.261 70.1592C124.101 70.0615 123.899 70.0615 123.739 70.1592L107.392 80.1439C107.013 80.3757 106.542 80.0338 106.645 79.6012L111.09 60.9688C111.133 60.7864 111.071 60.595 110.929 60.4731L96.3813 48.0116C96.0435 47.7222 96.2233 47.169 96.6666 47.1334L115.76 45.6027C115.947 45.5877 116.11 45.4694 116.182 45.2963L123.538 27.61Z"
                fill="#FF8C22" />
        </g>
        <g filter="url(#filter0_d_1027_24728)">
            <path d="M121 76L119.5 59.5L133 68.5L127 70L132.25 77.5L130 79L124.75 71.5L121 76Z"
                fill="black" />
            <path
                d="M120.253 76.0679L120.417 77.8711L121.576 76.4801L124.698 72.7338L129.386 79.4301L129.806 80.0307L130.416 79.624L132.666 78.124L133.304 77.6985L132.864 77.0699L128.24 70.4632L133.182 69.2276L134.827 68.8164L133.416 67.876L119.916 58.876L118.611 58.006L118.753 59.5679L120.253 76.0679Z"
                stroke="white" stroke-width="1.5" />
        </g>
        <g clip-path="url(#clip3_1027_24728)">
            <path
                d="M189.538 37.11C189.709 36.6993 190.291 36.6993 190.462 37.11L195.173 48.4369C195.245 48.61 195.408 48.7283 195.594 48.7433L207.823 49.7236C208.266 49.7591 208.446 50.3124 208.108 50.6017L198.791 58.5825C198.649 58.7045 198.587 58.8958 198.63 59.0782L201.477 71.011C201.58 71.4436 201.109 71.7855 200.73 71.5537L190.261 65.1592C190.101 65.0615 189.899 65.0615 189.739 65.1592L179.27 71.5537C178.891 71.7855 178.42 71.4436 178.523 71.011L181.37 59.0782C181.413 58.8958 181.351 58.7045 181.209 58.5825L171.892 50.6017C171.554 50.3124 171.734 49.7591 172.177 49.7236L184.406 48.7433C184.592 48.7283 184.755 48.61 184.827 48.4369L189.538 37.11Z"
                fill="#D0D5DD" />
        </g>
        <g clip-path="url(#clip4_1027_24728)">
            <path
                d="M245.538 37.11C245.709 36.6993 246.291 36.6993 246.462 37.11L251.173 48.4369C251.245 48.61 251.408 48.7283 251.594 48.7433L263.823 49.7236C264.266 49.7591 264.446 50.3124 264.108 50.6017L254.791 58.5825C254.649 58.7045 254.587 58.8958 254.63 59.0782L257.477 71.011C257.58 71.4436 257.109 71.7855 256.73 71.5537L246.261 65.1592C246.101 65.0615 245.899 65.0615 245.739 65.1592L235.27 71.5537C234.891 71.7855 234.42 71.4436 234.523 71.011L237.37 59.0782C237.413 58.8958 237.351 58.7045 237.209 58.5825L227.892 50.6017C227.554 50.3124 227.734 49.7591 228.177 49.7236L240.406 48.7433C240.592 48.7283 240.755 48.61 240.827 48.4369L245.538 37.11Z"
                fill="#D0D5DD" />
        </g>
        <g clip-path="url(#clip5_1027_24728)">
            <path
                d="M301.538 37.11C301.709 36.6993 302.291 36.6993 302.462 37.11L307.173 48.4369C307.245 48.61 307.408 48.7283 307.594 48.7433L319.823 49.7236C320.266 49.7591 320.446 50.3124 320.108 50.6017L310.791 58.5825C310.649 58.7045 310.587 58.8958 310.63 59.0782L313.477 71.011C313.58 71.4436 313.109 71.7855 312.73 71.5537L302.261 65.1592C302.101 65.0615 301.899 65.0615 301.739 65.1592L291.27 71.5537C290.891 71.7855 290.42 71.4436 290.523 71.011L293.37 59.0782C293.413 58.8958 293.351 58.7045 293.209 58.5825L283.892 50.6017C283.554 50.3124 283.734 49.7591 284.177 49.7236L296.406 48.7433C296.592 48.7283 296.755 48.61 296.827 48.4369L301.538 37.11Z"
                fill="#D0D5DD" />
        </g>
    </g>
    <defs>
        <filter id="filter0_d_1027_24728" x="114.723" y="55.0122" width="24.9307" height="30.5493"
            filterUnits="userSpaceOnUse" color-interpolation-filters="sRGB">
            <feFlood flood-opacity="0" result="BackgroundImageFix" />
            <feColorMatrix in="SourceAlpha" type="matrix"
                values="0 0 0 0 0 0 0 0 0 0 0 0 0 0 0 0 0 0 127 0" result="hardAlpha" />
            <feOffset dy="1.5" />
            <feGaussianBlur stdDeviation="1.5" />
            <feColorMatrix type="matrix" values="0 0 0 0 0 0 0 0 0 0 0 0 0 0 0 0 0 0 0.24 0" />
            <feBlend mode="normal" in2="BackgroundImageFix" result="effect1_dropShadow_1027_24728" />
            <feBlend mode="normal" in="SourceGraphic" in2="effect1_dropShadow_1027_24728"
                result="shape" />
        </filter>
        <clipPath id="clip0_1027_24728">
            <rect width="340" height="110" fill="white" />
        </clipPath>
        <clipPath id="clip1_1027_24728">
            <rect width="60" height="60" fill="white" transform="translate(18 25)" />
        </clipPath>
        <clipPath id="clip2_1027_24728">
            <rect width="60" height="60" fill="white" transform="translate(94 25)" />
        </clipPath>
        <clipPath id="clip3_1027_24728">
            <rect width="40" height="40" fill="white" transform="translate(170 35)" />
        </clipPath>
        <clipPath id="clip4_1027_24728">
            <rect width="40" height="40" fill="white" transform="translate(226 35)" />
        </clipPath>
        <clipPath id="clip5_1027_24728">
            <rect width="40" height="40" fill="white" transform="translate(282 35)" />
        </clipPath>
    </defs>
</svg>
    