
<svg width="379" height="216" viewBox="0 0 379 216" fill="none" xmlns="http://www.w3.org/2000/svg">
<g filter="url(#filter0_dd_380_10782)">
<rect x="87" y="2" width="286" height="60" rx="8" fill="black" shape-rendering="crispEdges"/>
<path d="M112.002 27.5V18.7727H115.113C115.789 18.7727 116.35 18.8892 116.796 19.1222C117.245 19.3551 117.58 19.6776 117.801 20.0895C118.023 20.4986 118.134 20.9716 118.134 21.5085C118.134 22.0426 118.022 22.5128 117.797 22.919C117.576 23.3224 117.24 23.6364 116.792 23.8608C116.346 24.0852 115.784 24.1974 115.108 24.1974H112.752V23.0639H114.989C115.415 23.0639 115.762 23.0028 116.029 22.8807C116.299 22.7585 116.496 22.581 116.621 22.348C116.746 22.1151 116.809 21.8352 116.809 21.5085C116.809 21.179 116.745 20.8935 116.617 20.652C116.492 20.4105 116.294 20.2259 116.025 20.098C115.757 19.9673 115.407 19.902 114.972 19.902H113.319V27.5H112.002ZM116.31 23.5625L118.466 27.5H116.966L114.853 23.5625H116.31ZM121.539 27.6449C121.124 27.6449 120.749 27.5682 120.414 27.4148C120.078 27.2585 119.813 27.0327 119.617 26.7372C119.424 26.4418 119.327 26.0795 119.327 25.6506C119.327 25.2812 119.398 24.9773 119.54 24.7386C119.682 24.5 119.874 24.3111 120.115 24.1719C120.357 24.0327 120.627 23.9276 120.925 23.8565C121.223 23.7855 121.527 23.7315 121.837 23.6946C122.229 23.6491 122.547 23.6122 122.792 23.5838C123.036 23.5526 123.213 23.5028 123.324 23.4347C123.435 23.3665 123.49 23.2557 123.49 23.1023V23.0724C123.49 22.7003 123.385 22.4119 123.175 22.2074C122.968 22.0028 122.658 21.9006 122.246 21.9006C121.817 21.9006 121.479 21.9957 121.232 22.1861C120.988 22.3736 120.819 22.5824 120.725 22.8125L119.527 22.5398C119.669 22.142 119.877 21.821 120.15 21.5767C120.425 21.3295 120.742 21.1506 121.1 21.0398C121.458 20.9261 121.834 20.8693 122.229 20.8693C122.49 20.8693 122.767 20.9006 123.06 20.9631C123.355 21.0227 123.631 21.1335 123.887 21.2955C124.145 21.4574 124.357 21.6889 124.522 21.9901C124.686 22.2884 124.769 22.6761 124.769 23.1534V27.5H123.525V26.6051H123.473C123.391 26.7699 123.267 26.9318 123.103 27.0909C122.938 27.25 122.726 27.3821 122.468 27.4872C122.209 27.5923 121.9 27.6449 121.539 27.6449ZM121.816 26.6222C122.168 26.6222 122.469 26.5526 122.719 26.4134C122.972 26.2741 123.164 26.0923 123.294 25.8679C123.428 25.6406 123.495 25.3977 123.495 25.1392V24.2955C123.449 24.3409 123.361 24.3835 123.23 24.4233C123.103 24.4602 122.956 24.4929 122.792 24.5213C122.627 24.5469 122.466 24.571 122.31 24.5938C122.154 24.6136 122.023 24.6307 121.918 24.6449C121.671 24.6761 121.445 24.7287 121.24 24.8026C121.039 24.8764 120.877 24.983 120.755 25.1222C120.635 25.2585 120.576 25.4403 120.576 25.6676C120.576 25.983 120.692 26.2216 120.925 26.3835C121.158 26.5426 121.455 26.6222 121.816 26.6222ZM129.521 20.9545V21.9773H125.946V20.9545H129.521ZM126.905 19.3864H128.179V25.5781C128.179 25.8253 128.216 26.0114 128.29 26.1364C128.364 26.2585 128.459 26.3423 128.575 26.3878C128.695 26.4304 128.824 26.4517 128.963 26.4517C129.065 26.4517 129.155 26.4446 129.232 26.4304C129.308 26.4162 129.368 26.4048 129.411 26.3963L129.641 27.4489C129.567 27.4773 129.462 27.5057 129.325 27.5341C129.189 27.5653 129.018 27.5824 128.814 27.5852C128.479 27.5909 128.166 27.5312 127.876 27.4062C127.587 27.2812 127.352 27.0881 127.173 26.8267C126.994 26.5653 126.905 26.2372 126.905 25.8423V19.3864ZM133.681 27.6321C133.037 27.6321 132.481 27.4943 132.015 27.2188C131.552 26.9403 131.194 26.5497 130.941 26.0469C130.691 25.5412 130.566 24.9489 130.566 24.2699C130.566 23.5994 130.691 23.0085 130.941 22.4972C131.194 21.9858 131.547 21.5866 131.998 21.2997C132.453 21.0128 132.984 20.8693 133.592 20.8693C133.961 20.8693 134.319 20.9304 134.666 21.0526C135.012 21.1747 135.324 21.3665 135.599 21.6278C135.875 21.8892 136.092 22.2287 136.251 22.6463C136.41 23.0611 136.49 23.5653 136.49 24.1591V24.6108H131.287V23.6562H135.241C135.241 23.321 135.173 23.0241 135.037 22.7656C134.9 22.5043 134.708 22.2983 134.461 22.1477C134.217 21.9972 133.93 21.9219 133.6 21.9219C133.243 21.9219 132.93 22.0099 132.663 22.1861C132.399 22.3594 132.194 22.5866 132.049 22.8679C131.907 23.1463 131.836 23.4489 131.836 23.7756V24.5213C131.836 24.9588 131.913 25.331 132.066 25.6378C132.223 25.9446 132.44 26.179 132.718 26.3409C132.997 26.5 133.322 26.5795 133.694 26.5795C133.936 26.5795 134.156 26.5455 134.355 26.4773C134.554 26.4062 134.725 26.3011 134.87 26.1619C135.015 26.0227 135.126 25.8509 135.203 25.6463L136.409 25.8636C136.312 26.2187 136.139 26.5298 135.889 26.7969C135.642 27.0611 135.331 27.267 134.956 27.4148C134.583 27.5597 134.159 27.6321 133.681 27.6321ZM144.135 20.9545V21.9773H140.559V20.9545H144.135ZM141.518 19.3864H142.792V25.5781C142.792 25.8253 142.829 26.0114 142.903 26.1364C142.977 26.2585 143.072 26.3423 143.189 26.3878C143.308 26.4304 143.437 26.4517 143.576 26.4517C143.679 26.4517 143.768 26.4446 143.845 26.4304C143.922 26.4162 143.981 26.4048 144.024 26.3963L144.254 27.4489C144.18 27.4773 144.075 27.5057 143.939 27.5341C143.802 27.5653 143.632 27.5824 143.427 27.5852C143.092 27.5909 142.779 27.5312 142.49 27.4062C142.2 27.2812 141.966 27.0881 141.787 26.8267C141.608 26.5653 141.518 26.2372 141.518 25.8423V19.3864ZM146.959 23.6136V27.5H145.685V18.7727H146.942V22.0199H147.023C147.176 21.6676 147.411 21.3878 147.726 21.1804C148.041 20.973 148.453 20.8693 148.962 20.8693C149.411 20.8693 149.803 20.9616 150.138 21.1463C150.476 21.331 150.737 21.6065 150.922 21.973C151.109 22.3366 151.203 22.7912 151.203 23.3366V27.5H149.929V23.4901C149.929 23.0099 149.805 22.6378 149.558 22.3736C149.311 22.1065 148.967 21.973 148.527 21.973C148.226 21.973 147.956 22.0369 147.717 22.1648C147.482 22.2926 147.295 22.4801 147.159 22.7273C147.026 22.9716 146.959 23.267 146.959 23.6136ZM152.903 27.5V20.9545H154.178V27.5H152.903ZM153.547 19.9446C153.325 19.9446 153.135 19.8707 152.976 19.723C152.82 19.5724 152.741 19.3935 152.741 19.1861C152.741 18.9759 152.82 18.7969 152.976 18.6491C153.135 18.4986 153.325 18.4233 153.547 18.4233C153.768 18.4233 153.957 18.4986 154.114 18.6491C154.273 18.7969 154.352 18.9759 154.352 19.1861C154.352 19.3935 154.273 19.5724 154.114 19.723C153.957 19.8707 153.768 19.9446 153.547 19.9446ZM160.797 22.5526L159.642 22.7571C159.593 22.6094 159.517 22.4687 159.412 22.3352C159.309 22.2017 159.17 22.0923 158.994 22.0071C158.818 21.9219 158.598 21.8793 158.333 21.8793C157.973 21.8793 157.672 21.9602 157.43 22.1222C157.189 22.2812 157.068 22.4872 157.068 22.7401C157.068 22.9588 157.149 23.1349 157.311 23.2685C157.473 23.402 157.734 23.5114 158.095 23.5966L159.135 23.8352C159.737 23.9744 160.186 24.1889 160.481 24.4787C160.777 24.7685 160.924 25.1449 160.924 25.608C160.924 26 160.811 26.3494 160.583 26.6562C160.359 26.9602 160.045 27.1989 159.642 27.3722C159.241 27.5455 158.777 27.6321 158.248 27.6321C157.515 27.6321 156.917 27.4759 156.454 27.1634C155.991 26.848 155.707 26.4006 155.602 25.821L156.833 25.6335C156.91 25.9545 157.068 26.1974 157.306 26.3622C157.545 26.5241 157.856 26.6051 158.24 26.6051C158.657 26.6051 158.991 26.5185 159.241 26.3452C159.491 26.169 159.616 25.9545 159.616 25.7017C159.616 25.4972 159.539 25.3253 159.386 25.1861C159.235 25.0469 159.004 24.9418 158.691 24.8707L157.583 24.6278C156.973 24.4886 156.521 24.267 156.228 23.9631C155.939 23.6591 155.794 23.2741 155.794 22.8082C155.794 22.4219 155.902 22.0838 156.118 21.794C156.333 21.5043 156.632 21.2784 157.012 21.1165C157.393 20.9517 157.829 20.8693 158.321 20.8693C159.028 20.8693 159.585 21.0227 159.991 21.3295C160.397 21.6335 160.666 22.0412 160.797 22.5526ZM165.501 29.9545V20.9545H166.745V22.0156H166.852C166.926 21.8793 167.032 21.7216 167.172 21.5426C167.311 21.3636 167.504 21.2074 167.751 21.0739C167.998 20.9375 168.325 20.8693 168.731 20.8693C169.26 20.8693 169.731 21.0028 170.146 21.2699C170.561 21.5369 170.886 21.9219 171.122 22.4247C171.36 22.9276 171.48 23.5327 171.48 24.2401C171.48 24.9474 171.362 25.554 171.126 26.0597C170.89 26.5625 170.566 26.9503 170.154 27.223C169.743 27.4929 169.272 27.6278 168.744 27.6278C168.346 27.6278 168.021 27.5611 167.768 27.4276C167.518 27.294 167.322 27.1378 167.18 26.9588C167.038 26.7798 166.929 26.6207 166.852 26.4815H166.775V29.9545H165.501ZM166.75 24.2273C166.75 24.6875 166.816 25.0909 166.95 25.4375C167.083 25.7841 167.277 26.0554 167.529 26.2514C167.782 26.4446 168.092 26.5412 168.458 26.5412C168.839 26.5412 169.157 26.4403 169.413 26.2386C169.669 26.0341 169.862 25.7571 169.993 25.4077C170.126 25.0582 170.193 24.6648 170.193 24.2273C170.193 23.7955 170.127 23.4077 169.997 23.0639C169.869 22.7202 169.676 22.4489 169.417 22.25C169.162 22.0511 168.842 21.9517 168.458 21.9517C168.089 21.9517 167.777 22.0469 167.521 22.2372C167.268 22.4276 167.076 22.6932 166.946 23.0341C166.815 23.375 166.75 23.7727 166.75 24.2273ZM172.907 27.5V20.9545H174.139V21.9943H174.207C174.326 21.642 174.537 21.3651 174.838 21.1634C175.142 20.9588 175.485 20.8565 175.869 20.8565C175.949 20.8565 176.042 20.8594 176.15 20.8651C176.261 20.8707 176.348 20.8778 176.41 20.8864V22.1051C176.359 22.0909 176.268 22.0753 176.137 22.0582C176.007 22.0384 175.876 22.0284 175.745 22.0284C175.444 22.0284 175.176 22.0923 174.94 22.2202C174.707 22.3452 174.522 22.5199 174.386 22.7443C174.25 22.9659 174.181 23.2187 174.181 23.5028V27.5H172.907ZM180.036 27.6321C179.422 27.6321 178.886 27.4915 178.429 27.2102C177.972 26.929 177.616 26.5355 177.364 26.0298C177.111 25.5241 176.984 24.9332 176.984 24.2571C176.984 23.5781 177.111 22.9844 177.364 22.4759C177.616 21.9673 177.972 21.5724 178.429 21.2912C178.886 21.0099 179.422 20.8693 180.036 20.8693C180.649 20.8693 181.185 21.0099 181.642 21.2912C182.099 21.5724 182.455 21.9673 182.707 22.4759C182.96 22.9844 183.087 23.5781 183.087 24.2571C183.087 24.9332 182.96 25.5241 182.707 26.0298C182.455 26.5355 182.099 26.929 181.642 27.2102C181.185 27.4915 180.649 27.6321 180.036 27.6321ZM180.04 26.5625C180.438 26.5625 180.767 26.4574 181.028 26.2472C181.29 26.0369 181.483 25.7571 181.608 25.4077C181.736 25.0582 181.8 24.6733 181.8 24.2528C181.8 23.8352 181.736 23.4517 181.608 23.1023C181.483 22.75 181.29 22.4673 181.028 22.2543C180.767 22.0412 180.438 21.9347 180.04 21.9347C179.639 21.9347 179.307 22.0412 179.043 22.2543C178.781 22.4673 178.587 22.75 178.459 23.1023C178.334 23.4517 178.271 23.8352 178.271 24.2528C178.271 24.6733 178.334 25.0582 178.459 25.4077C178.587 25.7571 178.781 26.0369 179.043 26.2472C179.307 26.4574 179.639 26.5625 180.04 26.5625ZM184.509 20.9545H185.783V27.9261C185.783 28.3636 185.703 28.733 185.544 29.0341C185.388 29.3352 185.155 29.5639 184.846 29.7202C184.539 29.8764 184.159 29.9545 183.708 29.9545C183.662 29.9545 183.62 29.9545 183.58 29.9545C183.537 29.9545 183.493 29.9531 183.448 29.9503V28.8551C183.488 28.8551 183.523 28.8551 183.554 28.8551C183.583 28.8551 183.615 28.8551 183.652 28.8551C183.953 28.8551 184.171 28.7741 184.304 28.6122C184.441 28.4531 184.509 28.2216 184.509 27.9176V20.9545ZM185.14 19.9446C184.918 19.9446 184.728 19.8707 184.569 19.723C184.412 19.5724 184.334 19.3935 184.334 19.1861C184.334 18.9759 184.412 18.7969 184.569 18.6491C184.728 18.4986 184.918 18.4233 185.14 18.4233C185.361 18.4233 185.55 18.4986 185.706 18.6491C185.865 18.7969 185.945 18.9759 185.945 19.1861C185.945 19.3935 185.865 19.5724 185.706 19.723C185.55 19.8707 185.361 19.9446 185.14 19.9446ZM190.318 27.6321C189.673 27.6321 189.118 27.4943 188.652 27.2188C188.189 26.9403 187.831 26.5497 187.578 26.0469C187.328 25.5412 187.203 24.9489 187.203 24.2699C187.203 23.5994 187.328 23.0085 187.578 22.4972C187.831 21.9858 188.183 21.5866 188.635 21.2997C189.089 21.0128 189.621 20.8693 190.229 20.8693C190.598 20.8693 190.956 20.9304 191.303 21.0526C191.649 21.1747 191.96 21.3665 192.236 21.6278C192.511 21.8892 192.729 22.2287 192.888 22.6463C193.047 23.0611 193.126 23.5653 193.126 24.1591V24.6108H187.923V23.6562H191.878C191.878 23.321 191.81 23.0241 191.673 22.7656C191.537 22.5043 191.345 22.2983 191.098 22.1477C190.854 21.9972 190.567 21.9219 190.237 21.9219C189.879 21.9219 189.567 22.0099 189.3 22.1861C189.036 22.3594 188.831 22.5866 188.686 22.8679C188.544 23.1463 188.473 23.4489 188.473 23.7756V24.5213C188.473 24.9588 188.55 25.331 188.703 25.6378C188.859 25.9446 189.077 26.179 189.355 26.3409C189.634 26.5 189.959 26.5795 190.331 26.5795C190.572 26.5795 190.793 26.5455 190.991 26.4773C191.19 26.4062 191.362 26.3011 191.507 26.1619C191.652 26.0227 191.763 25.8509 191.839 25.6463L193.045 25.8636C192.949 26.2187 192.776 26.5298 192.526 26.7969C192.278 27.0611 191.967 27.267 191.592 27.4148C191.22 27.5597 190.795 27.6321 190.318 27.6321ZM197.297 27.6321C196.664 27.6321 196.118 27.4886 195.661 27.2017C195.206 26.9119 194.857 26.5128 194.613 26.0043C194.368 25.4957 194.246 24.9134 194.246 24.2571C194.246 23.5923 194.371 23.0057 194.621 22.4972C194.871 21.9858 195.223 21.5866 195.678 21.2997C196.132 21.0128 196.668 20.8693 197.284 20.8693C197.782 20.8693 198.225 20.9616 198.614 21.1463C199.003 21.3281 199.317 21.5838 199.556 21.9134C199.797 22.2429 199.941 22.6278 199.986 23.0682H198.746C198.678 22.7614 198.522 22.4972 198.277 22.2756C198.036 22.054 197.712 21.9432 197.306 21.9432C196.951 21.9432 196.64 22.0369 196.373 22.2244C196.108 22.4091 195.902 22.6733 195.755 23.017C195.607 23.358 195.533 23.7614 195.533 24.2273C195.533 24.7045 195.605 25.1165 195.75 25.4631C195.895 25.8097 196.1 26.0781 196.364 26.2685C196.631 26.4588 196.945 26.554 197.306 26.554C197.547 26.554 197.766 26.5099 197.962 26.4219C198.161 26.331 198.327 26.2017 198.461 26.0341C198.597 25.8665 198.692 25.6648 198.746 25.429H199.986C199.941 25.8523 199.803 26.2301 199.573 26.5625C199.343 26.8949 199.034 27.1562 198.648 27.3466C198.265 27.5369 197.814 27.6321 197.297 27.6321ZM204.404 20.9545V21.9773H200.829V20.9545H204.404ZM201.788 19.3864H203.062V25.5781C203.062 25.8253 203.099 26.0114 203.173 26.1364C203.246 26.2585 203.342 26.3423 203.458 26.3878C203.577 26.4304 203.707 26.4517 203.846 26.4517C203.948 26.4517 204.038 26.4446 204.114 26.4304C204.191 26.4162 204.251 26.4048 204.293 26.3963L204.523 27.4489C204.45 27.4773 204.344 27.5057 204.208 27.5341C204.072 27.5653 203.901 27.5824 203.697 27.5852C203.362 27.5909 203.049 27.5312 202.759 27.4062C202.469 27.2812 202.235 27.0881 202.056 26.8267C201.877 26.5653 201.788 26.2372 201.788 25.8423V19.3864Z" fill="white"/>
<g clip-path="url(#clip0_380_10782)">
<path d="M226.538 15.11C226.709 14.6993 227.291 14.6993 227.462 15.11L229.528 20.0774C229.6 20.2506 229.763 20.3688 229.949 20.3838L235.312 20.8138C235.756 20.8493 235.935 21.4026 235.598 21.6919L231.512 25.1919C231.369 25.3139 231.307 25.5053 231.351 25.6876L232.599 30.9208C232.702 31.3534 232.231 31.6954 231.852 31.4635L227.261 28.6592C227.101 28.5615 226.899 28.5615 226.739 28.6592L222.148 31.4635C221.769 31.6954 221.298 31.3534 221.401 30.9208L222.649 25.6876C222.693 25.5053 222.631 25.3139 222.488 25.1919L218.402 21.6919C218.065 21.4026 218.244 20.8493 218.688 20.8138L224.051 20.3838C224.237 20.3688 224.4 20.2506 224.472 20.0774L226.538 15.11Z" fill="#FF1D1D"/>
</g>
<g clip-path="url(#clip1_380_10782)">
<path d="M254.538 15.11C254.709 14.6993 255.291 14.6993 255.462 15.11L257.528 20.0774C257.6 20.2506 257.763 20.3688 257.949 20.3838L263.312 20.8138C263.756 20.8493 263.935 21.4026 263.598 21.6919L259.512 25.1919C259.369 25.3139 259.307 25.5053 259.351 25.6876L260.599 30.9208C260.702 31.3534 260.231 31.6954 259.852 31.4635L255.261 28.6592C255.101 28.5615 254.899 28.5615 254.739 28.6592L250.148 31.4635C249.769 31.6954 249.298 31.3534 249.401 30.9208L250.649 25.6876C250.693 25.5053 250.631 25.3139 250.488 25.1919L246.402 21.6919C246.065 21.4026 246.244 20.8493 246.688 20.8138L252.051 20.3838C252.237 20.3688 252.4 20.2506 252.472 20.0774L254.538 15.11Z" fill="#98A2B3"/>
</g>
<g clip-path="url(#clip2_380_10782)">
<path d="M282.538 15.11C282.709 14.6993 283.291 14.6993 283.462 15.11L285.528 20.0774C285.6 20.2506 285.763 20.3688 285.949 20.3838L291.312 20.8138C291.756 20.8493 291.935 21.4026 291.598 21.6919L287.512 25.1919C287.369 25.3139 287.307 25.5053 287.351 25.6876L288.599 30.9208C288.702 31.3534 288.231 31.6954 287.852 31.4635L283.261 28.6592C283.101 28.5615 282.899 28.5615 282.739 28.6592L278.148 31.4635C277.769 31.6954 277.298 31.3534 277.401 30.9208L278.649 25.6876C278.693 25.5053 278.631 25.3139 278.488 25.1919L274.402 21.6919C274.065 21.4026 274.244 20.8493 274.688 20.8138L280.051 20.3838C280.237 20.3688 280.4 20.2506 280.472 20.0774L282.538 15.11Z" fill="#98A2B3"/>
</g>
<g clip-path="url(#clip3_380_10782)">
<path d="M310.538 15.11C310.709 14.6993 311.291 14.6993 311.462 15.11L313.528 20.0774C313.6 20.2506 313.763 20.3688 313.949 20.3838L319.312 20.8138C319.756 20.8493 319.935 21.4026 319.598 21.6919L315.512 25.1919C315.369 25.3139 315.307 25.5053 315.351 25.6876L316.599 30.9208C316.702 31.3534 316.231 31.6954 315.852 31.4635L311.261 28.6592C311.101 28.5615 310.899 28.5615 310.739 28.6592L306.148 31.4635C305.769 31.6954 305.298 31.3534 305.401 30.9208L306.649 25.6876C306.693 25.5053 306.631 25.3139 306.488 25.1919L302.402 21.6919C302.065 21.4026 302.244 20.8493 302.688 20.8138L308.051 20.3838C308.237 20.3688 308.4 20.2506 308.472 20.0774L310.538 15.11Z" fill="#98A2B3"/>
</g>
<g clip-path="url(#clip4_380_10782)">
<path d="M338.538 15.11C338.709 14.6993 339.291 14.6993 339.462 15.11L341.528 20.0774C341.6 20.2506 341.763 20.3688 341.949 20.3838L347.312 20.8138C347.756 20.8493 347.935 21.4026 347.598 21.6919L343.512 25.1919C343.369 25.3139 343.307 25.5053 343.351 25.6876L344.599 30.9208C344.702 31.3534 344.231 31.6954 343.852 31.4635L339.261 28.6592C339.101 28.5615 338.899 28.5615 338.739 28.6592L334.148 31.4635C333.769 31.6954 333.298 31.3534 333.401 30.9208L334.649 25.6876C334.693 25.5053 334.631 25.3139 334.488 25.1919L330.402 21.6919C330.065 21.4026 330.244 20.8493 330.688 20.8138L336.051 20.3838C336.237 20.3688 336.4 20.2506 336.472 20.0774L338.538 15.11Z" fill="#98A2B3"/>
</g>
<path d="M156.008 39.3594V38.5H162.008V39.3594H159.493V46.5H158.524V39.3594H156.008ZM164.307 42.8906V46.5H163.385V38.5H164.307V41.4375H164.385C164.526 41.1276 164.737 40.8815 165.018 40.6992C165.302 40.5143 165.679 40.4219 166.151 40.4219C166.559 40.4219 166.918 40.5039 167.225 40.668C167.532 40.8294 167.77 41.0781 167.94 41.4141C168.112 41.7474 168.198 42.1719 168.198 42.6875V46.5H167.276V42.75C167.276 42.2734 167.152 41.9049 166.905 41.6445C166.66 41.3815 166.32 41.25 165.885 41.25C165.583 41.25 165.312 41.3138 165.073 41.4414C164.836 41.569 164.648 41.7552 164.51 42C164.375 42.2448 164.307 42.5417 164.307 42.8906ZM169.891 46.5V40.5H170.813V46.5H169.891ZM170.359 39.5C170.18 39.5 170.025 39.4388 169.895 39.3164C169.767 39.194 169.703 39.0469 169.703 38.875C169.703 38.7031 169.767 38.556 169.895 38.4336C170.025 38.3112 170.18 38.25 170.359 38.25C170.539 38.25 170.693 38.3112 170.82 38.4336C170.951 38.556 171.016 38.7031 171.016 38.875C171.016 39.0469 170.951 39.194 170.82 39.3164C170.693 39.4388 170.539 39.5 170.359 39.5ZM176.758 41.8437L175.929 42.0781C175.877 41.9401 175.801 41.806 175.699 41.6758C175.6 41.543 175.465 41.4336 175.293 41.3477C175.121 41.2617 174.901 41.2187 174.633 41.2187C174.265 41.2187 173.959 41.3034 173.715 41.4727C173.472 41.6393 173.351 41.8516 173.351 42.1094C173.351 42.3385 173.435 42.5195 173.601 42.6523C173.768 42.7852 174.028 42.8958 174.383 42.9844L175.273 43.2031C175.81 43.3333 176.209 43.5326 176.472 43.8008C176.735 44.0664 176.867 44.4089 176.867 44.8281C176.867 45.1719 176.768 45.4792 176.57 45.75C176.375 46.0208 176.101 46.2344 175.75 46.3906C175.398 46.5469 174.989 46.625 174.523 46.625C173.911 46.625 173.405 46.4922 173.004 46.2266C172.603 45.9609 172.349 45.5729 172.242 45.0625L173.117 44.8437C173.2 45.1667 173.358 45.4089 173.59 45.5703C173.824 45.7318 174.13 45.8125 174.508 45.8125C174.937 45.8125 175.278 45.7214 175.531 45.5391C175.786 45.3542 175.914 45.1328 175.914 44.875C175.914 44.6667 175.841 44.4922 175.695 44.3516C175.549 44.2083 175.325 44.1016 175.023 44.0312L174.023 43.7969C173.474 43.6667 173.07 43.4648 172.812 43.1914C172.557 42.9154 172.429 42.5703 172.429 42.1562C172.429 41.8177 172.525 41.5182 172.715 41.2578C172.907 40.9974 173.169 40.793 173.5 40.6445C173.833 40.4961 174.211 40.4219 174.633 40.4219C175.226 40.4219 175.692 40.5521 176.031 40.8125C176.372 41.0729 176.614 41.4167 176.758 41.8437ZM181.362 46.5V40.5H182.283V46.5H181.362ZM181.83 39.5C181.651 39.5 181.496 39.4388 181.366 39.3164C181.238 39.194 181.174 39.0469 181.174 38.875C181.174 38.7031 181.238 38.556 181.366 38.4336C181.496 38.3112 181.651 38.25 181.83 38.25C182.01 38.25 182.164 38.3112 182.291 38.4336C182.422 38.556 182.487 38.7031 182.487 38.875C182.487 39.0469 182.422 39.194 182.291 39.3164C182.164 39.4388 182.01 39.5 181.83 39.5ZM188.229 41.8437L187.4 42.0781C187.348 41.9401 187.272 41.806 187.17 41.6758C187.071 41.543 186.936 41.4336 186.764 41.3477C186.592 41.2617 186.372 41.2187 186.104 41.2187C185.736 41.2187 185.43 41.3034 185.186 41.4727C184.943 41.6393 184.822 41.8516 184.822 42.1094C184.822 42.3385 184.906 42.5195 185.072 42.6523C185.239 42.7852 185.499 42.8958 185.854 42.9844L186.744 43.2031C187.281 43.3333 187.68 43.5326 187.943 43.8008C188.206 44.0664 188.338 44.4089 188.338 44.8281C188.338 45.1719 188.239 45.4792 188.041 45.75C187.846 46.0208 187.572 46.2344 187.221 46.3906C186.869 46.5469 186.46 46.625 185.994 46.625C185.382 46.625 184.876 46.4922 184.475 46.2266C184.074 45.9609 183.82 45.5729 183.713 45.0625L184.588 44.8437C184.671 45.1667 184.829 45.4089 185.061 45.5703C185.295 45.7318 185.601 45.8125 185.979 45.8125C186.408 45.8125 186.749 45.7214 187.002 45.5391C187.257 45.3542 187.385 45.1328 187.385 44.875C187.385 44.6667 187.312 44.4922 187.166 44.3516C187.02 44.2083 186.796 44.1016 186.494 44.0312L185.494 43.7969C184.945 43.6667 184.541 43.4648 184.283 43.1914C184.028 42.9154 183.9 42.5703 183.9 42.1562C183.9 41.8177 183.995 41.5182 184.186 41.2578C184.378 40.9974 184.64 40.793 184.971 40.6445C185.304 40.4961 185.682 40.4219 186.104 40.4219C186.697 40.4219 187.163 40.5521 187.502 40.8125C187.843 41.0729 188.085 41.4167 188.229 41.8437ZM195.254 48.875C194.809 48.875 194.426 48.8177 194.106 48.7031C193.786 48.5911 193.519 48.4427 193.305 48.2578C193.094 48.0755 192.926 47.8802 192.801 47.6719L193.536 47.1563C193.619 47.2656 193.725 47.3906 193.852 47.5312C193.98 47.6745 194.154 47.7982 194.376 47.9023C194.6 48.0091 194.892 48.0625 195.254 48.0625C195.739 48.0625 196.139 47.9453 196.454 47.7109C196.769 47.4766 196.926 47.1094 196.926 46.6094V45.3906H196.848C196.781 45.5 196.684 45.6354 196.559 45.7969C196.437 45.9557 196.26 46.0977 196.028 46.2227C195.799 46.3451 195.489 46.4062 195.098 46.4062C194.614 46.4062 194.179 46.2917 193.794 46.0625C193.411 45.8333 193.107 45.5 192.883 45.0625C192.662 44.625 192.551 44.0937 192.551 43.4687C192.551 42.8542 192.659 42.319 192.876 41.8633C193.092 41.4049 193.392 41.0508 193.778 40.8008C194.163 40.5482 194.609 40.4219 195.114 40.4219C195.504 40.4219 195.814 40.487 196.044 40.6172C196.275 40.7448 196.452 40.8906 196.575 41.0547C196.7 41.2161 196.796 41.349 196.864 41.4531H196.958V40.5H197.848V46.6719C197.848 47.1875 197.731 47.6068 197.497 47.9297C197.265 48.2552 196.952 48.4935 196.559 48.6445C196.169 48.7982 195.734 48.875 195.254 48.875ZM195.223 45.5781C195.593 45.5781 195.906 45.4935 196.161 45.3242C196.416 45.1549 196.61 44.9115 196.743 44.5938C196.876 44.276 196.942 43.8958 196.942 43.4531C196.942 43.0208 196.877 42.6393 196.747 42.3086C196.616 41.9779 196.424 41.7187 196.169 41.5312C195.913 41.3437 195.598 41.25 195.223 41.25C194.833 41.25 194.507 41.349 194.247 41.5469C193.989 41.7448 193.795 42.0104 193.665 42.3438C193.537 42.6771 193.473 43.0469 193.473 43.4531C193.473 43.8698 193.538 44.2383 193.669 44.5586C193.801 44.8763 193.997 45.1263 194.254 45.3086C194.515 45.4883 194.838 45.5781 195.223 45.5781ZM199.542 46.5V40.5H200.464V46.5H199.542ZM200.011 39.5C199.831 39.5 199.676 39.4388 199.546 39.3164C199.419 39.194 199.355 39.0469 199.355 38.875C199.355 38.7031 199.419 38.556 199.546 38.4336C199.676 38.3112 199.831 38.25 200.011 38.25C200.191 38.25 200.344 38.3112 200.472 38.4336C200.602 38.556 200.667 38.7031 200.667 38.875C200.667 39.0469 200.602 39.194 200.472 39.3164C200.344 39.4388 200.191 39.5 200.011 39.5ZM207.066 40.5L204.847 46.5H203.909L201.691 40.5H202.691L204.347 45.2812H204.409L206.066 40.5H207.066ZM208.289 46.5V40.5H209.211V46.5H208.289ZM208.758 39.5C208.578 39.5 208.423 39.4388 208.293 39.3164C208.165 39.194 208.101 39.0469 208.101 38.875C208.101 38.7031 208.165 38.556 208.293 38.4336C208.423 38.3112 208.578 38.25 208.758 38.25C208.937 38.25 209.091 38.3112 209.219 38.4336C209.349 38.556 209.414 38.7031 209.414 38.875C209.414 39.0469 209.349 39.194 209.219 39.3164C209.091 39.4388 208.937 39.5 208.758 39.5ZM211.828 42.8906V46.5H210.906V40.5H211.796V41.4375H211.875C212.015 41.1328 212.229 40.888 212.515 40.7031C212.802 40.5156 213.171 40.4219 213.625 40.4219C214.031 40.4219 214.386 40.5052 214.691 40.6719C214.996 40.8359 215.233 41.0859 215.402 41.4219C215.571 41.7552 215.656 42.1771 215.656 42.6875V46.5H214.734V42.75C214.734 42.2786 214.612 41.9115 214.367 41.6484C214.122 41.3828 213.786 41.25 213.359 41.25C213.065 41.25 212.802 41.3138 212.57 41.4414C212.341 41.569 212.16 41.7552 212.027 42C211.894 42.2448 211.828 42.5417 211.828 42.8906ZM219.769 48.875C219.324 48.875 218.941 48.8177 218.62 48.7031C218.3 48.5911 218.033 48.4427 217.82 48.2578C217.609 48.0755 217.441 47.8802 217.316 47.6719L218.05 47.1563C218.133 47.2656 218.239 47.3906 218.367 47.5312C218.494 47.6745 218.669 47.7982 218.89 47.9023C219.114 48.0091 219.407 48.0625 219.769 48.0625C220.253 48.0625 220.653 47.9453 220.968 47.7109C221.283 47.4766 221.441 47.1094 221.441 46.6094V45.3906H221.363C221.295 45.5 221.199 45.6354 221.074 45.7969C220.951 45.9557 220.774 46.0977 220.542 46.2227C220.313 46.3451 220.003 46.4062 219.613 46.4062C219.128 46.4062 218.693 46.2917 218.308 46.0625C217.925 45.8333 217.622 45.5 217.398 45.0625C217.176 44.625 217.066 44.0937 217.066 43.4687C217.066 42.8542 217.174 42.319 217.39 41.8633C217.606 41.4049 217.907 41.0508 218.292 40.8008C218.678 40.5482 219.123 40.4219 219.628 40.4219C220.019 40.4219 220.329 40.487 220.558 40.6172C220.79 40.7448 220.967 40.8906 221.089 41.0547C221.214 41.2161 221.311 41.349 221.378 41.4531H221.472V40.5H222.363V46.6719C222.363 47.1875 222.245 47.6068 222.011 47.9297C221.779 48.2552 221.467 48.4935 221.074 48.6445C220.683 48.7982 220.248 48.875 219.769 48.875ZM219.738 45.5781C220.107 45.5781 220.42 45.4935 220.675 45.3242C220.93 45.1549 221.124 44.9115 221.257 44.5938C221.39 44.276 221.456 43.8958 221.456 43.4531C221.456 43.0208 221.391 42.6393 221.261 42.3086C221.131 41.9779 220.938 41.7187 220.683 41.5312C220.428 41.3437 220.113 41.25 219.738 41.25C219.347 41.25 219.022 41.349 218.761 41.5469C218.503 41.7448 218.309 42.0104 218.179 42.3438C218.051 42.6771 217.988 43.0469 217.988 43.4531C217.988 43.8698 218.053 44.2383 218.183 44.5586C218.316 44.8763 218.511 45.1263 218.769 45.3086C219.029 45.4883 219.352 45.5781 219.738 45.5781ZM229.751 46.6094C229.162 46.6094 228.661 46.4492 228.247 46.1289C227.833 45.806 227.516 45.3385 227.298 44.7266C227.079 44.112 226.97 43.3698 226.97 42.5C226.97 41.6354 227.079 40.8971 227.298 40.2852C227.519 39.6706 227.837 39.2018 228.251 38.8789C228.668 38.5534 229.168 38.3906 229.751 38.3906C230.334 38.3906 230.833 38.5534 231.247 38.8789C231.664 39.2018 231.981 39.6706 232.2 40.2852C232.421 40.8971 232.532 41.6354 232.532 42.5C232.532 43.3698 232.423 44.112 232.204 44.7266C231.985 45.3385 231.669 45.806 231.255 46.1289C230.841 46.4492 230.339 46.6094 229.751 46.6094ZM229.751 45.75C230.334 45.75 230.787 45.4687 231.11 44.9062C231.433 44.3437 231.595 43.5417 231.595 42.5C231.595 41.8073 231.52 41.2174 231.372 40.7305C231.226 40.2435 231.015 39.8724 230.739 39.6172C230.466 39.362 230.136 39.2344 229.751 39.2344C229.173 39.2344 228.721 39.5195 228.395 40.0898C228.07 40.6576 227.907 41.4609 227.907 42.5C227.907 43.1927 227.98 43.7812 228.126 44.2656C228.272 44.75 228.481 45.1185 228.755 45.3711C229.031 45.6237 229.363 45.75 229.751 45.75ZM238.101 45V44.5781C238.101 44.2865 238.161 44.0195 238.281 43.7773C238.403 43.5326 238.58 43.3372 238.812 43.1914C239.047 43.043 239.33 42.9687 239.664 42.9687C240.002 42.9687 240.286 43.043 240.515 43.1914C240.744 43.3372 240.918 43.5326 241.035 43.7773C241.152 44.0195 241.211 44.2865 241.211 44.5781V45C241.211 45.2917 241.151 45.5599 241.031 45.8047C240.914 46.0469 240.739 46.2422 240.507 46.3906C240.278 46.5365 239.997 46.6094 239.664 46.6094C239.325 46.6094 239.04 46.5365 238.808 46.3906C238.576 46.2422 238.401 46.0469 238.281 45.8047C238.161 45.5599 238.101 45.2917 238.101 45ZM238.898 44.5781V45C238.898 45.2422 238.955 45.4596 239.07 45.6523C239.185 45.8424 239.382 45.9375 239.664 45.9375C239.937 45.9375 240.13 45.8424 240.242 45.6523C240.356 45.4596 240.414 45.2422 240.414 45V44.5781C240.414 44.3359 240.359 44.1198 240.25 43.9297C240.14 43.737 239.945 43.6406 239.664 43.6406C239.39 43.6406 239.194 43.737 239.074 43.9297C238.957 44.1198 238.898 44.3359 238.898 44.5781ZM234.117 40.4219V40C234.117 39.7083 234.177 39.4414 234.297 39.1992C234.419 38.9544 234.596 38.7591 234.828 38.6133C235.062 38.4648 235.346 38.3906 235.679 38.3906C236.018 38.3906 236.302 38.4648 236.531 38.6133C236.76 38.7591 236.933 38.9544 237.05 39.1992C237.168 39.4414 237.226 39.7083 237.226 40V40.4219C237.226 40.7135 237.166 40.9818 237.047 41.2266C236.929 41.4687 236.755 41.6641 236.523 41.8125C236.294 41.9583 236.013 42.0312 235.679 42.0312C235.341 42.0312 235.056 41.9583 234.824 41.8125C234.592 41.6641 234.416 41.4687 234.297 41.2266C234.177 40.9818 234.117 40.7135 234.117 40.4219ZM234.914 40V40.4219C234.914 40.6641 234.971 40.8815 235.086 41.0742C235.2 41.2643 235.398 41.3594 235.679 41.3594C235.953 41.3594 236.145 41.2643 236.257 41.0742C236.372 40.8815 236.429 40.6641 236.429 40.4219V40C236.429 39.7578 236.375 39.5417 236.265 39.3516C236.156 39.1589 235.961 39.0625 235.679 39.0625C235.406 39.0625 235.209 39.1589 235.089 39.3516C234.972 39.5417 234.914 39.7578 234.914 40ZM234.414 46.5L239.914 38.5H240.804L235.304 46.5H234.414ZM248.693 40.5V41.2812H245.583V40.5H248.693ZM246.489 39.0625H247.411V44.7812C247.411 45.0417 247.449 45.237 247.525 45.3672C247.603 45.4948 247.702 45.5807 247.821 45.625C247.944 45.6667 248.073 45.6875 248.208 45.6875C248.31 45.6875 248.393 45.6823 248.458 45.6719C248.523 45.6589 248.575 45.6484 248.614 45.6406L248.802 46.4687C248.739 46.4922 248.652 46.5156 248.54 46.5391C248.428 46.5651 248.286 46.5781 248.114 46.5781C247.854 46.5781 247.599 46.5221 247.349 46.4102C247.101 46.2982 246.896 46.1276 246.732 45.8984C246.57 45.6693 246.489 45.3802 246.489 45.0312V39.0625ZM252.459 46.625C251.917 46.625 251.442 46.4961 251.033 46.2383C250.627 45.9805 250.309 45.6198 250.08 45.1562C249.853 44.6927 249.74 44.151 249.74 43.5312C249.74 42.9062 249.853 42.3607 250.08 41.8945C250.309 41.4284 250.627 41.0664 251.033 40.8086C251.442 40.5508 251.917 40.4219 252.459 40.4219C253.001 40.4219 253.475 40.5508 253.881 40.8086C254.29 41.0664 254.607 41.4284 254.834 41.8945C255.063 42.3607 255.178 42.9062 255.178 43.5312C255.178 44.151 255.063 44.6927 254.834 45.1562C254.607 45.6198 254.29 45.9805 253.881 46.2383C253.475 46.4961 253.001 46.625 252.459 46.625ZM252.459 45.7969C252.87 45.7969 253.209 45.6914 253.475 45.4805C253.74 45.2695 253.937 44.9922 254.064 44.6484C254.192 44.3047 254.256 43.9323 254.256 43.5312C254.256 43.1302 254.192 42.7565 254.064 42.4102C253.937 42.0638 253.74 41.7839 253.475 41.5703C253.209 41.3568 252.87 41.25 252.459 41.25C252.047 41.25 251.709 41.3568 251.443 41.5703C251.178 41.7839 250.981 42.0638 250.853 42.4102C250.726 42.7565 250.662 43.1302 250.662 43.5312C250.662 43.9323 250.726 44.3047 250.853 44.6484C250.981 44.9922 251.178 45.2695 251.443 45.4805C251.709 45.6914 252.047 45.7969 252.459 45.7969ZM261.457 46.6406C261.077 46.6406 260.732 46.569 260.422 46.4258C260.112 46.2799 259.866 46.0703 259.684 45.7969C259.502 45.5208 259.411 45.1875 259.411 44.7969C259.411 44.4531 259.478 44.1745 259.614 43.9609C259.749 43.7448 259.93 43.5755 260.157 43.4531C260.383 43.3307 260.633 43.2396 260.907 43.1797C261.183 43.1172 261.46 43.0677 261.739 43.0313C262.103 42.9844 262.399 42.9492 262.625 42.9258C262.855 42.8997 263.021 42.8568 263.125 42.7969C263.232 42.737 263.286 42.6328 263.286 42.4844V42.4531C263.286 42.0677 263.18 41.7682 262.969 41.5547C262.761 41.3411 262.444 41.2344 262.02 41.2344C261.58 41.2344 261.235 41.3307 260.985 41.5234C260.735 41.7161 260.559 41.9219 260.457 42.1406L259.582 41.8281C259.739 41.4635 259.947 41.1797 260.207 40.9766C260.47 40.7708 260.757 40.6276 261.067 40.5469C261.379 40.4635 261.687 40.4219 261.989 40.4219C262.181 40.4219 262.403 40.4453 262.653 40.4922C262.905 40.5365 263.149 40.6289 263.383 40.7695C263.62 40.9102 263.817 41.1224 263.973 41.4062C264.129 41.6901 264.207 42.0703 264.207 42.5469V46.5H263.286V45.6875H263.239C263.176 45.8177 263.072 45.957 262.926 46.1055C262.78 46.2539 262.586 46.3802 262.344 46.4844C262.102 46.5885 261.806 46.6406 261.457 46.6406ZM261.598 45.8125C261.963 45.8125 262.27 45.7409 262.52 45.5977C262.773 45.4544 262.963 45.2695 263.09 45.043C263.22 44.8164 263.286 44.5781 263.286 44.3281V43.4844C263.247 43.5312 263.161 43.5742 263.028 43.6133C262.898 43.6497 262.747 43.6823 262.575 43.7109C262.405 43.737 262.24 43.7604 262.079 43.7812C261.92 43.7995 261.791 43.8151 261.692 43.8281C261.452 43.8594 261.228 43.9102 261.02 43.9805C260.814 44.0482 260.648 44.151 260.52 44.2891C260.395 44.4245 260.332 44.6094 260.332 44.8437C260.332 45.1641 260.451 45.4062 260.688 45.5703C260.928 45.7318 261.231 45.8125 261.598 45.8125ZM268.997 48.75V40.5H269.888V41.4531H269.997C270.065 41.349 270.158 41.2161 270.278 41.0547C270.401 40.8906 270.575 40.7448 270.802 40.6172C271.031 40.487 271.341 40.4219 271.731 40.4219C272.237 40.4219 272.682 40.5482 273.067 40.8008C273.453 41.0534 273.754 41.4115 273.97 41.875C274.186 42.3385 274.294 42.8854 274.294 43.5156C274.294 44.151 274.186 44.7018 273.97 45.168C273.754 45.6315 273.454 45.9909 273.071 46.2461C272.688 46.4987 272.247 46.625 271.747 46.625C271.362 46.625 271.053 46.5612 270.821 46.4336C270.589 46.3034 270.411 46.1562 270.286 45.9922C270.161 45.8255 270.065 45.6875 269.997 45.5781H269.919V48.75H268.997ZM269.903 43.5C269.903 43.9531 269.97 44.3529 270.102 44.6992C270.235 45.043 270.429 45.3125 270.685 45.5078C270.94 45.7005 271.252 45.7969 271.622 45.7969C272.007 45.7969 272.329 45.6953 272.587 45.4922C272.847 45.2865 273.043 45.0104 273.173 44.6641C273.306 44.3151 273.372 43.9271 273.372 43.5C273.372 43.0781 273.307 42.6979 273.177 42.3594C273.049 42.0182 272.855 41.7487 272.595 41.5508C272.337 41.3503 272.013 41.25 271.622 41.25C271.247 41.25 270.932 41.3451 270.677 41.5352C270.421 41.7227 270.229 41.9857 270.099 42.3242C269.968 42.6602 269.903 43.0521 269.903 43.5ZM275.707 46.5V40.5H276.597V41.4062H276.66C276.769 41.1094 276.967 40.8685 277.254 40.6836C277.54 40.4987 277.863 40.4062 278.222 40.4062C278.29 40.4062 278.375 40.4076 278.476 40.4102C278.578 40.4128 278.655 40.4167 278.707 40.4219V41.3594C278.675 41.3516 278.604 41.3398 278.492 41.3242C278.383 41.306 278.267 41.2969 278.144 41.2969C277.853 41.2969 277.592 41.3581 277.363 41.4805C277.136 41.6003 276.957 41.7669 276.824 41.9805C276.694 42.1914 276.629 42.4323 276.629 42.7031V46.5H275.707ZM282.061 46.625C281.519 46.625 281.044 46.4961 280.635 46.2383C280.229 45.9805 279.911 45.6198 279.682 45.1562C279.456 44.6927 279.342 44.151 279.342 43.5312C279.342 42.9062 279.456 42.3607 279.682 41.8945C279.911 41.4284 280.229 41.0664 280.635 40.8086C281.044 40.5508 281.519 40.4219 282.061 40.4219C282.603 40.4219 283.077 40.5508 283.483 40.8086C283.892 41.0664 284.209 41.4284 284.436 41.8945C284.665 42.3607 284.78 42.9062 284.78 43.5312C284.78 44.151 284.665 44.6927 284.436 45.1562C284.209 45.6198 283.892 45.9805 283.483 46.2383C283.077 46.4961 282.603 46.625 282.061 46.625ZM282.061 45.7969C282.472 45.7969 282.811 45.6914 283.077 45.4805C283.342 45.2695 283.539 44.9922 283.666 44.6484C283.794 44.3047 283.858 43.9323 283.858 43.5312C283.858 43.1302 283.794 42.7565 283.666 42.4102C283.539 42.0638 283.342 41.7839 283.077 41.5703C282.811 41.3568 282.472 41.25 282.061 41.25C281.65 41.25 281.311 41.3568 281.045 41.5703C280.78 41.7839 280.583 42.0638 280.456 42.4102C280.328 42.7565 280.264 43.1302 280.264 43.5312C280.264 43.9323 280.328 44.3047 280.456 44.6484C280.583 44.9922 280.78 45.2695 281.045 45.4805C281.311 45.6914 281.65 45.7969 282.061 45.7969ZM286.194 40.5H287.115V46.9375C287.115 47.3073 287.052 47.6276 286.924 47.8984C286.799 48.1693 286.609 48.3789 286.354 48.5273C286.101 48.6758 285.782 48.75 285.397 48.75C285.365 48.75 285.334 48.75 285.303 48.75C285.272 48.75 285.24 48.75 285.209 48.75V47.8906C285.24 47.8906 285.269 47.8906 285.295 47.8906C285.321 47.8906 285.35 47.8906 285.381 47.8906C285.662 47.8906 285.868 47.8073 285.998 47.6406C286.128 47.4766 286.194 47.2422 286.194 46.9375V40.5ZM286.647 39.5C286.467 39.5 286.312 39.4388 286.182 39.3164C286.054 39.194 285.99 39.0469 285.99 38.875C285.99 38.7031 286.054 38.556 286.182 38.4336C286.312 38.3112 286.467 38.25 286.647 38.25C286.826 38.25 286.98 38.3112 287.108 38.4336C287.238 38.556 287.303 38.7031 287.303 38.875C287.303 39.0469 287.238 39.194 287.108 39.3164C286.98 39.4388 286.826 39.5 286.647 39.5ZM291.326 46.625C290.748 46.625 290.249 46.4974 289.83 46.2422C289.413 45.9844 289.092 45.625 288.865 45.1641C288.641 44.7005 288.529 44.1615 288.529 43.5469C288.529 42.9323 288.641 42.3906 288.865 41.9219C289.092 41.4505 289.407 41.0833 289.811 40.8203C290.217 40.5547 290.691 40.4219 291.232 40.4219C291.545 40.4219 291.854 40.474 292.158 40.5781C292.463 40.6823 292.74 40.8516 292.99 41.0859C293.24 41.3177 293.439 41.625 293.588 42.0078C293.736 42.3906 293.811 42.862 293.811 43.4219V43.8125H289.186V43.0156H292.873C292.873 42.6771 292.805 42.375 292.67 42.1094C292.537 41.8437 292.347 41.6341 292.1 41.4805C291.855 41.3268 291.566 41.25 291.232 41.25C290.865 41.25 290.548 41.3411 290.279 41.5234C290.014 41.7031 289.809 41.9375 289.666 42.2266C289.523 42.5156 289.451 42.8255 289.451 43.1562V43.6875C289.451 44.1406 289.529 44.5247 289.686 44.8398C289.844 45.1523 290.064 45.3906 290.346 45.5547C290.627 45.7161 290.954 45.7969 291.326 45.7969C291.568 45.7969 291.787 45.763 291.982 45.6953C292.18 45.625 292.351 45.5208 292.494 45.3828C292.637 45.2422 292.748 45.0677 292.826 44.8594L293.717 45.1094C293.623 45.4115 293.465 45.6771 293.244 45.9062C293.023 46.1328 292.749 46.3099 292.424 46.4375C292.098 46.5625 291.732 46.625 291.326 46.625ZM297.657 46.625C297.094 46.625 296.61 46.4922 296.204 46.2266C295.798 45.9609 295.485 45.5951 295.266 45.1289C295.048 44.6628 294.938 44.1302 294.938 43.5312C294.938 42.9219 295.05 42.3841 295.274 41.918C295.501 41.4492 295.816 41.0833 296.219 40.8203C296.626 40.5547 297.1 40.4219 297.641 40.4219C298.063 40.4219 298.443 40.5 298.782 40.6562C299.121 40.8125 299.398 41.0312 299.614 41.3125C299.83 41.5937 299.964 41.9219 300.016 42.2969H299.094C299.024 42.0234 298.868 41.7812 298.626 41.5703C298.386 41.3568 298.063 41.25 297.657 41.25C297.298 41.25 296.982 41.3437 296.712 41.5312C296.443 41.7161 296.234 41.9779 296.083 42.3164C295.934 42.6523 295.86 43.0469 295.86 43.5C295.86 43.9635 295.933 44.3672 296.079 44.7109C296.227 45.0547 296.436 45.3216 296.704 45.5117C296.975 45.7018 297.292 45.7969 297.657 45.7969C297.897 45.7969 298.114 45.7552 298.309 45.6719C298.505 45.5885 298.67 45.4688 298.805 45.3125C298.941 45.1562 299.037 44.9687 299.094 44.75H300.016C299.964 45.1042 299.835 45.4232 299.63 45.707C299.426 45.9883 299.157 46.2122 298.821 46.3789C298.488 46.543 298.1 46.625 297.657 46.625ZM303.98 40.5V41.2812H300.871V40.5H303.98ZM301.777 39.0625H302.699V44.7812C302.699 45.0417 302.736 45.237 302.812 45.3672C302.89 45.4948 302.989 45.5807 303.109 45.625C303.231 45.6667 303.36 45.6875 303.496 45.6875C303.597 45.6875 303.681 45.6823 303.746 45.6719C303.811 45.6589 303.863 45.6484 303.902 45.6406L304.089 46.4687C304.027 46.4922 303.94 46.5156 303.828 46.5391C303.716 46.5651 303.574 46.5781 303.402 46.5781C303.141 46.5781 302.886 46.5221 302.636 46.4102C302.389 46.2982 302.183 46.1276 302.019 45.8984C301.858 45.6693 301.777 45.3802 301.777 45.0312V39.0625Z" fill="#FF0420"/>
</g>
<g filter="url(#filter1_dd_380_10782)">
<rect x="46.1367" y="74" width="286" height="60" rx="8" fill="black" shape-rendering="crispEdges"/>
<path d="M71.1385 108V99.2727H74.2493C74.9254 99.2727 75.4865 99.3892 75.9325 99.6222C76.3814 99.8551 76.7166 100.178 76.9382 100.589C77.1598 100.999 77.2706 101.472 77.2706 102.009C77.2706 102.543 77.1584 103.013 76.9339 103.419C76.7124 103.822 76.3771 104.136 75.9283 104.361C75.4822 104.585 74.9212 104.697 74.245 104.697H71.8885V103.564H74.1257C74.5518 103.564 74.8984 103.503 75.1655 103.381C75.4354 103.259 75.6328 103.081 75.7578 102.848C75.8828 102.615 75.9453 102.335 75.9453 102.009C75.9453 101.679 75.8814 101.393 75.7536 101.152C75.6286 100.911 75.4311 100.726 75.1612 100.598C74.8942 100.467 74.5433 100.402 74.1087 100.402H72.4553V108H71.1385ZM75.4467 104.062L77.603 108H76.103L73.9893 104.062H75.4467ZM80.6754 108.145C80.2607 108.145 79.8857 108.068 79.5504 107.915C79.2152 107.759 78.9496 107.533 78.7536 107.237C78.5604 106.942 78.4638 106.58 78.4638 106.151C78.4638 105.781 78.5348 105.477 78.6768 105.239C78.8189 105 79.0107 104.811 79.2521 104.672C79.4936 104.533 79.7635 104.428 80.0618 104.357C80.3601 104.286 80.6641 104.232 80.9737 104.195C81.3658 104.149 81.6839 104.112 81.9283 104.084C82.1726 104.053 82.3501 104.003 82.4609 103.935C82.5717 103.866 82.6271 103.756 82.6271 103.602V103.572C82.6271 103.2 82.522 102.912 82.3118 102.707C82.1044 102.503 81.7947 102.401 81.3828 102.401C80.9538 102.401 80.6158 102.496 80.3686 102.686C80.1243 102.874 79.9553 103.082 79.8615 103.312L78.6641 103.04C78.8061 102.642 79.0135 102.321 79.2862 102.077C79.5618 101.83 79.8786 101.651 80.2365 101.54C80.5945 101.426 80.9709 101.369 81.3658 101.369C81.6271 101.369 81.9041 101.401 82.1967 101.463C82.4922 101.523 82.7678 101.634 83.0234 101.795C83.282 101.957 83.4936 102.189 83.6584 102.49C83.8232 102.788 83.9055 103.176 83.9055 103.653V108H82.6612V107.105H82.6101C82.5277 107.27 82.4041 107.432 82.2393 107.591C82.0746 107.75 81.8629 107.882 81.6044 107.987C81.3459 108.092 81.0362 108.145 80.6754 108.145ZM80.9524 107.122C81.3047 107.122 81.6058 107.053 81.8558 106.913C82.1087 106.774 82.3004 106.592 82.4311 106.368C82.5646 106.141 82.6314 105.898 82.6314 105.639V104.795C82.5859 104.841 82.4979 104.884 82.3672 104.923C82.2393 104.96 82.093 104.993 81.9283 105.021C81.7635 105.047 81.603 105.071 81.4467 105.094C81.2905 105.114 81.1598 105.131 81.0547 105.145C80.8075 105.176 80.5817 105.229 80.3771 105.303C80.1754 105.376 80.0135 105.483 79.8913 105.622C79.772 105.759 79.7124 105.94 79.7124 106.168C79.7124 106.483 79.8288 106.722 80.0618 106.884C80.2947 107.043 80.5916 107.122 80.9524 107.122ZM88.658 101.455V102.477H85.0827V101.455H88.658ZM86.0415 99.8864H87.3157V106.078C87.3157 106.325 87.3526 106.511 87.4265 106.636C87.5004 106.759 87.5955 106.842 87.712 106.888C87.8313 106.93 87.9606 106.952 88.0998 106.952C88.2021 106.952 88.2915 106.945 88.3683 106.93C88.445 106.916 88.5046 106.905 88.5472 106.896L88.7773 107.949C88.7035 107.977 88.5984 108.006 88.462 108.034C88.3256 108.065 88.1552 108.082 87.9506 108.085C87.6154 108.091 87.3029 108.031 87.0131 107.906C86.7234 107.781 86.489 107.588 86.31 107.327C86.131 107.065 86.0415 106.737 86.0415 106.342V99.8864ZM92.8182 108.132C92.1733 108.132 91.6179 107.994 91.152 107.719C90.6889 107.44 90.331 107.05 90.0781 106.547C89.8281 106.041 89.7031 105.449 89.7031 104.77C89.7031 104.099 89.8281 103.509 90.0781 102.997C90.331 102.486 90.6832 102.087 91.1349 101.8C91.5895 101.513 92.1207 101.369 92.7287 101.369C93.098 101.369 93.456 101.43 93.8026 101.553C94.1491 101.675 94.4602 101.866 94.7358 102.128C95.0114 102.389 95.2287 102.729 95.3878 103.146C95.5469 103.561 95.6264 104.065 95.6264 104.659V105.111H90.4233V104.156H94.3778C94.3778 103.821 94.3097 103.524 94.1733 103.266C94.0369 103.004 93.8452 102.798 93.598 102.648C93.3537 102.497 93.0668 102.422 92.7372 102.422C92.3793 102.422 92.0668 102.51 91.7997 102.686C91.5355 102.859 91.331 103.087 91.1861 103.368C91.044 103.646 90.973 103.949 90.973 104.276V105.021C90.973 105.459 91.0497 105.831 91.2031 106.138C91.3594 106.445 91.5767 106.679 91.8551 106.841C92.1335 107 92.4588 107.08 92.831 107.08C93.0724 107.08 93.2926 107.045 93.4915 106.977C93.6903 106.906 93.8622 106.801 94.0071 106.662C94.152 106.523 94.2628 106.351 94.3395 106.146L95.5455 106.364C95.4489 106.719 95.2756 107.03 95.0256 107.297C94.7784 107.561 94.4673 107.767 94.0923 107.915C93.7202 108.06 93.2955 108.132 92.8182 108.132ZM103.271 101.455V102.477H99.696V101.455H103.271ZM100.655 99.8864H101.929V106.078C101.929 106.325 101.966 106.511 102.04 106.636C102.114 106.759 102.209 106.842 102.325 106.888C102.445 106.93 102.574 106.952 102.713 106.952C102.815 106.952 102.905 106.945 102.982 106.93C103.058 106.916 103.118 106.905 103.161 106.896L103.391 107.949C103.317 107.977 103.212 108.006 103.075 108.034C102.939 108.065 102.768 108.082 102.564 108.085C102.229 108.091 101.916 108.031 101.626 107.906C101.337 107.781 101.102 107.588 100.923 107.327C100.744 107.065 100.655 106.737 100.655 106.342V99.8864ZM106.096 104.114V108H104.821V99.2727H106.078V102.52H106.159C106.313 102.168 106.547 101.888 106.863 101.68C107.178 101.473 107.59 101.369 108.098 101.369C108.547 101.369 108.939 101.462 109.275 101.646C109.613 101.831 109.874 102.107 110.059 102.473C110.246 102.837 110.34 103.291 110.34 103.837V108H109.066V103.99C109.066 103.51 108.942 103.138 108.695 102.874C108.448 102.607 108.104 102.473 107.664 102.473C107.363 102.473 107.093 102.537 106.854 102.665C106.618 102.793 106.432 102.98 106.296 103.227C106.162 103.472 106.096 103.767 106.096 104.114ZM112.04 108V101.455H113.314V108H112.04ZM112.684 100.445C112.462 100.445 112.272 100.371 112.113 100.223C111.956 100.072 111.878 99.8935 111.878 99.6861C111.878 99.4759 111.956 99.2969 112.113 99.1491C112.272 98.9986 112.462 98.9233 112.684 98.9233C112.905 98.9233 113.094 98.9986 113.25 99.1491C113.409 99.2969 113.489 99.4759 113.489 99.6861C113.489 99.8935 113.409 100.072 113.25 100.223C113.094 100.371 112.905 100.445 112.684 100.445ZM119.933 103.053L118.778 103.257C118.73 103.109 118.653 102.969 118.548 102.835C118.446 102.702 118.307 102.592 118.131 102.507C117.955 102.422 117.734 102.379 117.47 102.379C117.109 102.379 116.808 102.46 116.567 102.622C116.325 102.781 116.205 102.987 116.205 103.24C116.205 103.459 116.286 103.635 116.447 103.768C116.609 103.902 116.871 104.011 117.232 104.097L118.271 104.335C118.874 104.474 119.322 104.689 119.618 104.979C119.913 105.268 120.061 105.645 120.061 106.108C120.061 106.5 119.947 106.849 119.72 107.156C119.496 107.46 119.182 107.699 118.778 107.872C118.378 108.045 117.913 108.132 117.385 108.132C116.652 108.132 116.054 107.976 115.591 107.663C115.128 107.348 114.844 106.901 114.739 106.321L115.97 106.134C116.047 106.455 116.205 106.697 116.443 106.862C116.682 107.024 116.993 107.105 117.376 107.105C117.794 107.105 118.128 107.018 118.378 106.845C118.628 106.669 118.753 106.455 118.753 106.202C118.753 105.997 118.676 105.825 118.523 105.686C118.372 105.547 118.141 105.442 117.828 105.371L116.72 105.128C116.109 104.989 115.658 104.767 115.365 104.463C115.075 104.159 114.93 103.774 114.93 103.308C114.93 102.922 115.038 102.584 115.254 102.294C115.47 102.004 115.768 101.778 116.149 101.616C116.53 101.452 116.966 101.369 117.457 101.369C118.165 101.369 118.722 101.523 119.128 101.83C119.534 102.134 119.803 102.541 119.933 103.053ZM124.638 110.455V101.455H125.882V102.516H125.989C126.063 102.379 126.169 102.222 126.308 102.043C126.447 101.864 126.641 101.707 126.888 101.574C127.135 101.438 127.462 101.369 127.868 101.369C128.396 101.369 128.868 101.503 129.283 101.77C129.697 102.037 130.023 102.422 130.259 102.925C130.497 103.428 130.616 104.033 130.616 104.74C130.616 105.447 130.499 106.054 130.263 106.56C130.027 107.062 129.703 107.45 129.291 107.723C128.879 107.993 128.409 108.128 127.881 108.128C127.483 108.128 127.158 108.061 126.905 107.928C126.655 107.794 126.459 107.638 126.317 107.459C126.175 107.28 126.065 107.121 125.989 106.982H125.912V110.455H124.638ZM125.886 104.727C125.886 105.187 125.953 105.591 126.087 105.938C126.22 106.284 126.413 106.555 126.666 106.751C126.919 106.945 127.229 107.041 127.595 107.041C127.976 107.041 128.294 106.94 128.55 106.739C128.805 106.534 128.999 106.257 129.129 105.908C129.263 105.558 129.33 105.165 129.33 104.727C129.33 104.295 129.264 103.908 129.134 103.564C129.006 103.22 128.813 102.949 128.554 102.75C128.298 102.551 127.979 102.452 127.595 102.452C127.226 102.452 126.913 102.547 126.658 102.737C126.405 102.928 126.213 103.193 126.082 103.534C125.952 103.875 125.886 104.273 125.886 104.727ZM132.044 108V101.455H133.276V102.494H133.344C133.463 102.142 133.673 101.865 133.974 101.663C134.278 101.459 134.622 101.357 135.006 101.357C135.085 101.357 135.179 101.359 135.287 101.365C135.398 101.371 135.484 101.378 135.547 101.386V102.605C135.496 102.591 135.405 102.575 135.274 102.558C135.143 102.538 135.013 102.528 134.882 102.528C134.581 102.528 134.313 102.592 134.077 102.72C133.844 102.845 133.659 103.02 133.523 103.244C133.386 103.466 133.318 103.719 133.318 104.003V108H132.044ZM139.172 108.132C138.559 108.132 138.023 107.991 137.566 107.71C137.108 107.429 136.753 107.036 136.5 106.53C136.248 106.024 136.121 105.433 136.121 104.757C136.121 104.078 136.248 103.484 136.5 102.976C136.753 102.467 137.108 102.072 137.566 101.791C138.023 101.51 138.559 101.369 139.172 101.369C139.786 101.369 140.321 101.51 140.779 101.791C141.236 102.072 141.591 102.467 141.844 102.976C142.097 103.484 142.223 104.078 142.223 104.757C142.223 105.433 142.097 106.024 141.844 106.53C141.591 107.036 141.236 107.429 140.779 107.71C140.321 107.991 139.786 108.132 139.172 108.132ZM139.176 107.062C139.574 107.062 139.904 106.957 140.165 106.747C140.426 106.537 140.62 106.257 140.745 105.908C140.873 105.558 140.936 105.173 140.936 104.753C140.936 104.335 140.873 103.952 140.745 103.602C140.62 103.25 140.426 102.967 140.165 102.754C139.904 102.541 139.574 102.435 139.176 102.435C138.776 102.435 138.444 102.541 138.179 102.754C137.918 102.967 137.723 103.25 137.596 103.602C137.471 103.952 137.408 104.335 137.408 104.753C137.408 105.173 137.471 105.558 137.596 105.908C137.723 106.257 137.918 106.537 138.179 106.747C138.444 106.957 138.776 107.062 139.176 107.062ZM143.646 101.455H144.92V108.426C144.92 108.864 144.84 109.233 144.681 109.534C144.525 109.835 144.292 110.064 143.982 110.22C143.675 110.376 143.296 110.455 142.844 110.455C142.799 110.455 142.756 110.455 142.717 110.455C142.674 110.455 142.63 110.453 142.585 110.45V109.355C142.624 109.355 142.66 109.355 142.691 109.355C142.719 109.355 142.752 109.355 142.789 109.355C143.09 109.355 143.308 109.274 143.441 109.112C143.577 108.953 143.646 108.722 143.646 108.418V101.455ZM144.276 100.445C144.055 100.445 143.864 100.371 143.705 100.223C143.549 100.072 143.471 99.8935 143.471 99.6861C143.471 99.4759 143.549 99.2969 143.705 99.1491C143.864 98.9986 144.055 98.9233 144.276 98.9233C144.498 98.9233 144.687 98.9986 144.843 99.1491C145.002 99.2969 145.082 99.4759 145.082 99.6861C145.082 99.8935 145.002 100.072 144.843 100.223C144.687 100.371 144.498 100.445 144.276 100.445ZM149.455 108.132C148.81 108.132 148.255 107.994 147.789 107.719C147.326 107.44 146.968 107.05 146.715 106.547C146.465 106.041 146.34 105.449 146.34 104.77C146.34 104.099 146.465 103.509 146.715 102.997C146.968 102.486 147.32 102.087 147.772 101.8C148.226 101.513 148.757 101.369 149.365 101.369C149.735 101.369 150.093 101.43 150.439 101.553C150.786 101.675 151.097 101.866 151.373 102.128C151.648 102.389 151.865 102.729 152.025 103.146C152.184 103.561 152.263 104.065 152.263 104.659V105.111H147.06V104.156H151.015C151.015 103.821 150.946 103.524 150.81 103.266C150.674 103.004 150.482 102.798 150.235 102.648C149.99 102.497 149.703 102.422 149.374 102.422C149.016 102.422 148.703 102.51 148.436 102.686C148.172 102.859 147.968 103.087 147.823 103.368C147.681 103.646 147.61 103.949 147.61 104.276V105.021C147.61 105.459 147.686 105.831 147.84 106.138C147.996 106.445 148.213 106.679 148.492 106.841C148.77 107 149.096 107.08 149.468 107.08C149.709 107.08 149.929 107.045 150.128 106.977C150.327 106.906 150.499 106.801 150.644 106.662C150.789 106.523 150.9 106.351 150.976 106.146L152.182 106.364C152.086 106.719 151.912 107.03 151.662 107.297C151.415 107.561 151.104 107.767 150.729 107.915C150.357 108.06 149.932 108.132 149.455 108.132ZM156.434 108.132C155.8 108.132 155.255 107.989 154.798 107.702C154.343 107.412 153.994 107.013 153.749 106.504C153.505 105.996 153.383 105.413 153.383 104.757C153.383 104.092 153.508 103.506 153.758 102.997C154.008 102.486 154.36 102.087 154.815 101.8C155.269 101.513 155.805 101.369 156.421 101.369C156.918 101.369 157.362 101.462 157.751 101.646C158.14 101.828 158.454 102.084 158.692 102.413C158.934 102.743 159.077 103.128 159.123 103.568H157.883C157.815 103.261 157.658 102.997 157.414 102.776C157.173 102.554 156.849 102.443 156.442 102.443C156.087 102.443 155.776 102.537 155.509 102.724C155.245 102.909 155.039 103.173 154.891 103.517C154.744 103.858 154.67 104.261 154.67 104.727C154.67 105.205 154.742 105.616 154.887 105.963C155.032 106.31 155.237 106.578 155.501 106.768C155.768 106.959 156.082 107.054 156.442 107.054C156.684 107.054 156.903 107.01 157.099 106.922C157.298 106.831 157.464 106.702 157.597 106.534C157.734 106.366 157.829 106.165 157.883 105.929H159.123C159.077 106.352 158.94 106.73 158.71 107.062C158.479 107.395 158.171 107.656 157.785 107.847C157.401 108.037 156.951 108.132 156.434 108.132ZM163.541 101.455V102.477H159.966V101.455H163.541ZM160.924 99.8864H162.199V106.078C162.199 106.325 162.235 106.511 162.309 106.636C162.383 106.759 162.478 106.842 162.595 106.888C162.714 106.93 162.843 106.952 162.983 106.952C163.085 106.952 163.174 106.945 163.251 106.93C163.328 106.916 163.387 106.905 163.43 106.896L163.66 107.949C163.586 107.977 163.481 108.006 163.345 108.034C163.208 108.065 163.038 108.082 162.833 108.085C162.498 108.091 162.186 108.031 161.896 107.906C161.606 107.781 161.372 107.588 161.193 107.327C161.014 107.065 160.924 106.737 160.924 106.342V99.8864Z" fill="white"/>
<g clip-path="url(#clip5_380_10782)">
<path d="M185.675 95.61C185.846 95.1993 186.428 95.1993 186.598 95.61L188.664 100.577C188.736 100.751 188.899 100.869 189.086 100.884L194.449 101.314C194.892 101.349 195.072 101.903 194.734 102.192L190.648 105.692C190.506 105.814 190.444 106.005 190.487 106.188L191.736 111.421C191.839 111.853 191.368 112.195 190.989 111.964L186.397 109.159C186.237 109.061 186.036 109.061 185.876 109.159L181.285 111.964C180.905 112.195 180.435 111.853 180.538 111.421L181.786 106.188C181.83 106.005 181.767 105.814 181.625 105.692L177.539 102.192C177.201 101.903 177.381 101.349 177.824 101.314L183.187 100.884C183.374 100.869 183.537 100.751 183.609 100.577L185.675 95.61Z" fill="#FFF500"/>
</g>
<g clip-path="url(#clip6_380_10782)">
<path d="M213.675 95.61C213.846 95.1993 214.428 95.1993 214.598 95.61L216.664 100.577C216.736 100.751 216.899 100.869 217.086 100.884L222.449 101.314C222.892 101.349 223.072 101.903 222.734 102.192L218.648 105.692C218.506 105.814 218.444 106.005 218.487 106.188L219.736 111.421C219.839 111.853 219.368 112.195 218.989 111.964L214.397 109.159C214.237 109.061 214.036 109.061 213.876 109.159L209.285 111.964C208.905 112.195 208.435 111.853 208.538 111.421L209.786 106.188C209.83 106.005 209.767 105.814 209.625 105.692L205.539 102.192C205.201 101.903 205.381 101.349 205.824 101.314L211.187 100.884C211.374 100.869 211.537 100.751 211.609 100.577L213.675 95.61Z" fill="#FFF500"/>
</g>
<g clip-path="url(#clip7_380_10782)">
<path d="M241.675 95.61C241.846 95.1993 242.428 95.1993 242.598 95.61L244.664 100.577C244.736 100.751 244.899 100.869 245.086 100.884L250.449 101.314C250.892 101.349 251.072 101.903 250.734 102.192L246.648 105.692C246.506 105.814 246.444 106.005 246.487 106.188L247.736 111.421C247.839 111.853 247.368 112.195 246.989 111.964L242.397 109.159C242.237 109.061 242.036 109.061 241.876 109.159L237.285 111.964C236.905 112.195 236.435 111.853 236.538 111.421L237.786 106.188C237.83 106.005 237.767 105.814 237.625 105.692L233.539 102.192C233.201 101.903 233.381 101.349 233.824 101.314L239.187 100.884C239.374 100.869 239.537 100.751 239.609 100.577L241.675 95.61Z" fill="#FFF500"/>
</g>
<g clip-path="url(#clip8_380_10782)">
<path d="M269.675 95.61C269.846 95.1993 270.428 95.1993 270.598 95.61L272.664 100.577C272.736 100.751 272.899 100.869 273.086 100.884L278.449 101.314C278.892 101.349 279.072 101.903 278.734 102.192L274.648 105.692C274.506 105.814 274.444 106.005 274.487 106.188L275.736 111.421C275.839 111.853 275.368 112.195 274.989 111.964L270.397 109.159C270.237 109.061 270.036 109.061 269.876 109.159L265.285 111.964C264.905 112.195 264.435 111.853 264.538 111.421L265.786 106.188C265.83 106.005 265.767 105.814 265.625 105.692L261.539 102.192C261.201 101.903 261.381 101.349 261.824 101.314L267.187 100.884C267.374 100.869 267.537 100.751 267.609 100.577L269.675 95.61Z" fill="#98A2B3"/>
</g>
<g clip-path="url(#clip9_380_10782)">
<path d="M297.675 95.61C297.846 95.1993 298.428 95.1993 298.598 95.61L300.664 100.577C300.736 100.751 300.899 100.869 301.086 100.884L306.449 101.314C306.892 101.349 307.072 101.903 306.734 102.192L302.648 105.692C302.506 105.814 302.444 106.005 302.487 106.188L303.736 111.421C303.839 111.853 303.368 112.195 302.989 111.964L298.397 109.159C298.237 109.061 298.036 109.061 297.876 109.159L293.285 111.964C292.905 112.195 292.435 111.853 292.538 111.421L293.786 106.188C293.83 106.005 293.767 105.814 293.625 105.692L289.539 102.192C289.201 101.903 289.381 101.349 289.824 101.314L295.187 100.884C295.374 100.869 295.537 100.751 295.609 100.577L297.675 95.61Z" fill="#98A2B3"/>
</g>
</g>
<g filter="url(#filter2_dd_380_10782)">
<rect x="6.13672" y="146" width="286" height="60" rx="8" fill="black" shape-rendering="crispEdges"/>
<path d="M31.1385 180V171.273H34.2493C34.9254 171.273 35.4865 171.389 35.9325 171.622C36.3814 171.855 36.7166 172.178 36.9382 172.589C37.1598 172.999 37.2706 173.472 37.2706 174.009C37.2706 174.543 37.1584 175.013 36.9339 175.419C36.7124 175.822 36.3771 176.136 35.9283 176.361C35.4822 176.585 34.9212 176.697 34.245 176.697H31.8885V175.564H34.1257C34.5518 175.564 34.8984 175.503 35.1655 175.381C35.4354 175.259 35.6328 175.081 35.7578 174.848C35.8828 174.615 35.9453 174.335 35.9453 174.009C35.9453 173.679 35.8814 173.393 35.7536 173.152C35.6286 172.911 35.4311 172.726 35.1612 172.598C34.8942 172.467 34.5433 172.402 34.1087 172.402H32.4553V180H31.1385ZM35.4467 176.062L37.603 180H36.103L33.9893 176.062H35.4467ZM40.6754 180.145C40.2607 180.145 39.8857 180.068 39.5504 179.915C39.2152 179.759 38.9496 179.533 38.7536 179.237C38.5604 178.942 38.4638 178.58 38.4638 178.151C38.4638 177.781 38.5348 177.477 38.6768 177.239C38.8189 177 39.0107 176.811 39.2521 176.672C39.4936 176.533 39.7635 176.428 40.0618 176.357C40.3601 176.286 40.6641 176.232 40.9737 176.195C41.3658 176.149 41.6839 176.112 41.9283 176.084C42.1726 176.053 42.3501 176.003 42.4609 175.935C42.5717 175.866 42.6271 175.756 42.6271 175.602V175.572C42.6271 175.2 42.522 174.912 42.3118 174.707C42.1044 174.503 41.7947 174.401 41.3828 174.401C40.9538 174.401 40.6158 174.496 40.3686 174.686C40.1243 174.874 39.9553 175.082 39.8615 175.312L38.6641 175.04C38.8061 174.642 39.0135 174.321 39.2862 174.077C39.5618 173.83 39.8786 173.651 40.2365 173.54C40.5945 173.426 40.9709 173.369 41.3658 173.369C41.6271 173.369 41.9041 173.401 42.1967 173.463C42.4922 173.523 42.7678 173.634 43.0234 173.795C43.282 173.957 43.4936 174.189 43.6584 174.49C43.8232 174.788 43.9055 175.176 43.9055 175.653V180H42.6612V179.105H42.6101C42.5277 179.27 42.4041 179.432 42.2393 179.591C42.0746 179.75 41.8629 179.882 41.6044 179.987C41.3459 180.092 41.0362 180.145 40.6754 180.145ZM40.9524 179.122C41.3047 179.122 41.6058 179.053 41.8558 178.913C42.1087 178.774 42.3004 178.592 42.4311 178.368C42.5646 178.141 42.6314 177.898 42.6314 177.639V176.795C42.5859 176.841 42.4979 176.884 42.3672 176.923C42.2393 176.96 42.093 176.993 41.9283 177.021C41.7635 177.047 41.603 177.071 41.4467 177.094C41.2905 177.114 41.1598 177.131 41.0547 177.145C40.8075 177.176 40.5817 177.229 40.3771 177.303C40.1754 177.376 40.0135 177.483 39.8913 177.622C39.772 177.759 39.7124 177.94 39.7124 178.168C39.7124 178.483 39.8288 178.722 40.0618 178.884C40.2947 179.043 40.5916 179.122 40.9524 179.122ZM48.658 173.455V174.477H45.0827V173.455H48.658ZM46.0415 171.886H47.3157V178.078C47.3157 178.325 47.3526 178.511 47.4265 178.636C47.5004 178.759 47.5955 178.842 47.712 178.888C47.8313 178.93 47.9606 178.952 48.0998 178.952C48.2021 178.952 48.2915 178.945 48.3683 178.93C48.445 178.916 48.5046 178.905 48.5472 178.896L48.7773 179.949C48.7035 179.977 48.5984 180.006 48.462 180.034C48.3256 180.065 48.1552 180.082 47.9506 180.085C47.6154 180.091 47.3029 180.031 47.0131 179.906C46.7234 179.781 46.489 179.588 46.31 179.327C46.131 179.065 46.0415 178.737 46.0415 178.342V171.886ZM52.8182 180.132C52.1733 180.132 51.6179 179.994 51.152 179.719C50.6889 179.44 50.331 179.05 50.0781 178.547C49.8281 178.041 49.7031 177.449 49.7031 176.77C49.7031 176.099 49.8281 175.509 50.0781 174.997C50.331 174.486 50.6832 174.087 51.1349 173.8C51.5895 173.513 52.1207 173.369 52.7287 173.369C53.098 173.369 53.456 173.43 53.8026 173.553C54.1491 173.675 54.4602 173.866 54.7358 174.128C55.0114 174.389 55.2287 174.729 55.3878 175.146C55.5469 175.561 55.6264 176.065 55.6264 176.659V177.111H50.4233V176.156H54.3778C54.3778 175.821 54.3097 175.524 54.1733 175.266C54.0369 175.004 53.8452 174.798 53.598 174.648C53.3537 174.497 53.0668 174.422 52.7372 174.422C52.3793 174.422 52.0668 174.51 51.7997 174.686C51.5355 174.859 51.331 175.087 51.1861 175.368C51.044 175.646 50.973 175.949 50.973 176.276V177.021C50.973 177.459 51.0497 177.831 51.2031 178.138C51.3594 178.445 51.5767 178.679 51.8551 178.841C52.1335 179 52.4588 179.08 52.831 179.08C53.0724 179.08 53.2926 179.045 53.4915 178.977C53.6903 178.906 53.8622 178.801 54.0071 178.662C54.152 178.523 54.2628 178.351 54.3395 178.146L55.5455 178.364C55.4489 178.719 55.2756 179.03 55.0256 179.297C54.7784 179.561 54.4673 179.767 54.0923 179.915C53.7202 180.06 53.2955 180.132 52.8182 180.132ZM63.2713 173.455V174.477H59.696V173.455H63.2713ZM60.6548 171.886H61.929V178.078C61.929 178.325 61.9659 178.511 62.0398 178.636C62.1136 178.759 62.2088 178.842 62.3253 178.888C62.4446 178.93 62.5739 178.952 62.7131 178.952C62.8153 178.952 62.9048 178.945 62.9815 178.93C63.0582 178.916 63.1179 178.905 63.1605 178.896L63.3906 179.949C63.3168 179.977 63.2116 180.006 63.0753 180.034C62.9389 180.065 62.7685 180.082 62.5639 180.085C62.2287 180.091 61.9162 180.031 61.6264 179.906C61.3366 179.781 61.1023 179.588 60.9233 179.327C60.7443 179.065 60.6548 178.737 60.6548 178.342V171.886ZM66.0955 176.114V180H64.8214V171.273H66.0785V174.52H66.1594C66.3129 174.168 66.5472 173.888 66.8626 173.68C67.1779 173.473 67.5898 173.369 68.0984 173.369C68.5472 173.369 68.9393 173.462 69.2745 173.646C69.6126 173.831 69.8739 174.107 70.0586 174.473C70.2461 174.837 70.3398 175.291 70.3398 175.837V180H69.0657V175.99C69.0657 175.51 68.9421 175.138 68.695 174.874C68.4478 174.607 68.104 174.473 67.6637 174.473C67.3626 174.473 67.0927 174.537 66.854 174.665C66.6183 174.793 66.4322 174.98 66.2958 175.227C66.1623 175.472 66.0955 175.767 66.0955 176.114ZM72.0401 180V173.455H73.3143V180H72.0401ZM72.6836 172.445C72.462 172.445 72.2717 172.371 72.1126 172.223C71.9563 172.072 71.8782 171.893 71.8782 171.686C71.8782 171.476 71.9563 171.297 72.1126 171.149C72.2717 170.999 72.462 170.923 72.6836 170.923C72.9052 170.923 73.0941 170.999 73.2504 171.149C73.4094 171.297 73.489 171.476 73.489 171.686C73.489 171.893 73.4094 172.072 73.2504 172.223C73.0941 172.371 72.9052 172.445 72.6836 172.445ZM79.9332 175.053L78.7784 175.257C78.7301 175.109 78.6534 174.969 78.5483 174.835C78.446 174.702 78.3068 174.592 78.1307 174.507C77.9545 174.422 77.7344 174.379 77.4702 174.379C77.1094 174.379 76.8082 174.46 76.5668 174.622C76.3253 174.781 76.2045 174.987 76.2045 175.24C76.2045 175.459 76.2855 175.635 76.4474 175.768C76.6094 175.902 76.8707 176.011 77.2315 176.097L78.2713 176.335C78.8736 176.474 79.3224 176.689 79.6179 176.979C79.9134 177.268 80.0611 177.645 80.0611 178.108C80.0611 178.5 79.9474 178.849 79.7202 179.156C79.4957 179.46 79.1818 179.699 78.7784 179.872C78.3778 180.045 77.9134 180.132 77.3849 180.132C76.652 180.132 76.054 179.976 75.5909 179.663C75.1278 179.348 74.8438 178.901 74.7386 178.321L75.9702 178.134C76.0469 178.455 76.2045 178.697 76.4432 178.862C76.6818 179.024 76.9929 179.105 77.3764 179.105C77.794 179.105 78.1278 179.018 78.3778 178.845C78.6278 178.669 78.7528 178.455 78.7528 178.202C78.7528 177.997 78.6761 177.825 78.5227 177.686C78.3722 177.547 78.1406 177.442 77.8281 177.371L76.7202 177.128C76.1094 176.989 75.6577 176.767 75.3651 176.463C75.0753 176.159 74.9304 175.774 74.9304 175.308C74.9304 174.922 75.0384 174.584 75.2543 174.294C75.4702 174.004 75.7685 173.778 76.1491 173.616C76.5298 173.452 76.9659 173.369 77.4574 173.369C78.1648 173.369 78.7216 173.523 79.1278 173.83C79.5341 174.134 79.8026 174.541 79.9332 175.053ZM84.6378 182.455V173.455H85.8821V174.516H85.9886C86.0625 174.379 86.169 174.222 86.3082 174.043C86.4474 173.864 86.6406 173.707 86.8878 173.574C87.1349 173.438 87.4616 173.369 87.8679 173.369C88.3963 173.369 88.8679 173.503 89.2827 173.77C89.6974 174.037 90.0227 174.422 90.2585 174.925C90.4972 175.428 90.6165 176.033 90.6165 176.74C90.6165 177.447 90.4986 178.054 90.2628 178.56C90.027 179.062 89.7031 179.45 89.2912 179.723C88.8793 179.993 88.4091 180.128 87.8807 180.128C87.483 180.128 87.1577 180.061 86.9048 179.928C86.6548 179.794 86.4588 179.638 86.3168 179.459C86.1747 179.28 86.0653 179.121 85.9886 178.982H85.9119V182.455H84.6378ZM85.8864 176.727C85.8864 177.187 85.9531 177.591 86.0866 177.938C86.2202 178.284 86.4134 178.555 86.6662 178.751C86.919 178.945 87.2287 179.041 87.5952 179.041C87.9759 179.041 88.294 178.94 88.5497 178.739C88.8054 178.534 88.9986 178.257 89.1293 177.908C89.2628 177.558 89.3295 177.165 89.3295 176.727C89.3295 176.295 89.2642 175.908 89.1335 175.564C89.0057 175.22 88.8125 174.949 88.554 174.75C88.2983 174.551 87.9787 174.452 87.5952 174.452C87.2259 174.452 86.9134 174.547 86.6577 174.737C86.4048 174.928 86.2131 175.193 86.0824 175.534C85.9517 175.875 85.8864 176.273 85.8864 176.727ZM92.044 180V173.455H93.2756V174.494H93.3438C93.4631 174.142 93.6733 173.865 93.9744 173.663C94.2784 173.459 94.6222 173.357 95.0057 173.357C95.0852 173.357 95.179 173.359 95.2869 173.365C95.3977 173.371 95.4844 173.378 95.5469 173.386V174.605C95.4957 174.591 95.4048 174.575 95.2741 174.558C95.1435 174.538 95.0128 174.528 94.8821 174.528C94.581 174.528 94.3125 174.592 94.0767 174.72C93.8438 174.845 93.6591 175.02 93.5227 175.244C93.3864 175.466 93.3182 175.719 93.3182 176.003V180H92.044ZM99.1722 180.132C98.5586 180.132 98.0231 179.991 97.5657 179.71C97.1083 179.429 96.7532 179.036 96.5004 178.53C96.2475 178.024 96.1211 177.433 96.1211 176.757C96.1211 176.078 96.2475 175.484 96.5004 174.976C96.7532 174.467 97.1083 174.072 97.5657 173.791C98.0231 173.51 98.5586 173.369 99.1722 173.369C99.7859 173.369 100.321 173.51 100.779 173.791C101.236 174.072 101.591 174.467 101.844 174.976C102.097 175.484 102.223 176.078 102.223 176.757C102.223 177.433 102.097 178.024 101.844 178.53C101.591 179.036 101.236 179.429 100.779 179.71C100.321 179.991 99.7859 180.132 99.1722 180.132ZM99.1765 179.062C99.5742 179.062 99.9038 178.957 100.165 178.747C100.426 178.537 100.62 178.257 100.745 177.908C100.873 177.558 100.936 177.173 100.936 176.753C100.936 176.335 100.873 175.952 100.745 175.602C100.62 175.25 100.426 174.967 100.165 174.754C99.9038 174.541 99.5742 174.435 99.1765 174.435C98.7759 174.435 98.4435 174.541 98.1793 174.754C97.918 174.967 97.7234 175.25 97.5955 175.602C97.4705 175.952 97.408 176.335 97.408 176.753C97.408 177.173 97.4705 177.558 97.5955 177.908C97.7234 178.257 97.918 178.537 98.1793 178.747C98.4435 178.957 98.7759 179.062 99.1765 179.062ZM103.646 173.455H104.92V180.426C104.92 180.864 104.84 181.233 104.681 181.534C104.525 181.835 104.292 182.064 103.982 182.22C103.675 182.376 103.296 182.455 102.844 182.455C102.799 182.455 102.756 182.455 102.717 182.455C102.674 182.455 102.63 182.453 102.585 182.45V181.355C102.624 181.355 102.66 181.355 102.691 181.355C102.719 181.355 102.752 181.355 102.789 181.355C103.09 181.355 103.308 181.274 103.441 181.112C103.577 180.953 103.646 180.722 103.646 180.418V173.455ZM104.276 172.445C104.055 172.445 103.864 172.371 103.705 172.223C103.549 172.072 103.471 171.893 103.471 171.686C103.471 171.476 103.549 171.297 103.705 171.149C103.864 170.999 104.055 170.923 104.276 170.923C104.498 170.923 104.687 170.999 104.843 171.149C105.002 171.297 105.082 171.476 105.082 171.686C105.082 171.893 105.002 172.072 104.843 172.223C104.687 172.371 104.498 172.445 104.276 172.445ZM109.455 180.132C108.81 180.132 108.255 179.994 107.789 179.719C107.326 179.44 106.968 179.05 106.715 178.547C106.465 178.041 106.34 177.449 106.34 176.77C106.34 176.099 106.465 175.509 106.715 174.997C106.968 174.486 107.32 174.087 107.772 173.8C108.226 173.513 108.757 173.369 109.365 173.369C109.735 173.369 110.093 173.43 110.439 173.553C110.786 173.675 111.097 173.866 111.373 174.128C111.648 174.389 111.865 174.729 112.025 175.146C112.184 175.561 112.263 176.065 112.263 176.659V177.111H107.06V176.156H111.015C111.015 175.821 110.946 175.524 110.81 175.266C110.674 175.004 110.482 174.798 110.235 174.648C109.99 174.497 109.703 174.422 109.374 174.422C109.016 174.422 108.703 174.51 108.436 174.686C108.172 174.859 107.968 175.087 107.823 175.368C107.681 175.646 107.61 175.949 107.61 176.276V177.021C107.61 177.459 107.686 177.831 107.84 178.138C107.996 178.445 108.213 178.679 108.492 178.841C108.77 179 109.096 179.08 109.468 179.08C109.709 179.08 109.929 179.045 110.128 178.977C110.327 178.906 110.499 178.801 110.644 178.662C110.789 178.523 110.9 178.351 110.976 178.146L112.182 178.364C112.086 178.719 111.912 179.03 111.662 179.297C111.415 179.561 111.104 179.767 110.729 179.915C110.357 180.06 109.932 180.132 109.455 180.132ZM116.434 180.132C115.8 180.132 115.255 179.989 114.798 179.702C114.343 179.412 113.994 179.013 113.749 178.504C113.505 177.996 113.383 177.413 113.383 176.757C113.383 176.092 113.508 175.506 113.758 174.997C114.008 174.486 114.36 174.087 114.815 173.8C115.269 173.513 115.805 173.369 116.421 173.369C116.918 173.369 117.362 173.462 117.751 173.646C118.14 173.828 118.454 174.084 118.692 174.413C118.934 174.743 119.077 175.128 119.123 175.568H117.883C117.815 175.261 117.658 174.997 117.414 174.776C117.173 174.554 116.849 174.443 116.442 174.443C116.087 174.443 115.776 174.537 115.509 174.724C115.245 174.909 115.039 175.173 114.891 175.517C114.744 175.858 114.67 176.261 114.67 176.727C114.67 177.205 114.742 177.616 114.887 177.963C115.032 178.31 115.237 178.578 115.501 178.768C115.768 178.959 116.082 179.054 116.442 179.054C116.684 179.054 116.903 179.01 117.099 178.922C117.298 178.831 117.464 178.702 117.597 178.534C117.734 178.366 117.829 178.165 117.883 177.929H119.123C119.077 178.352 118.94 178.73 118.71 179.062C118.479 179.395 118.171 179.656 117.785 179.847C117.401 180.037 116.951 180.132 116.434 180.132ZM123.541 173.455V174.477H119.966V173.455H123.541ZM120.924 171.886H122.199V178.078C122.199 178.325 122.235 178.511 122.309 178.636C122.383 178.759 122.478 178.842 122.595 178.888C122.714 178.93 122.843 178.952 122.983 178.952C123.085 178.952 123.174 178.945 123.251 178.93C123.328 178.916 123.387 178.905 123.43 178.896L123.66 179.949C123.586 179.977 123.481 180.006 123.345 180.034C123.208 180.065 123.038 180.082 122.833 180.085C122.498 180.091 122.186 180.031 121.896 179.906C121.606 179.781 121.372 179.588 121.193 179.327C121.014 179.065 120.924 178.737 120.924 178.342V171.886Z" fill="white"/>
<g filter="url(#filter3_dd_380_10782)">
<path d="M145.675 167.61C145.846 167.199 146.428 167.199 146.598 167.61L148.664 172.577C148.736 172.751 148.899 172.869 149.086 172.884L154.449 173.314C154.892 173.349 155.072 173.903 154.734 174.192L150.648 177.692C150.506 177.814 150.444 178.005 150.487 178.188L151.736 183.421C151.839 183.853 151.368 184.195 150.989 183.964L146.397 181.159C146.237 181.061 146.036 181.061 145.876 181.159L141.285 183.964C140.905 184.195 140.435 183.853 140.538 183.421L141.786 178.188C141.83 178.005 141.767 177.814 141.625 177.692L137.539 174.192C137.201 173.903 137.381 173.349 137.824 173.314L143.187 172.884C143.374 172.869 143.537 172.751 143.609 172.577L145.675 167.61Z" fill="url(#paint0_linear_380_10782)"/>
<path d="M147.522 167.226C147.009 165.994 145.264 165.994 144.752 167.226L142.803 171.911L137.745 172.317C136.415 172.424 135.875 174.083 136.889 174.951L140.743 178.253L139.565 183.189C139.256 184.487 140.667 185.512 141.806 184.817L146.137 182.172L150.467 184.817C151.606 185.512 153.018 184.487 152.708 183.189L151.531 178.253L155.385 174.951C156.398 174.083 155.859 172.424 154.529 172.317L149.471 171.911L147.522 167.226Z" stroke="#FFF500" stroke-width="2"/>
</g>
<g filter="url(#filter4_dd_380_10782)">
<path d="M173.675 167.61C173.846 167.199 174.428 167.199 174.598 167.61L176.664 172.577C176.736 172.751 176.899 172.869 177.086 172.884L182.449 173.314C182.892 173.349 183.072 173.903 182.734 174.192L178.648 177.692C178.506 177.814 178.444 178.005 178.487 178.188L179.736 183.421C179.839 183.853 179.368 184.195 178.989 183.964L174.397 181.159C174.237 181.061 174.036 181.061 173.876 181.159L169.285 183.964C168.905 184.195 168.435 183.853 168.538 183.421L169.786 178.188C169.83 178.005 169.767 177.814 169.625 177.692L165.539 174.192C165.201 173.903 165.381 173.349 165.824 173.314L171.187 172.884C171.374 172.869 171.537 172.751 171.609 172.577L173.675 167.61Z" fill="url(#paint1_linear_380_10782)"/>
<path d="M175.522 167.226C175.009 165.994 173.264 165.994 172.752 167.226L170.803 171.911L165.745 172.317C164.415 172.424 163.875 174.083 164.889 174.951L168.743 178.253L167.565 183.189C167.256 184.487 168.667 185.512 169.806 184.817L174.137 182.172L178.467 184.817C179.606 185.512 181.018 184.487 180.708 183.189L179.531 178.253L183.385 174.951C184.398 174.083 183.859 172.424 182.529 172.317L177.471 171.911L175.522 167.226Z" stroke="#FFF500" stroke-width="2"/>
</g>
<g filter="url(#filter5_dd_380_10782)">
<path d="M201.675 167.61C201.846 167.199 202.428 167.199 202.598 167.61L204.664 172.577C204.736 172.751 204.899 172.869 205.086 172.884L210.449 173.314C210.892 173.349 211.072 173.903 210.734 174.192L206.648 177.692C206.506 177.814 206.444 178.005 206.487 178.188L207.736 183.421C207.839 183.853 207.368 184.195 206.989 183.964L202.397 181.159C202.237 181.061 202.036 181.061 201.876 181.159L197.285 183.964C196.905 184.195 196.435 183.853 196.538 183.421L197.786 178.188C197.83 178.005 197.767 177.814 197.625 177.692L193.539 174.192C193.201 173.903 193.381 173.349 193.824 173.314L199.187 172.884C199.374 172.869 199.537 172.751 199.609 172.577L201.675 167.61Z" fill="url(#paint2_linear_380_10782)"/>
<path d="M203.522 167.226C203.009 165.994 201.264 165.994 200.752 167.226L198.803 171.911L193.745 172.317C192.415 172.424 191.875 174.083 192.889 174.951L196.743 178.253L195.565 183.189C195.256 184.487 196.667 185.512 197.806 184.817L202.137 182.172L206.467 184.817C207.606 185.512 209.018 184.487 208.708 183.189L207.531 178.253L211.385 174.951C212.398 174.083 211.859 172.424 210.529 172.317L205.471 171.911L203.522 167.226Z" stroke="#FFF500" stroke-width="2"/>
</g>
<g filter="url(#filter6_dd_380_10782)">
<path d="M229.675 167.61C229.846 167.199 230.428 167.199 230.598 167.61L232.664 172.577C232.736 172.751 232.899 172.869 233.086 172.884L238.449 173.314C238.892 173.349 239.072 173.903 238.734 174.192L234.648 177.692C234.506 177.814 234.444 178.005 234.487 178.188L235.736 183.421C235.839 183.853 235.368 184.195 234.989 183.964L230.397 181.159C230.237 181.061 230.036 181.061 229.876 181.159L225.285 183.964C224.905 184.195 224.435 183.853 224.538 183.421L225.786 178.188C225.83 178.005 225.767 177.814 225.625 177.692L221.539 174.192C221.201 173.903 221.381 173.349 221.824 173.314L227.187 172.884C227.374 172.869 227.537 172.751 227.609 172.577L229.675 167.61Z" fill="url(#paint3_linear_380_10782)"/>
<path d="M231.522 167.226C231.009 165.994 229.264 165.994 228.752 167.226L226.803 171.911L221.745 172.317C220.415 172.424 219.875 174.083 220.889 174.951L224.743 178.253L223.565 183.189C223.256 184.487 224.667 185.512 225.806 184.817L230.137 182.172L234.467 184.817C235.606 185.512 237.018 184.487 236.708 183.189L235.531 178.253L239.385 174.951C240.398 174.083 239.859 172.424 238.529 172.317L233.471 171.911L231.522 167.226Z" stroke="#FFF500" stroke-width="2"/>
</g>
<g filter="url(#filter7_dd_380_10782)">
<path d="M257.675 167.61C257.846 167.199 258.428 167.199 258.598 167.61L260.664 172.577C260.736 172.751 260.899 172.869 261.086 172.884L266.449 173.314C266.892 173.349 267.072 173.903 266.734 174.192L262.648 177.692C262.506 177.814 262.444 178.005 262.487 178.188L263.736 183.421C263.839 183.853 263.368 184.195 262.989 183.964L258.397 181.159C258.237 181.061 258.036 181.061 257.876 181.159L253.285 183.964C252.905 184.195 252.435 183.853 252.538 183.421L253.786 178.188C253.83 178.005 253.767 177.814 253.625 177.692L249.539 174.192C249.201 173.903 249.381 173.349 249.824 173.314L255.187 172.884C255.374 172.869 255.537 172.751 255.609 172.577L257.675 167.61Z" fill="url(#paint4_linear_380_10782)"/>
<path d="M259.522 167.226C259.009 165.994 257.264 165.994 256.752 167.226L254.803 171.911L249.745 172.317C248.415 172.424 247.875 174.083 248.889 174.951L252.743 178.253L251.565 183.189C251.256 184.487 252.667 185.512 253.806 184.817L258.137 182.172L262.467 184.817C263.606 185.512 265.018 184.487 264.708 183.189L263.531 178.253L267.385 174.951C268.398 174.083 267.859 172.424 266.529 172.317L261.471 171.911L259.522 167.226Z" stroke="#FFF500" stroke-width="2"/>
</g>
</g>
<defs>
<filter id="filter0_dd_380_10782" x="81" y="0" width="298" height="72" filterUnits="userSpaceOnUse" color-interpolation-filters="sRGB">
<feFlood flood-opacity="0" result="BackgroundImageFix"/>
<feColorMatrix in="SourceAlpha" type="matrix" values="0 0 0 0 0 0 0 0 0 0 0 0 0 0 0 0 0 0 127 0" result="hardAlpha"/>
<feMorphology radius="2" operator="erode" in="SourceAlpha" result="effect1_dropShadow_380_10782"/>
<feOffset dy="2"/>
<feGaussianBlur stdDeviation="2"/>
<feComposite in2="hardAlpha" operator="out"/>
<feColorMatrix type="matrix" values="0 0 0 0 0.0627451 0 0 0 0 0.0941176 0 0 0 0 0.156863 0 0 0 0.06 0"/>
<feBlend mode="normal" in2="BackgroundImageFix" result="effect1_dropShadow_380_10782"/>
<feColorMatrix in="SourceAlpha" type="matrix" values="0 0 0 0 0 0 0 0 0 0 0 0 0 0 0 0 0 0 127 0" result="hardAlpha"/>
<feMorphology radius="2" operator="erode" in="SourceAlpha" result="effect2_dropShadow_380_10782"/>
<feOffset dy="4"/>
<feGaussianBlur stdDeviation="4"/>
<feComposite in2="hardAlpha" operator="out"/>
<feColorMatrix type="matrix" values="0 0 0 0 0.0627451 0 0 0 0 0.0941176 0 0 0 0 0.156863 0 0 0 0.1 0"/>
<feBlend mode="normal" in2="effect1_dropShadow_380_10782" result="effect2_dropShadow_380_10782"/>
<feBlend mode="normal" in="SourceGraphic" in2="effect2_dropShadow_380_10782" result="shape"/>
</filter>
<filter id="filter1_dd_380_10782" x="40.1367" y="72" width="298" height="72" filterUnits="userSpaceOnUse" color-interpolation-filters="sRGB">
<feFlood flood-opacity="0" result="BackgroundImageFix"/>
<feColorMatrix in="SourceAlpha" type="matrix" values="0 0 0 0 0 0 0 0 0 0 0 0 0 0 0 0 0 0 127 0" result="hardAlpha"/>
<feMorphology radius="2" operator="erode" in="SourceAlpha" result="effect1_dropShadow_380_10782"/>
<feOffset dy="2"/>
<feGaussianBlur stdDeviation="2"/>
<feComposite in2="hardAlpha" operator="out"/>
<feColorMatrix type="matrix" values="0 0 0 0 0.0627451 0 0 0 0 0.0941176 0 0 0 0 0.156863 0 0 0 0.06 0"/>
<feBlend mode="normal" in2="BackgroundImageFix" result="effect1_dropShadow_380_10782"/>
<feColorMatrix in="SourceAlpha" type="matrix" values="0 0 0 0 0 0 0 0 0 0 0 0 0 0 0 0 0 0 127 0" result="hardAlpha"/>
<feMorphology radius="2" operator="erode" in="SourceAlpha" result="effect2_dropShadow_380_10782"/>
<feOffset dy="4"/>
<feGaussianBlur stdDeviation="4"/>
<feComposite in2="hardAlpha" operator="out"/>
<feColorMatrix type="matrix" values="0 0 0 0 0.0627451 0 0 0 0 0.0941176 0 0 0 0 0.156863 0 0 0 0.1 0"/>
<feBlend mode="normal" in2="effect1_dropShadow_380_10782" result="effect2_dropShadow_380_10782"/>
<feBlend mode="normal" in="SourceGraphic" in2="effect2_dropShadow_380_10782" result="shape"/>
</filter>
<filter id="filter2_dd_380_10782" x="0.136719" y="144" width="298" height="72" filterUnits="userSpaceOnUse" color-interpolation-filters="sRGB">
<feFlood flood-opacity="0" result="BackgroundImageFix"/>
<feColorMatrix in="SourceAlpha" type="matrix" values="0 0 0 0 0 0 0 0 0 0 0 0 0 0 0 0 0 0 127 0" result="hardAlpha"/>
<feMorphology radius="2" operator="erode" in="SourceAlpha" result="effect1_dropShadow_380_10782"/>
<feOffset dy="2"/>
<feGaussianBlur stdDeviation="2"/>
<feComposite in2="hardAlpha" operator="out"/>
<feColorMatrix type="matrix" values="0 0 0 0 0.0627451 0 0 0 0 0.0941176 0 0 0 0 0.156863 0 0 0 0.06 0"/>
<feBlend mode="normal" in2="BackgroundImageFix" result="effect1_dropShadow_380_10782"/>
<feColorMatrix in="SourceAlpha" type="matrix" values="0 0 0 0 0 0 0 0 0 0 0 0 0 0 0 0 0 0 127 0" result="hardAlpha"/>
<feMorphology radius="2" operator="erode" in="SourceAlpha" result="effect2_dropShadow_380_10782"/>
<feOffset dy="4"/>
<feGaussianBlur stdDeviation="4"/>
<feComposite in2="hardAlpha" operator="out"/>
<feColorMatrix type="matrix" values="0 0 0 0 0.0627451 0 0 0 0 0.0941176 0 0 0 0 0.156863 0 0 0 0.1 0"/>
<feBlend mode="normal" in2="effect1_dropShadow_380_10782" result="effect2_dropShadow_380_10782"/>
<feBlend mode="normal" in="SourceGraphic" in2="effect2_dropShadow_380_10782" result="shape"/>
</filter>
<filter id="filter3_dd_380_10782" x="119.361" y="149.302" width="53.5518" height="52.7426" filterUnits="userSpaceOnUse" color-interpolation-filters="sRGB">
<feFlood flood-opacity="0" result="BackgroundImageFix"/>
<feColorMatrix in="SourceAlpha" type="matrix" values="0 0 0 0 0 0 0 0 0 0 0 0 0 0 0 0 0 0 127 0" result="hardAlpha"/>
<feOffset/>
<feGaussianBlur stdDeviation="8"/>
<feComposite in2="hardAlpha" operator="out"/>
<feColorMatrix type="matrix" values="0 0 0 0 0.494118 0 0 0 0 1 0 0 0 0 0 0 0 0 1 0"/>
<feBlend mode="normal" in2="BackgroundImageFix" result="effect1_dropShadow_380_10782"/>
<feColorMatrix in="SourceAlpha" type="matrix" values="0 0 0 0 0 0 0 0 0 0 0 0 0 0 0 0 0 0 127 0" result="hardAlpha"/>
<feOffset/>
<feGaussianBlur stdDeviation="8"/>
<feComposite in2="hardAlpha" operator="out"/>
<feColorMatrix type="matrix" values="0 0 0 0 1 0 0 0 0 0.960784 0 0 0 0 0 0 0 0 0.4 0"/>
<feBlend mode="normal" in2="effect1_dropShadow_380_10782" result="effect2_dropShadow_380_10782"/>
<feBlend mode="normal" in="SourceGraphic" in2="effect2_dropShadow_380_10782" result="shape"/>
</filter>
<filter id="filter4_dd_380_10782" x="147.361" y="149.302" width="53.5518" height="52.7426" filterUnits="userSpaceOnUse" color-interpolation-filters="sRGB">
<feFlood flood-opacity="0" result="BackgroundImageFix"/>
<feColorMatrix in="SourceAlpha" type="matrix" values="0 0 0 0 0 0 0 0 0 0 0 0 0 0 0 0 0 0 127 0" result="hardAlpha"/>
<feOffset/>
<feGaussianBlur stdDeviation="8"/>
<feComposite in2="hardAlpha" operator="out"/>
<feColorMatrix type="matrix" values="0 0 0 0 0.494118 0 0 0 0 1 0 0 0 0 0 0 0 0 1 0"/>
<feBlend mode="normal" in2="BackgroundImageFix" result="effect1_dropShadow_380_10782"/>
<feColorMatrix in="SourceAlpha" type="matrix" values="0 0 0 0 0 0 0 0 0 0 0 0 0 0 0 0 0 0 127 0" result="hardAlpha"/>
<feOffset/>
<feGaussianBlur stdDeviation="8"/>
<feComposite in2="hardAlpha" operator="out"/>
<feColorMatrix type="matrix" values="0 0 0 0 1 0 0 0 0 0.960784 0 0 0 0 0 0 0 0 0.4 0"/>
<feBlend mode="normal" in2="effect1_dropShadow_380_10782" result="effect2_dropShadow_380_10782"/>
<feBlend mode="normal" in="SourceGraphic" in2="effect2_dropShadow_380_10782" result="shape"/>
</filter>
<filter id="filter5_dd_380_10782" x="175.361" y="149.302" width="53.5518" height="52.7426" filterUnits="userSpaceOnUse" color-interpolation-filters="sRGB">
<feFlood flood-opacity="0" result="BackgroundImageFix"/>
<feColorMatrix in="SourceAlpha" type="matrix" values="0 0 0 0 0 0 0 0 0 0 0 0 0 0 0 0 0 0 127 0" result="hardAlpha"/>
<feOffset/>
<feGaussianBlur stdDeviation="8"/>
<feComposite in2="hardAlpha" operator="out"/>
<feColorMatrix type="matrix" values="0 0 0 0 0.494118 0 0 0 0 1 0 0 0 0 0 0 0 0 1 0"/>
<feBlend mode="normal" in2="BackgroundImageFix" result="effect1_dropShadow_380_10782"/>
<feColorMatrix in="SourceAlpha" type="matrix" values="0 0 0 0 0 0 0 0 0 0 0 0 0 0 0 0 0 0 127 0" result="hardAlpha"/>
<feOffset/>
<feGaussianBlur stdDeviation="8"/>
<feComposite in2="hardAlpha" operator="out"/>
<feColorMatrix type="matrix" values="0 0 0 0 1 0 0 0 0 0.960784 0 0 0 0 0 0 0 0 0.4 0"/>
<feBlend mode="normal" in2="effect1_dropShadow_380_10782" result="effect2_dropShadow_380_10782"/>
<feBlend mode="normal" in="SourceGraphic" in2="effect2_dropShadow_380_10782" result="shape"/>
</filter>
<filter id="filter6_dd_380_10782" x="203.361" y="149.302" width="53.5518" height="52.7426" filterUnits="userSpaceOnUse" color-interpolation-filters="sRGB">
<feFlood flood-opacity="0" result="BackgroundImageFix"/>
<feColorMatrix in="SourceAlpha" type="matrix" values="0 0 0 0 0 0 0 0 0 0 0 0 0 0 0 0 0 0 127 0" result="hardAlpha"/>
<feOffset/>
<feGaussianBlur stdDeviation="8"/>
<feComposite in2="hardAlpha" operator="out"/>
<feColorMatrix type="matrix" values="0 0 0 0 0.494118 0 0 0 0 1 0 0 0 0 0 0 0 0 1 0"/>
<feBlend mode="normal" in2="BackgroundImageFix" result="effect1_dropShadow_380_10782"/>
<feColorMatrix in="SourceAlpha" type="matrix" values="0 0 0 0 0 0 0 0 0 0 0 0 0 0 0 0 0 0 127 0" result="hardAlpha"/>
<feOffset/>
<feGaussianBlur stdDeviation="8"/>
<feComposite in2="hardAlpha" operator="out"/>
<feColorMatrix type="matrix" values="0 0 0 0 1 0 0 0 0 0.960784 0 0 0 0 0 0 0 0 0.4 0"/>
<feBlend mode="normal" in2="effect1_dropShadow_380_10782" result="effect2_dropShadow_380_10782"/>
<feBlend mode="normal" in="SourceGraphic" in2="effect2_dropShadow_380_10782" result="shape"/>
</filter>
<filter id="filter7_dd_380_10782" x="231.361" y="149.302" width="53.5518" height="52.7426" filterUnits="userSpaceOnUse" color-interpolation-filters="sRGB">
<feFlood flood-opacity="0" result="BackgroundImageFix"/>
<feColorMatrix in="SourceAlpha" type="matrix" values="0 0 0 0 0 0 0 0 0 0 0 0 0 0 0 0 0 0 127 0" result="hardAlpha"/>
<feOffset/>
<feGaussianBlur stdDeviation="8"/>
<feComposite in2="hardAlpha" operator="out"/>
<feColorMatrix type="matrix" values="0 0 0 0 0.494118 0 0 0 0 1 0 0 0 0 0 0 0 0 1 0"/>
<feBlend mode="normal" in2="BackgroundImageFix" result="effect1_dropShadow_380_10782"/>
<feColorMatrix in="SourceAlpha" type="matrix" values="0 0 0 0 0 0 0 0 0 0 0 0 0 0 0 0 0 0 127 0" result="hardAlpha"/>
<feOffset/>
<feGaussianBlur stdDeviation="8"/>
<feComposite in2="hardAlpha" operator="out"/>
<feColorMatrix type="matrix" values="0 0 0 0 1 0 0 0 0 0.960784 0 0 0 0 0 0 0 0 0.4 0"/>
<feBlend mode="normal" in2="effect1_dropShadow_380_10782" result="effect2_dropShadow_380_10782"/>
<feBlend mode="normal" in="SourceGraphic" in2="effect2_dropShadow_380_10782" result="shape"/>
</filter>
<linearGradient id="paint0_linear_380_10782" x1="159.202" y1="192.63" x2="159.202" y2="166.5" gradientUnits="userSpaceOnUse">
<stop stop-color="#479F78"/>
<stop offset="1" stop-color="#7EFF00"/>
</linearGradient>
<linearGradient id="paint1_linear_380_10782" x1="187.202" y1="192.63" x2="187.202" y2="166.5" gradientUnits="userSpaceOnUse">
<stop stop-color="#479F78"/>
<stop offset="1" stop-color="#7EFF00"/>
</linearGradient>
<linearGradient id="paint2_linear_380_10782" x1="215.202" y1="192.63" x2="215.202" y2="166.5" gradientUnits="userSpaceOnUse">
<stop stop-color="#479F78"/>
<stop offset="1" stop-color="#7EFF00"/>
</linearGradient>
<linearGradient id="paint3_linear_380_10782" x1="243.202" y1="192.63" x2="243.202" y2="166.5" gradientUnits="userSpaceOnUse">
<stop stop-color="#479F78"/>
<stop offset="1" stop-color="#7EFF00"/>
</linearGradient>
<linearGradient id="paint4_linear_380_10782" x1="271.202" y1="192.63" x2="271.202" y2="166.5" gradientUnits="userSpaceOnUse">
<stop stop-color="#479F78"/>
<stop offset="1" stop-color="#7EFF00"/>
</linearGradient>
<clipPath id="clip0_380_10782">
<rect width="20" height="20" fill="white" transform="translate(217 13.5)"/>
</clipPath>
<clipPath id="clip1_380_10782">
<rect width="20" height="20" fill="white" transform="translate(245 13.5)"/>
</clipPath>
<clipPath id="clip2_380_10782">
<rect width="20" height="20" fill="white" transform="translate(273 13.5)"/>
</clipPath>
<clipPath id="clip3_380_10782">
<rect width="20" height="20" fill="white" transform="translate(301 13.5)"/>
</clipPath>
<clipPath id="clip4_380_10782">
<rect width="20" height="20" fill="white" transform="translate(329 13.5)"/>
</clipPath>
<clipPath id="clip5_380_10782">
<rect width="20" height="20" fill="white" transform="translate(176.137 94)"/>
</clipPath>
<clipPath id="clip6_380_10782">
<rect width="20" height="20" fill="white" transform="translate(204.137 94)"/>
</clipPath>
<clipPath id="clip7_380_10782">
<rect width="20" height="20" fill="white" transform="translate(232.137 94)"/>
</clipPath>
<clipPath id="clip8_380_10782">
<rect width="20" height="20" fill="white" transform="translate(260.137 94)"/>
</clipPath>
<clipPath id="clip9_380_10782">
<rect width="20" height="20" fill="white" transform="translate(288.137 94)"/>
</clipPath>
</defs>
</svg>
