<svg width="183" height="130" viewBox="0 0 183 130" fill="none" xmlns="http://www.w3.org/2000/svg">
    <path
        d="M148.505 35.0131C148.557 35.1041 148.72 35.0708 148.792 35.09C149.117 35.0234 149.371 34.9377 149.691 35.1772C149.887 35.3066 150.121 35.2925 150.356 35.2784C150.499 35.3169 150.571 35.3361 150.552 35.4078C150.618 35.7331 150.872 35.6473 151.035 35.6141C151.269 35.6 151.379 35.4758 151.293 35.2222C151.279 34.9878 151.232 34.5908 150.835 34.6381C150.6 34.6522 150.333 34.5036 150.17 34.5369C149.682 34.6367 149.343 34.4689 149.042 34.1577C148.97 34.1384 148.898 34.1192 148.807 34.1717L148.893 34.4253C148.96 34.7506 148.94 34.8224 148.654 34.7455L148.51 34.707C148.438 34.6878 148.347 34.7403 148.4 34.8313C148.381 34.903 148.433 34.9939 148.505 35.0131ZM143.733 33.8881C144.091 33.9842 144.359 34.1328 144.756 34.0855C144.99 34.0714 145.186 34.2008 145.459 34.0433C145.732 33.8858 145.688 34.3353 145.832 34.3738C146.334 34.5083 146.889 34.7338 147.448 34.6531C147.774 34.5866 147.793 34.5148 147.908 34.0845C147.927 34.0128 147.856 33.9936 147.803 33.9027C147.42 34.1844 147.009 33.9973 146.54 34.0255C146.306 34.0395 146.182 33.9294 146.168 33.695C146.082 33.4414 145.977 33.2595 145.651 33.3261C145.326 33.3927 144.987 33.2249 144.771 33.1672L143.911 32.9366C143.748 32.9699 143.605 32.9314 143.494 33.0556C143.365 33.2516 143.164 33.4283 143.197 33.591C143.264 33.9163 143.498 33.9022 143.733 33.8881ZM154.602 36.6467C154.654 36.7377 154.745 36.6852 154.693 36.5942C154.712 36.5225 154.678 36.3598 154.678 36.3598C154.248 36.2445 153.909 36.0767 153.608 35.7655C153.307 35.4542 152.876 35.3389 152.46 35.458C152.207 35.5438 151.9 35.5386 151.647 35.6244C151.752 35.8063 151.895 35.8447 152.039 35.8831C152.646 36.1995 153.325 36.5352 154.047 36.4213C154.21 36.388 154.386 36.5891 154.602 36.6467ZM61.8782 102.967C62.3418 103.245 62.9016 103.165 63.4036 103.299L66.2726 104.068C67.1333 104.299 67.9223 104.51 68.7305 104.65C69.2902 104.569 69.7014 104.756 70.2034 104.891L71.9248 105.352C72.231 105.357 72.5512 105.597 72.8624 105.296C72.8816 105.224 72.9534 105.243 72.9866 105.406C73.0199 105.568 73.1634 105.607 73.3068 105.645C73.7231 105.526 74.0625 105.694 74.3494 105.771C74.6363 105.848 74.8515 105.905 75.0859 105.891C75.9517 105.816 76.6498 106.08 77.4387 106.291C78.2277 106.503 79.0026 106.48 79.7916 106.691L80.0068 106.749C80.3321 106.682 80.5857 106.596 80.8726 106.673C81.1595 106.75 81.4272 106.899 81.805 106.923C82.1112 106.928 82.4365 106.862 82.7234 106.939C83.0103 107.015 83.3497 107.183 83.661 106.882C83.6802 106.811 83.7519 106.83 83.8761 106.94C84.3206 107.29 84.8611 107.281 85.4733 107.291C85.636 107.258 85.7794 107.296 85.9229 107.335C87.4291 107.738 89.0699 107.64 90.5812 107.737C92.3987 107.84 94.2354 107.871 95.9812 107.954L98.8797 108.039C100.248 108.098 101.563 108.066 102.95 108.054C103.491 108.045 104.012 108.108 104.519 107.936C104.773 107.85 104.883 107.726 105.151 107.875C105.562 108.062 106.102 108.053 106.59 107.953C106.681 107.9 106.72 107.757 106.844 107.867C107.217 108.198 107.724 108.026 108.121 107.979C109.475 107.803 110.68 107.896 112.015 107.792C113.421 107.708 114.918 107.571 116.344 107.415C117.21 107.339 118.114 107.12 119.032 107.136C119.176 107.174 119.41 107.16 119.52 107.036C119.741 106.788 120.171 106.903 120.549 106.927C120.874 106.861 121.18 106.866 121.506 106.799C121.831 106.733 122.065 106.719 122.371 106.724C122.606 106.71 122.912 106.715 123.113 106.538C123.458 106.4 123.687 106.692 123.96 106.534C124.232 106.377 124.715 106.583 124.936 106.335C125.046 106.211 125.28 106.196 125.424 106.235C125.854 106.35 126.289 106.159 126.758 106.131C127.141 105.85 127.715 106.003 127.993 105.54C128.084 105.487 128.208 105.597 128.299 105.545C128.73 105.66 129.251 105.723 129.739 105.623C130.715 105.423 131.633 105.439 132.634 104.861C132.724 104.809 132.815 104.756 132.887 104.776C133.389 104.91 133.786 104.863 134.203 104.744C134.963 104.486 135.738 104.463 136.375 104.096C137.221 104.092 137.982 103.835 138.724 103.649C139.882 103.345 141.04 103.04 142.217 102.663C143.303 102.34 144.265 101.905 145.351 101.582C145.767 101.462 146.093 101.396 146.365 101.238C147.275 100.713 148.27 100.442 149.18 99.917C149.271 99.8645 149.361 99.812 149.433 99.8312C150.227 99.7365 150.916 99.46 151.644 99.04C151.826 98.935 152.008 98.83 152.17 98.7967C153.152 98.2909 154.113 97.8568 155.114 97.2793C155.296 97.1743 155.373 96.8874 155.679 96.8926C156.147 96.8645 156.53 96.5828 156.894 96.3728C156.913 96.301 157.024 96.1768 156.952 96.1576C156.847 95.9757 156.742 95.7939 157.1 95.8899C157.387 95.9668 157.641 95.881 157.914 95.7235C158.187 95.566 158.445 95.1741 158.823 95.1985C159.192 94.6824 160.039 94.6787 160.231 93.9615C160.25 93.8898 160.413 93.8565 160.504 93.804C161.322 93.3315 161.964 92.6579 162.816 92.348C163.069 92.2622 163.27 92.0855 163.472 91.9088C163.673 91.7321 163.802 91.5362 164.022 91.2877C164.223 91.111 164.353 90.9151 164.535 90.8101C165.626 90.1801 166.311 89.0569 167.226 88.2258C167.499 88.0683 167.556 87.8532 167.705 87.5855C167.854 87.3178 167.93 87.031 168.132 86.8543C168.677 86.5392 168.922 85.913 169.272 85.4686C169.315 85.0191 169.698 84.7374 169.957 84.3455L171.03 82.6345C171.289 82.2427 171.261 81.7739 171.448 81.3628C171.764 80.7558 172.152 80.168 172.201 79.4123C172.168 79.2497 172.278 79.1255 172.297 79.0537C172.609 78.7528 172.705 78.3942 172.638 78.0689C172.538 77.5809 172.921 77.2992 172.874 76.9022C172.86 76.6678 172.865 76.3617 173.013 76.094C173.143 75.8981 173.129 75.6637 173.186 75.4486C173.417 74.5879 173.504 73.6889 173.338 72.8756C173.271 72.5503 173.295 72.1725 173.392 71.8139C173.43 71.6704 173.468 71.527 173.435 71.3643C173.388 70.9673 173.503 70.537 173.293 70.1732C173.031 69.7185 173.452 69.2934 173.333 68.8771C173.128 68.2073 173.086 67.5042 173.115 66.8202C173.159 66.3707 173.006 65.7918 172.835 65.2846C172.749 65.031 172.611 64.6865 172.616 64.3804C172.631 63.4621 172.302 62.6821 171.992 61.8304C171.768 61.2323 171.668 60.7443 171.262 60.2512C171.086 60.0501 171.072 59.8157 171.005 59.4904C170.728 58.8013 170.543 58.0597 170.012 57.4565C169.869 57.418 169.836 57.2554 169.783 57.1644C169.363 56.4369 169.086 55.7479 168.738 55.0396C168.442 54.4222 167.692 54.0674 167.669 53.2925C167.688 53.2208 167.545 53.1824 167.473 53.1632C167.296 52.9621 167.119 52.761 166.962 52.4882C166.489 51.6697 165.854 50.8846 165.29 50.1186C165.061 49.8266 164.851 49.4628 164.512 49.295C164.172 49.1272 164.111 48.4958 163.772 48.328C163.269 48.1935 163.332 47.6722 163.084 47.4519C162.463 46.9011 161.952 46.2261 161.402 45.6946C160.977 45.2732 160.442 44.976 160.036 44.4828C159.63 43.9897 159.056 43.836 158.65 43.3428C158.669 43.2711 158.454 43.2135 158.363 43.266C158.219 43.2275 158.032 43.6386 158.004 43.1699C157.99 42.9355 158.015 42.5577 157.656 42.4616C157.226 42.3463 157.016 41.9825 156.786 41.6905C156.557 41.3985 156.342 41.3408 156.055 41.2639C155.625 41.1486 155.285 40.9808 155.075 40.6171C154.813 40.1624 154.291 40.0995 153.971 39.86C153.919 39.7691 153.847 39.7499 153.756 39.8024C153.574 39.9074 153.411 39.9406 153.306 39.7588C153.096 39.395 152.92 39.1939 152.489 39.0786C152.274 39.021 152.078 38.8916 151.992 38.638C151.868 38.5278 151.744 38.4177 151.6 38.3792C151.424 38.1781 151.228 38.0488 151.032 37.9194C150.817 37.8617 150.601 37.8041 150.477 37.6939C150.229 37.4736 150.047 37.5786 149.865 37.6836C149.617 37.4633 149.291 37.5299 149.153 37.1853C149.034 36.7691 148.656 36.7447 148.297 36.6486C148.154 36.6102 147.9 36.696 147.92 36.6242C147.781 36.2797 147.528 36.3655 147.346 36.4705C147.183 36.5038 147.111 36.4845 146.987 36.3744C146.863 36.2642 146.614 36.0439 146.523 36.0964C146.289 36.1105 146.16 36.3064 146.093 35.9811C145.988 35.7992 145.902 35.5456 145.577 35.6122C145.505 35.593 145.381 35.4828 145.328 35.3919C145.013 34.8463 144.349 34.745 143.775 34.5913C143.703 34.572 143.54 34.6053 143.416 34.4952C143.259 34.2224 142.842 34.3414 142.613 34.0494C142.541 34.0302 142.489 33.9392 142.436 33.8483C142.384 33.7574 142.331 33.6664 142.37 33.523C142.408 33.3795 142.533 33.4897 142.676 33.5281C142.748 33.5474 142.839 33.4949 142.786 33.4039C142.777 32.8634 142.548 32.5714 142.151 32.6188C141.519 32.6802 140.86 32.2728 140.314 32.5878C140.223 32.6403 140.152 32.6211 140.171 32.5494C140.052 32.1331 139.674 32.1088 139.368 32.1036C138.378 32.0689 137.517 31.8383 136.585 31.5885C136.298 31.5116 136.03 31.363 135.724 31.3578C135.418 31.3527 135.131 31.2758 134.844 31.1989C134.342 31.0644 133.821 31.0016 133.338 30.7953C132.998 30.6275 132.524 30.9617 132.19 30.4878C131.735 30.7503 131.162 30.5966 130.693 30.6247C130.458 30.6388 130.152 30.6336 130.411 30.2417C130.148 29.7871 129.646 29.6525 129.12 29.8958C129.129 30.4363 128.737 30.1775 128.541 30.0482C128.364 29.8471 128.097 29.6985 127.881 29.6408C127.666 29.5832 127.58 29.3296 127.346 29.3436C127.092 29.4294 127.035 29.6446 126.977 29.8597C126.958 29.9314 126.867 29.9839 126.848 30.0557L125.585 30.1785C125.441 30.14 125.188 30.2258 125.083 30.0439C124.782 29.7327 124.456 29.7993 124.059 29.8466C123.715 29.9849 123.543 29.4777 123.055 29.5775C122.079 29.7772 121.108 29.6708 120.19 29.6554C119.037 29.654 117.89 29.3465 116.737 29.3451C115.819 29.3296 114.958 29.099 114.054 29.3179C113.733 29.0783 113.13 29.6085 112.868 29.1538C112.815 29.0629 112.581 29.0769 112.418 29.1102C111.605 29.2766 110.725 29.1177 109.897 29.0498C108.549 28.919 107.162 28.9316 105.774 28.9443C104.856 28.9288 103.847 28.9659 102.928 28.9504L98.8387 29.0076C97.8294 29.0446 96.8918 29.1009 95.9735 29.0854C95.433 29.0943 94.9975 29.2851 94.4762 29.2223C93.6488 29.1543 92.8355 29.3207 91.9696 29.3962C91.5008 29.4243 91.1038 29.4717 90.6017 29.3371C90.3865 29.2795 89.951 29.4703 89.6449 29.4651C89.0711 29.3114 88.4729 29.5354 87.8799 29.4534C87.2152 29.3522 86.6503 29.7389 85.9856 29.6376C84.756 29.9231 83.479 29.8115 82.1776 30.0778C82.015 30.1111 81.8523 30.1444 81.7089 30.1059C81.2068 29.9714 80.6278 30.1237 80.1591 30.1519L76.8007 30.6356C76.1692 30.697 75.557 30.6867 74.9781 30.8391C74.1455 31.0772 73.2464 30.99 72.3613 31.1372C71.1509 31.3509 69.9405 31.5647 68.6968 31.6158C68.1704 31.8591 67.6299 31.868 67.0702 31.9486C66.2761 32.0433 65.5537 32.1572 64.812 32.3428C64.5059 32.3377 64.3048 32.5144 64.1562 32.7821C64.0076 33.0497 63.9359 33.0305 63.7592 32.8294C63.5107 32.6091 63.3865 32.4989 63.1329 32.5847C62.372 32.8421 61.5536 33.3146 60.6929 33.0839C60.6211 33.0647 60.4393 33.1697 60.3675 33.1505C59.8603 33.3221 59.4248 33.5129 58.956 33.541C58.4155 33.5499 57.98 33.7407 57.4203 33.8213C56.5352 33.9685 55.7603 33.9915 54.9419 34.464C54.8509 34.5165 54.7792 34.4972 54.7075 34.478C54.2387 34.5062 53.8032 34.6969 53.3344 34.7251L51.8704 35.0246L50.5306 35.4343C50.0234 35.6059 49.5354 35.7057 49.1191 35.8248C48.6311 35.9246 48.1431 36.0245 47.7268 36.1435L45.99 36.6006C45.6647 36.6671 45.2817 36.9488 44.9564 37.0154C43.655 37.2817 42.4587 37.7298 41.2816 38.1062C39.4346 38.6875 37.5876 39.2687 35.7931 39.9409C35.4678 40.0075 35.195 40.165 34.9221 40.3225C34.1946 40.7425 33.3428 41.0523 32.5295 41.2187C32.3476 41.3237 32.094 41.4095 31.8404 41.4953C30.9886 41.8051 30.2227 42.3686 29.3709 42.6784C28.3564 43.0216 27.5188 43.5658 26.6093 44.0908C26.5184 44.1433 26.3365 44.2483 26.2648 44.2291C25.9062 44.133 25.6666 44.4531 25.3938 44.6106C24.9391 44.8731 24.5561 45.1549 24.1206 45.3456C23.6851 45.5364 23.3406 45.6747 22.9576 45.9564C22.1583 46.3572 21.4641 46.9399 20.6456 47.4124C20.2818 47.6224 19.8655 47.7414 19.6452 47.9899C19.0944 48.611 18.3144 48.94 17.6586 49.3793C17.1846 49.7135 16.6198 50.1002 16.2176 50.4537C15.4132 51.1605 14.628 51.7957 13.8953 52.5218C13.4739 52.9469 13.0332 53.4438 12.5593 53.7781C12.2673 54.0073 12.0277 54.3274 11.7165 54.6284C11.4052 54.9293 11.3616 55.3788 11.1029 55.7707C10.8633 56.0909 10.4086 56.3534 10.1691 56.6735C9.98207 57.0846 9.67081 57.3856 9.57472 57.7442C9.31597 58.136 9.09565 58.3845 8.76518 58.7571C8.65502 58.8814 8.54486 59.0056 8.48721 59.2207C8.51535 59.6895 8.41927 60.0481 8.0555 60.2581C7.96456 60.3106 7.92612 60.454 7.88769 60.5975L7.19209 62.3328C6.94741 62.959 7.00885 63.5904 6.83589 64.2359C6.68216 64.8097 6.90626 65.4078 6.58986 66.0148C6.58986 66.0148 6.62315 66.1775 6.69487 66.1967C6.88569 66.6322 6.51678 67.1483 6.87026 67.5505C6.79339 67.8373 6.95091 68.1102 6.80232 68.3778C6.67294 68.5738 6.70624 68.7364 6.81125 68.9183C6.91627 69.1002 7.09301 69.3013 7.03536 69.5164C6.88162 70.0902 7.30683 70.5116 7.49764 70.947C7.74097 71.4735 7.86006 71.8897 8.03165 72.3969C8.11745 72.6505 8.11231 72.9566 8.30827 73.086C8.53752 73.378 8.65661 73.7942 8.79491 74.1388C9.09074 74.7561 9.40579 75.3018 9.72084 75.8474C10.1934 76.6658 10.6852 77.4125 11.2871 78.035C11.5881 78.3463 11.7789 78.7818 12.0415 79.2365C12.304 79.6911 12.6959 79.9499 12.9777 80.3329C13.2069 80.6249 13.7282 80.6877 13.8281 81.1757C13.8806 81.2666 14.0241 81.305 14.0958 81.3243C14.5979 81.4588 14.7502 82.0377 15.1229 82.3682C15.4956 82.6986 16.0502 82.9241 16.332 83.3071C16.8814 83.8386 17.632 84.1935 18.1097 84.7058C18.2147 84.8877 18.4299 84.9454 18.6258 85.0747C19.2854 85.4821 19.9258 85.9611 20.5854 86.3685C21.1733 86.7566 21.7804 87.073 22.2965 87.4419C22.349 87.5329 22.5309 87.4279 22.6744 87.4663C22.7461 87.4855 22.7986 87.5765 22.7077 87.629C22.6692 87.7724 22.7217 87.8633 22.8652 87.9018C23.2238 87.9979 23.4723 88.2182 23.7015 88.5102C24.1703 88.4821 24.3803 88.8458 24.8107 88.9611C24.9349 89.0713 25.0784 89.1097 25.2026 89.2199C25.4511 89.4402 25.6803 89.7322 26.0057 89.6657C26.4937 89.5658 26.4309 90.0871 26.7178 90.164L27.0047 90.2408C27.1481 90.2793 27.3108 90.246 27.435 90.3561C27.645 90.7199 28.0754 90.8352 28.434 90.9313C28.7926 91.0274 29.1321 91.1952 29.4715 91.363C30.222 91.7179 30.9866 92.3071 31.919 92.5569C32.0625 92.5954 32.206 92.6338 32.3302 92.744C33.0756 93.4049 34.1566 93.3871 35.0122 93.9238C35.8921 94.0827 36.585 94.6527 37.4457 94.8833C37.7326 94.9602 37.9093 95.1613 38.1962 95.2382C38.5548 95.3343 38.8942 95.5021 39.3246 95.6174C39.6832 95.7135 40.0418 95.8096 40.4338 96.0683C40.6297 96.1977 40.8449 96.2554 41.0601 96.313C41.7773 96.5052 42.5138 96.6257 43.1209 96.9421C43.9956 97.4071 44.8756 97.566 45.6978 97.94C46.5201 98.3141 47.3091 98.5255 48.0981 98.7369C48.887 98.9483 49.7285 99.2507 50.5175 99.4621C51.3782 99.6927 52.2722 100.086 53.1329 100.317C53.4006 100.465 53.6683 100.614 54.0269 100.71C54.3855 100.806 54.7633 100.83 55.1745 101.017C55.5139 101.185 55.9442 101.301 56.413 101.272C56.8101 101.225 57.0534 101.751 57.5414 101.652C57.9333 101.91 58.493 101.83 58.9042 102.017C59.387 102.223 59.8891 102.358 60.3912 102.492C60.8933 102.627 61.4145 102.689 61.8782 102.967ZM66.2318 102.212C66.1075 102.102 66.0935 101.868 65.7873 101.863C65.2136 101.709 64.659 101.483 64.0852 101.33C63.2245 101.099 62.4022 100.725 61.4838 100.709C61.3404 100.671 61.1969 100.633 61.1444 100.542L59.1361 100.003C57.8451 99.6575 56.4631 99.3641 55.158 98.7838C54.962 98.6544 54.7468 98.5967 54.6034 98.5583C54.369 98.5724 54.1013 98.4238 53.9386 98.4571C53.4366 98.3225 52.9921 97.9728 52.4324 98.0535C51.3617 97.4591 49.9361 97.6152 49.0665 96.8441C48.9422 96.7339 48.7271 96.6763 48.5644 96.7096C47.6653 96.6224 46.9724 96.0524 46.054 96.0369C45.8914 96.0702 45.6954 95.9408 45.4994 95.8114C45.1985 95.5002 44.7873 95.3132 44.2993 95.413C44.1367 95.4463 43.9407 95.3169 43.7255 95.2593C43.5296 95.1299 43.4053 95.0197 43.1902 94.9621C42.7598 94.8468 42.3103 94.8032 41.9901 94.5636C41.5789 94.3766 41.2587 94.1371 40.7567 94.0025L40.3263 93.8872C39.9677 93.7911 39.7384 93.4991 39.3606 93.4747C38.9827 93.4503 38.6626 93.2108 38.3039 93.1147C37.5867 92.9225 36.9655 92.3718 36.2483 92.1796C35.8896 92.0835 35.622 91.9349 35.2826 91.7671C34.7805 91.6325 34.3501 91.5172 33.8865 91.2393C33.4946 90.9805 33.045 90.9369 32.5814 90.6589C32.3854 90.5296 32.0985 90.4527 31.8116 90.3758C31.5247 90.299 31.2045 90.0594 30.9893 90.0018C30.5205 90.0299 30.454 89.7046 30.2055 89.4843L30.0621 89.4458C29.0579 89.1768 28.1883 88.4057 27.1841 88.1366C26.8255 88.0405 26.5245 87.7293 26.1659 87.6332C25.6638 87.4986 25.3103 87.0964 24.8467 86.8185L23.5083 86.0755C23.2598 85.8552 22.9396 85.6157 22.581 85.5196C22.2941 85.4427 22.1174 85.2416 21.8497 85.093C21.5103 84.9252 21.3194 84.4897 20.8314 84.5896C20.7597 84.5704 20.6355 84.4602 20.5113 84.35C20.1386 84.0196 19.7082 83.9043 19.3547 83.5021C19.0537 83.1908 18.681 82.8603 18.3083 82.5299C18.0599 82.3096 17.8831 82.1085 17.5245 82.0124C17.3618 82.0457 17.2376 81.9355 17.1134 81.8253L15.1449 79.9911C14.7722 79.6607 14.4379 79.1868 14.1562 78.8038C13.9077 78.5835 13.7694 78.2389 13.4825 78.1621C13.4108 78.1428 13.2673 78.1044 13.2865 78.0327C13.2443 77.3296 12.5078 77.2091 12.2453 76.7544C11.9828 76.2997 11.7202 75.845 11.3475 75.5146C11.099 75.2942 10.8698 75.0022 10.8749 74.6961C10.8609 74.4617 10.8276 74.2991 10.5599 74.1505C10.2922 74.0019 10.063 73.7099 10.1398 73.423C10.1783 73.2795 10.145 73.1169 10.0015 73.0784C9.45208 72.5469 9.46751 71.6286 9.09996 70.992C8.99494 70.8102 9.00008 70.5041 8.75162 70.2838C8.69911 70.1928 8.61331 69.9392 8.63253 69.8675C8.74783 69.4372 8.59031 69.1644 8.47121 68.7481C8.26633 68.0783 8.20489 67.4469 8.39706 66.7297C8.43549 66.5862 8.42142 66.3519 8.38813 66.1892C8.25496 65.5386 8.64309 64.9508 8.58166 64.3194C8.56758 64.085 8.76868 63.9083 8.80712 63.7648C8.86477 63.5497 8.92242 63.3345 9.03258 63.2103C9.10945 62.9234 8.95192 62.6506 9.10052 62.3829C9.30162 62.2062 9.43099 62.0103 9.48864 61.7951C9.64238 61.2214 10.279 60.8539 10.3085 60.17C10.653 60.0317 10.8208 59.6923 10.7735 59.2953C11.4293 58.856 11.3538 57.9903 12.1723 57.5177C12.4451 57.3602 12.6846 57.0401 12.8524 56.7007C13.0202 56.3613 13.1688 56.0937 13.4609 55.8645C14.045 55.406 14.524 54.7657 15.1081 54.3073C16.3672 53.3379 17.4829 52.3301 18.4743 51.2121C18.6947 50.9636 18.8765 50.8586 19.1301 50.7729C19.4747 50.6346 19.8385 50.4246 20.1305 50.1954L21.5523 49.1927C22.0454 48.7868 22.5719 48.5435 23.065 48.1375C23.2661 47.9608 23.5197 47.875 23.7926 47.7175L25.2476 46.8775C25.7933 46.5625 26.2672 46.2283 26.9179 46.0952C27.0088 46.0427 27.1715 46.0094 27.1907 45.9377C27.7223 45.3883 28.4447 45.2744 29.0813 44.9069C29.7179 44.5394 30.3545 44.1719 31.0769 44.058C31.2395 44.0247 31.3305 43.9722 31.4214 43.9197C32.058 43.5522 32.6562 43.3281 33.2735 43.0323C33.8909 42.7365 34.5224 42.6751 35.0155 42.2692C35.834 41.7967 36.8625 41.6879 37.7335 41.3064C38.6045 40.9248 39.528 40.6342 40.399 40.2526C40.4182 40.1809 40.5091 40.1284 40.5809 40.1476C41.3698 40.359 42.155 39.7239 42.9158 39.4665L45.4327 38.6804L48.8731 37.6037C49.1075 37.5896 49.3611 37.5038 49.5955 37.4898L51.2414 37.0852C51.9305 36.8087 52.6004 36.6038 53.3945 36.5091C53.7915 36.4618 54.0836 36.2326 54.4089 36.166C55.0596 36.0329 55.691 35.9715 56.2508 35.8908C56.3417 35.8383 56.4852 35.8768 56.5044 35.8051C57.2127 35.4568 58.0068 35.3621 58.7292 35.2482L59.7769 35.0677C60.662 34.9205 61.5138 34.6107 62.3271 34.4443C62.6524 34.3777 62.9778 34.3111 63.2839 34.3163C63.5183 34.3022 63.7719 34.2164 63.9538 34.1114C64.1164 34.0782 64.2266 33.9539 64.2983 33.9732C65.0156 34.1653 65.7239 33.8171 66.4463 33.7032C66.5372 33.6507 66.6282 33.5982 66.7716 33.6366C68.0678 33.6764 69.3359 33.2475 70.5463 33.0338L71.0343 32.9339C71.4646 33.0492 71.8092 32.911 72.2062 32.8636L75.3494 32.3222C75.7465 32.2748 76.1243 32.2992 76.5406 32.1802C76.9569 32.0611 77.4257 32.033 77.8944 32.0048C78.3632 31.9767 78.8128 32.0203 79.1433 31.6476C79.2534 31.5234 79.4161 31.4901 79.5595 31.5286C80.4202 31.7592 81.2912 31.3776 82.0802 31.589C82.4388 31.6851 82.8743 31.4944 83.2189 31.3561C83.6544 31.1653 84.1039 31.2089 84.501 31.1615C84.8981 31.1142 85.2375 31.282 85.6922 31.0195C85.7831 30.967 85.8548 30.9862 85.9266 31.0054C86.175 31.2258 86.3569 31.1208 86.5913 31.1067C86.9884 31.0593 87.3137 30.9928 87.6058 30.7636C87.8542 30.9839 88.1795 30.9173 88.4857 30.9225C88.8443 31.0186 89.103 30.6267 89.4425 30.7945C89.7819 30.9623 90.0739 30.7331 90.3608 30.81C90.6477 30.8868 91.0448 30.8395 91.3509 30.8447C91.5853 30.8306 91.8914 30.8357 92.145 30.75C92.0208 30.6398 91.9683 30.5489 91.9157 30.4579C91.935 30.3862 91.8632 30.367 91.8825 30.2953C91.9017 30.2236 91.9926 30.171 92.0643 30.1903L92.437 30.5207C92.5613 30.6309 92.7047 30.6693 92.8482 30.7078C93.2785 30.8231 93.5949 30.216 93.9151 30.4556C94.3595 30.8053 94.7233 30.5953 95.0679 30.457C95.3215 30.3712 95.4841 30.3379 95.7326 30.5582C95.8043 30.5774 95.9478 30.6159 96.0387 30.5634C96.6753 30.1959 97.3734 30.4598 97.9856 30.4701C98.2917 30.4753 98.5978 30.4804 99.0858 30.3806C99.2485 30.3473 99.5162 30.4959 99.7506 30.4818C100.525 30.4588 101.262 30.5793 102.004 30.3937C102.582 30.2413 103.281 30.5052 103.912 30.4438C104.472 30.3632 105.065 30.4452 105.677 30.4556L107.605 30.434L107.748 30.4724C109.011 30.3496 110.288 30.4612 111.584 30.501C111.89 30.5062 112.196 30.5113 112.483 30.5882C112.77 30.6651 113.024 30.5793 113.206 30.4743C113.368 30.441 113.55 30.336 113.694 30.3744C114.411 30.5666 115.224 30.4002 115.941 30.5924L116.157 30.6501C117.941 30.5901 119.629 30.8886 121.303 30.9529C121.949 31.1258 122.58 31.0644 123.264 31.094C123.623 31.19 124 31.2144 124.345 31.0761C124.599 30.9904 124.618 30.9186 124.775 31.1914C124.828 31.2824 124.828 31.2824 124.9 31.3016C125.622 31.1877 126.301 31.5233 127.004 31.4811C127.779 31.4582 128.587 31.5978 129.323 31.7183C129.845 31.7811 130.438 31.8632 130.978 31.8543C131.29 31.5533 131.538 31.7736 131.806 31.9222C132.002 32.0516 132.217 32.1092 132.308 32.0568C132.853 31.7417 133.226 32.0722 133.657 32.1875L133.872 32.2452C134.589 32.4374 135.345 32.4861 136.095 32.841C136.702 33.1574 137.458 33.2061 138.175 33.3983C138.462 33.4752 138.73 33.6238 139.127 33.5764C139.289 33.5431 139.251 33.6866 139.304 33.7775C139.461 34.0503 139.676 34.108 139.911 34.0939C140.054 34.1324 140.073 34.0606 140.112 33.9172C140.078 33.7546 140.045 33.5919 140.189 33.6303C140.28 33.5778 140.385 33.7597 140.437 33.8506C140.418 33.9224 140.47 34.0133 140.451 34.085C140.556 34.2669 140.628 34.2861 140.953 34.2196C141.317 34.0096 141.532 34.0672 141.398 34.5692C141.378 34.641 141.359 34.7127 141.431 34.7319C141.79 34.828 142.187 34.7806 142.507 35.0202C142.507 35.0202 142.67 34.9869 142.689 34.9152C142.799 34.791 142.962 34.7577 143.047 35.0113C143.133 35.2649 143.219 35.5185 143.506 35.5953C143.936 35.7106 144.199 36.1653 144.758 36.0847C144.921 36.0514 145.189 36.2 145.366 36.4011C145.595 36.6931 145.973 36.7175 146.312 36.8853C146.561 37.1056 146.828 37.2542 147.225 37.2069C147.297 37.2261 147.44 37.2645 147.493 37.3555C147.913 38.083 148.655 37.8974 149.3 38.0703C149.587 38.1472 149.893 38.1524 149.998 38.3342C150.261 38.7889 150.6 38.9567 150.992 39.2155C151.652 39.6228 152.22 40.0827 152.899 40.4183C153.037 40.7628 153.315 40.2992 153.42 40.4811C153.525 40.663 153.721 40.7924 153.826 40.9742C154.194 41.6108 154.964 41.8939 155.513 42.4255C155.944 42.5408 156.335 42.7996 156.545 43.1633C156.598 43.2542 156.722 43.3644 156.866 43.4028C157.009 43.4413 157.243 43.4272 157.368 43.5374C157.492 43.6475 157.506 43.8819 157.611 44.0638L157.984 44.3942C158.978 45.2755 159.919 46.0658 160.822 46.9996L162.628 48.8671C163.354 49.5997 164.099 50.2607 164.553 51.1508C164.586 51.3135 164.638 51.4044 164.71 51.4236C165.207 51.8643 165.613 52.3574 165.909 52.9747C166.602 53.5447 166.931 54.3247 167.351 55.0522C167.876 55.9616 168.44 56.7276 168.783 57.7419L168.926 57.7804C169.141 57.838 169.175 58.0007 169.299 58.1108C169.509 58.4746 169.303 58.9574 169.747 59.3071C170.12 59.6376 169.985 60.1396 170.176 60.5751L170.887 62.226C170.973 62.4796 171.059 62.7332 171.125 63.0585C171.391 64.3598 171.873 65.7187 171.938 67.1967L172.11 67.7039C172.157 68.1009 172.295 68.4454 172.199 68.804C172.007 69.5212 172.356 70.2295 172.235 70.9659C172.603 71.6025 172.195 72.262 172.348 72.8409C172.17 73.7925 172.082 74.6915 172.139 75.629C171.899 75.9492 171.856 76.3987 171.812 76.8483C171.482 77.2209 171.634 77.7998 171.303 78.1725C171.193 78.2967 171.227 78.4594 171.26 78.622C171.216 79.0716 171.244 79.5403 170.756 79.6402C170.594 79.6734 170.608 79.9078 170.732 80.018C170.87 80.3625 170.884 80.5969 170.592 80.8261L170.3 81.0553C170.028 81.2128 170.042 81.4472 169.893 81.7148C169.797 82.0734 169.825 82.5422 169.318 82.7138C169.203 83.1441 168.695 83.3156 168.776 83.8753C168.412 84.0853 168.44 84.5541 168.077 84.7641C167.966 84.8883 167.804 84.9216 167.694 85.0458C167.363 85.4185 167.425 86.0499 166.879 86.3649C166.424 86.6274 166.256 86.9668 165.854 87.3202L164.648 88.3805L164.317 88.7532C163.987 89.1258 163.689 89.6611 163.072 89.9569C162.546 90.2002 162.177 90.7163 161.703 91.0505C160.573 91.824 159.515 92.6166 158.457 93.4093C158.074 93.691 157.462 93.6807 157.308 94.2545C157.289 94.3262 157.126 94.3595 156.963 94.3927C155.753 94.6065 154.819 95.5093 153.728 96.1393C153.546 96.2443 153.364 96.3493 153.202 96.3826C152.551 96.5157 151.914 96.8832 151.297 97.179C150.608 97.4556 150.043 97.8423 149.354 98.1189C147.746 98.38 146.325 99.3826 144.698 99.7155C143.353 100.431 141.784 100.549 140.387 101.174C139.769 101.47 139.047 101.583 138.415 101.645C138.181 101.659 137.947 101.673 137.836 101.797C137.506 102.17 137.004 102.035 136.588 102.154C135.918 102.359 135.358 102.44 134.688 102.645C134.434 102.73 134.037 102.778 133.731 102.773C132.272 102.766 130.966 103.338 129.612 103.514C128.584 103.623 127.478 104.018 126.397 104.036C125.551 104.04 124.627 104.33 123.761 104.406C123.058 104.448 122.297 104.705 121.522 104.728C120.676 104.732 119.771 104.951 118.958 105.117C118.719 105.438 118.509 105.074 118.274 105.088C117.207 105.34 116.165 105.214 115.117 105.395C114.16 105.523 113.079 105.541 112.051 105.649L111.491 105.73L111.003 105.83C109.764 105.575 108.573 105.717 107.382 105.859C106.119 105.982 104.895 105.961 103.689 105.869C102.934 105.82 102.23 105.862 101.456 105.885C100.518 105.942 99.5279 105.907 98.6096 105.891C97.079 105.866 95.5676 105.768 94.037 105.742C92.7408 105.702 91.4638 105.591 90.1869 105.479L86.858 105.279C86.2458 105.269 85.6335 105.259 85.0597 105.105C84.4142 104.932 83.802 104.922 83.118 104.892C82.4341 104.862 81.7501 104.833 81.1046 104.66L80.8894 104.602C80.2195 104.807 79.7034 104.438 79.1104 104.356C78.4456 104.255 77.7284 104.063 77.0252 104.105C76.0876 104.161 75.2461 103.859 74.4571 103.647C74.1703 103.571 73.8833 103.494 73.5772 103.489C73.1085 103.517 72.6064 103.382 72.1043 103.248C71.8891 103.19 71.6547 103.204 71.5113 103.166C71.1527 103.07 70.794 102.973 70.4162 102.949C70.0909 103.016 69.8424 102.795 69.5555 102.718C68.91 102.545 68.2311 102.21 67.5088 102.324C67.1117 102.371 66.6532 101.787 66.2318 102.212Z"
        fill="#FF0420" />
</svg>