<svg width="163" height="116" viewBox="0 0 163 116" fill="none" xmlns="http://www.w3.org/2000/svg">
    <path d="M132.713 31.4355C132.76 31.5165 132.904 31.4869 132.968 31.504C133.258 31.4447 133.484 31.3683 133.769 31.5816C133.944 31.6968 134.152 31.6843 134.361 31.6718C134.489 31.706 134.553 31.7231 134.536 31.787C134.595 32.0767 134.821 32.0003 134.966 31.9707C135.174 31.9582 135.272 31.8475 135.196 31.6217C135.183 31.413 135.141 31.0594 134.788 31.1016C134.579 31.1141 134.341 30.9817 134.196 31.0114C133.761 31.1003 133.459 30.9509 133.191 30.6737C133.127 30.6565 133.063 30.6394 132.982 30.6862L133.058 30.912C133.118 31.2017 133.101 31.2656 132.845 31.1972L132.717 31.1629C132.653 31.1458 132.572 31.1926 132.619 31.2736C132.602 31.3374 132.649 31.4184 132.713 31.4355ZM128.463 30.4336C128.782 30.5192 129.021 30.6516 129.374 30.6094C129.583 30.5969 129.757 30.7121 130 30.5718C130.243 30.4315 130.204 30.8319 130.332 30.8661C130.779 30.9859 131.273 31.1867 131.772 31.1149C132.061 31.0556 132.079 30.9918 132.181 30.6085C132.198 30.5447 132.135 30.5276 132.088 30.4466C131.747 30.6975 131.381 30.5309 130.963 30.5559C130.754 30.5685 130.644 30.4704 130.631 30.2616C130.555 30.0358 130.461 29.8738 130.171 29.9331C129.882 29.9924 129.579 29.8429 129.388 29.7916L128.621 29.5862C128.476 29.6158 128.349 29.5816 128.251 29.6922C128.135 29.8667 127.956 30.0241 127.986 30.169C128.045 30.4587 128.254 30.4462 128.463 30.4336ZM138.142 32.8903C138.189 32.9713 138.27 32.9246 138.223 32.8436C138.24 32.7797 138.211 32.6349 138.211 32.6349C137.827 32.5322 137.525 32.3827 137.257 32.1055C136.989 31.8283 136.606 31.7256 136.235 31.8317C136.009 31.9081 135.737 31.9035 135.511 31.9799C135.604 32.1419 135.732 32.1761 135.86 32.2103C136.4 32.4921 137.005 32.791 137.648 32.6895C137.793 32.6599 137.951 32.839 138.142 32.8903ZM55.5657 91.9534C55.9786 92.201 56.4771 92.1292 56.9243 92.249L59.4793 92.9336C60.2458 93.139 60.9484 93.3273 61.6682 93.4517C62.1667 93.3799 62.5328 93.5464 62.9799 93.6662L64.513 94.077C64.7856 94.0816 65.0707 94.2949 65.3479 94.0269C65.365 93.963 65.4289 93.9801 65.4586 94.125C65.4882 94.2699 65.616 94.3041 65.7437 94.3383C66.1145 94.2323 66.4167 94.3817 66.6722 94.4502C66.9277 94.5187 67.1193 94.57 67.3281 94.5575C68.0992 94.4903 68.7208 94.7253 69.4235 94.9136C70.1261 95.1018 70.8162 95.0814 71.5188 95.2697L71.7105 95.321C72.0002 95.2617 72.2261 95.1853 72.4816 95.2538C72.7371 95.3223 72.9755 95.4546 73.312 95.4763C73.5846 95.4809 73.8743 95.4216 74.1298 95.4901C74.3853 95.5585 74.6876 95.708 74.9648 95.44C74.9819 95.3761 75.0458 95.3932 75.1564 95.4913C75.5522 95.8027 76.0336 95.7948 76.5788 95.804C76.7237 95.7744 76.8514 95.8086 76.9792 95.8428C78.3206 96.2022 79.7818 96.1146 81.1277 96.2014C82.7463 96.2928 84.382 96.3204 85.9368 96.3947L88.5181 96.4702C89.7363 96.5228 90.9078 96.4944 92.1431 96.4831C92.6245 96.4752 93.0887 96.5312 93.5404 96.3784C93.7663 96.302 93.8644 96.1913 94.1028 96.3237C94.4689 96.4902 94.9503 96.4823 95.3849 96.3934C95.4659 96.3466 95.5001 96.2189 95.6107 96.317C95.9427 96.6113 96.3944 96.4585 96.748 96.4163C97.9537 96.2602 99.027 96.3425 100.216 96.2502C101.468 96.175 102.802 96.0531 104.071 95.9141C104.842 95.8469 105.647 95.652 106.465 95.6657C106.593 95.7 106.802 95.6874 106.9 95.5768C107.096 95.3556 107.479 95.4583 107.816 95.48C108.106 95.4207 108.378 95.4253 108.668 95.366C108.958 95.3067 109.166 95.2942 109.439 95.2988C109.648 95.2863 109.92 95.2909 110.1 95.1335C110.406 95.0103 110.611 95.2704 110.854 95.1301C111.096 94.9899 111.526 95.1735 111.723 94.9523C111.821 94.8417 112.03 94.8292 112.157 94.8634C112.541 94.9661 112.928 94.7962 113.346 94.7711C113.687 94.5202 114.198 94.6572 114.446 94.2443C114.527 94.1975 114.637 94.2956 114.718 94.2489C115.101 94.3516 115.566 94.4075 116 94.3186C116.869 94.1407 117.687 94.1545 118.578 93.6402C118.659 93.5935 118.74 93.5467 118.804 93.5638C119.251 93.6836 119.605 93.6415 119.976 93.5354C120.653 93.3062 121.343 93.2858 121.91 92.9585C122.664 92.9552 123.342 92.726 124.002 92.5607C125.033 92.2893 126.064 92.018 127.113 91.6827C128.08 91.3943 128.937 91.0077 129.904 90.7193C130.275 90.6132 130.564 90.5539 130.807 90.4137C131.617 89.9461 132.504 89.7044 133.314 89.2369C133.395 89.1901 133.476 89.1433 133.539 89.1605C134.247 89.0761 134.86 88.8298 135.508 88.4558C135.67 88.3623 135.832 88.2688 135.977 88.2391C136.851 87.7887 137.708 87.4021 138.598 86.8878C138.76 86.7943 138.829 86.5388 139.101 86.5434C139.519 86.5184 139.86 86.2675 140.184 86.0805C140.201 86.0166 140.299 85.906 140.235 85.8888C140.142 85.7269 140.048 85.5649 140.368 85.6505C140.623 85.7189 140.849 85.6425 141.092 85.5023C141.335 85.362 141.565 85.013 141.902 85.0347C142.23 84.5751 142.984 84.5718 143.156 83.9331C143.173 83.8692 143.318 83.8396 143.399 83.7928C144.127 83.372 144.699 82.7721 145.458 82.4962C145.683 82.4198 145.862 82.2624 146.042 82.105C146.221 81.9476 146.336 81.7731 146.532 81.5519C146.711 81.3945 146.826 81.22 146.988 81.1265C147.96 80.5654 148.571 79.5652 149.385 78.8251C149.628 78.6848 149.679 78.4932 149.812 78.2548C149.944 78.0164 150.012 77.761 150.192 77.6036C150.678 77.323 150.895 76.7653 151.207 76.3696C151.246 75.9692 151.587 75.7183 151.817 75.3694L152.773 73.8456C153.004 73.4966 152.979 73.0792 153.145 72.7131C153.427 72.1725 153.773 71.649 153.816 70.976C153.786 70.8312 153.884 70.7206 153.901 70.6567C154.179 70.3887 154.264 70.0693 154.205 69.7796C154.116 69.345 154.457 69.0942 154.415 68.7406C154.402 68.5318 154.407 68.2592 154.539 68.0209C154.655 67.8464 154.642 67.6377 154.693 67.446C154.899 66.6796 154.976 65.8789 154.828 65.1546C154.769 64.8649 154.79 64.5284 154.876 64.2091C154.91 64.0813 154.944 63.9536 154.915 63.8087C154.873 63.4552 154.975 63.0719 154.788 62.748C154.554 62.3431 154.93 61.9644 154.824 61.5937C154.641 60.9972 154.604 60.371 154.63 59.7619C154.669 59.3616 154.533 58.846 154.38 58.3943C154.304 58.1685 154.181 57.8617 154.185 57.5891C154.199 56.7713 153.906 56.0766 153.63 55.3181C153.43 54.7854 153.341 54.3509 152.98 53.9117C152.822 53.7326 152.81 53.5239 152.751 53.2342C152.504 52.6205 152.339 51.9601 151.867 51.4228C151.739 51.3886 151.709 51.2437 151.662 51.1628C151.288 50.5149 151.042 49.9012 150.732 49.2704C150.468 48.7207 149.8 48.4046 149.779 47.7146C149.797 47.6507 149.669 47.6165 149.605 47.5994C149.448 47.4203 149.29 47.2412 149.15 46.9982C148.729 46.2694 148.163 45.5701 147.661 44.888C147.457 44.6279 147.27 44.304 146.968 44.1545C146.666 44.0051 146.611 43.4428 146.309 43.2933C145.862 43.1735 145.918 42.7093 145.696 42.5131C145.143 42.0226 144.688 41.4215 144.199 40.9481C143.82 40.5728 143.343 40.3081 142.982 39.8689C142.62 39.4298 142.109 39.2929 141.747 38.8537C141.765 38.7898 141.573 38.7385 141.492 38.7852C141.364 38.751 141.198 39.1171 141.173 38.6996C141.16 38.4909 141.182 38.1545 140.862 38.0689C140.479 37.9662 140.292 37.6422 140.088 37.3822C139.884 37.1221 139.692 37.0707 139.437 37.0023C139.053 36.8996 138.751 36.7501 138.564 36.4262C138.33 36.0213 137.866 35.9653 137.581 35.752C137.534 35.671 137.47 35.6539 137.389 35.7007C137.227 35.7942 137.082 35.8238 136.989 35.6618C136.802 35.3379 136.644 35.1588 136.261 35.0561C136.07 35.0048 135.895 34.8895 135.819 34.6637C135.708 34.5656 135.597 34.4675 135.47 34.4333C135.312 34.2542 135.138 34.139 134.963 34.0237C134.772 33.9724 134.58 33.921 134.469 33.8229C134.248 33.6267 134.086 33.7203 133.924 33.8138C133.703 33.6176 133.413 33.6768 133.29 33.37C133.184 32.9993 132.847 32.9776 132.528 32.892C132.4 32.8578 132.174 32.9342 132.191 32.8703C132.068 32.5635 131.842 32.6399 131.68 32.7334C131.536 32.763 131.472 32.7459 131.361 32.6478C131.25 32.5497 131.029 32.3535 130.948 32.4003C130.739 32.4128 130.624 32.5873 130.565 32.2976C130.471 32.1356 130.395 31.9098 130.105 31.969C130.041 31.9519 129.931 31.8538 129.884 31.7728C129.603 31.2869 129.011 31.1967 128.5 31.0598C128.436 31.0427 128.292 31.0723 128.181 30.9742C128.041 30.7313 127.67 30.8373 127.466 30.5772C127.402 30.5601 127.355 30.4791 127.308 30.3982C127.262 30.3172 127.215 30.2362 127.249 30.1084C127.283 29.9807 127.394 30.0788 127.522 30.113C127.586 30.1301 127.667 30.0834 127.62 30.0024C127.612 29.5211 127.408 29.261 127.054 29.3032C126.492 29.3579 125.904 28.9951 125.418 29.2756C125.337 29.3224 125.274 29.3053 125.291 29.2414C125.185 28.8707 124.848 28.849 124.575 28.8444C123.694 28.8135 122.927 28.6081 122.097 28.3856C121.841 28.3172 121.603 28.1848 121.33 28.1802C121.058 28.1756 120.802 28.1072 120.547 28.0387C120.1 27.9189 119.635 27.863 119.205 27.6793C118.903 27.5298 118.481 27.8275 118.183 27.4054C117.778 27.6392 117.267 27.5023 116.85 27.5273C116.641 27.5399 116.368 27.5353 116.599 27.1863C116.365 26.7813 115.918 26.6615 115.449 26.8782C115.457 27.3595 115.108 27.1291 114.934 27.0139C114.776 26.8348 114.538 26.7025 114.346 26.6511C114.154 26.5998 114.078 26.3739 113.869 26.3864C113.643 26.4628 113.592 26.6544 113.541 26.8461C113.524 26.9099 113.443 26.9567 113.426 27.0206L112.301 27.1299C112.173 27.0957 111.947 27.1721 111.854 27.0101C111.586 26.7329 111.296 26.7922 110.942 26.8344C110.636 26.9575 110.483 26.5058 110.048 26.5948C109.179 26.7726 108.314 26.6778 107.496 26.6641C106.47 26.6628 105.448 26.389 104.421 26.3877C103.603 26.3739 102.837 26.1686 102.032 26.3635C101.746 26.1502 101.209 26.6223 100.975 26.2174C100.929 26.1364 100.72 26.1489 100.575 26.1786C99.8506 26.3268 99.067 26.1853 98.3301 26.1247C97.129 26.0083 95.8936 26.0195 94.6583 26.0308C93.8405 26.017 92.9416 26.05 92.1237 26.0362L88.4816 26.0872C87.5828 26.1202 86.7478 26.1703 85.9299 26.1565C85.4486 26.1644 85.0607 26.3343 84.5965 26.2784C83.8596 26.2179 83.1353 26.3661 82.3642 26.4333C81.9467 26.4583 81.5931 26.5005 81.146 26.3807C80.9544 26.3293 80.5665 26.4992 80.2939 26.4946C79.7829 26.3577 79.2502 26.5573 78.7221 26.4842C78.1301 26.394 77.627 26.7384 77.035 26.6483C75.94 26.9025 74.8027 26.8032 73.6438 27.0403C73.4989 27.0699 73.3541 27.0995 73.2263 27.0653C72.7792 26.9455 72.2636 27.0812 71.8461 27.1062L68.8553 27.537C68.2929 27.5917 67.7477 27.5826 67.2321 27.7182C66.4906 27.9303 65.6899 27.8527 64.9017 27.9837C63.8237 28.1741 62.7458 28.3645 61.6382 28.41C61.1694 28.6266 60.688 28.6346 60.1896 28.7064C59.4823 28.7907 58.839 28.8921 58.1785 29.0574C57.9059 29.0529 57.7268 29.2102 57.5945 29.4486C57.4622 29.687 57.3983 29.6699 57.2409 29.4908C57.0196 29.2946 56.909 29.1965 56.6831 29.2729C56.0055 29.502 55.2766 29.9228 54.5101 29.7175C54.4462 29.7003 54.2843 29.7938 54.2204 29.7767C53.7687 29.9295 53.3808 30.0994 52.9634 30.1245C52.482 30.1324 52.0942 30.3023 51.5957 30.3741C50.8075 30.5052 50.1174 30.5257 49.3885 30.9465C49.3075 30.9932 49.2436 30.9761 49.1797 30.959C48.7622 30.984 48.3744 31.1539 47.9569 31.179L46.6531 31.4457L45.46 31.8106C45.0082 31.9634 44.5736 32.0523 44.2029 32.1583C43.7683 32.2473 43.3337 32.3362 42.963 32.4422L41.4162 32.8492C41.1265 32.9085 40.7854 33.1594 40.4957 33.2187C39.3368 33.4558 38.2714 33.8549 37.2231 34.1901C35.5782 34.7078 33.9333 35.2254 32.3352 35.824C32.0455 35.8833 31.8025 36.0236 31.5595 36.1639C30.9116 36.5379 30.1531 36.8138 29.4287 36.962C29.2668 37.0555 29.0409 37.1319 28.815 37.2083C28.0565 37.4843 27.3743 37.9861 26.6158 38.262C25.7123 38.5676 24.9663 39.0522 24.1564 39.5198C24.0754 39.5665 23.9134 39.6601 23.8496 39.6429C23.5302 39.5574 23.3169 39.8425 23.0739 39.9828C22.6689 40.2165 22.3279 40.4674 21.94 40.6373C21.5522 40.8072 21.2454 40.9304 20.9043 41.1813C20.1925 41.5382 19.5742 42.0571 18.8453 42.4779C18.5213 42.6649 18.1506 42.771 17.9544 42.9922C17.4639 43.5453 16.7692 43.8384 16.1852 44.2296C15.7631 44.5272 15.26 44.8716 14.9018 45.1864C14.1855 45.8159 13.4862 46.3815 12.8337 47.0282C12.4584 47.4068 12.066 47.8493 11.6439 48.147C11.3838 48.3511 11.1705 48.6362 10.8933 48.9042C10.6161 49.1722 10.5773 49.5726 10.3469 49.9216C10.1335 50.2067 9.72859 50.4405 9.51527 50.7256C9.3487 51.0917 9.07151 51.3597 8.98594 51.6791C8.7555 52.0281 8.55929 52.2493 8.26498 52.5812C8.16687 52.6918 8.06877 52.8024 8.01743 52.9941C8.04249 53.4115 7.95692 53.7309 7.63296 53.9179C7.55197 53.9646 7.51774 54.0924 7.48352 54.2201L6.86403 55.7655C6.64613 56.3233 6.70085 56.8856 6.54682 57.4604C6.40991 57.9714 6.60949 58.5041 6.32771 59.0447C6.32771 59.0447 6.35736 59.1895 6.42123 59.2066C6.59117 59.5945 6.26263 60.0541 6.57743 60.4122C6.50897 60.6677 6.64925 60.9107 6.51692 61.1491C6.4017 61.3236 6.43135 61.4684 6.52488 61.6304C6.6184 61.7924 6.7758 61.9714 6.72446 62.1631C6.58754 62.674 6.96622 63.0493 7.13615 63.4371C7.35285 63.9059 7.45891 64.2766 7.61173 64.7283C7.68814 64.9542 7.68356 65.2268 7.85807 65.342C8.06223 65.6021 8.16829 65.9728 8.29146 66.2796C8.55492 66.8294 8.83549 67.3153 9.11606 67.8012C9.53692 68.5301 9.97489 69.1951 10.511 69.7495C10.779 70.0267 10.9489 70.4145 11.1827 70.8194C11.4166 71.2243 11.7656 71.4548 12.0165 71.7958C12.2207 72.0559 12.6849 72.1118 12.7739 72.5464C12.8206 72.6274 12.9484 72.6616 13.0122 72.6788C13.4594 72.7986 13.5951 73.3141 13.927 73.6084C14.2589 73.9027 14.7528 74.1035 15.0037 74.4446C15.493 74.918 16.1615 75.234 16.5869 75.6903C16.6804 75.8522 16.872 75.9036 17.0466 76.0188C17.634 76.3816 18.2043 76.8082 18.7917 77.171C19.3152 77.5166 19.8559 77.7984 20.3156 78.127C20.3623 78.2079 20.5243 78.1144 20.6521 78.1487C20.7159 78.1658 20.7627 78.2468 20.6817 78.2935C20.6475 78.4213 20.6942 78.5022 20.822 78.5365C21.1414 78.6221 21.3627 78.8183 21.5668 79.0783C21.9843 79.0533 22.1713 79.3772 22.5546 79.4799C22.6652 79.578 22.793 79.6122 22.9036 79.7103C23.1249 79.9066 23.3291 80.1666 23.6188 80.1073C24.0534 80.0184 23.9975 80.4826 24.253 80.5511L24.5085 80.6196C24.6362 80.6538 24.7811 80.6242 24.8917 80.7223C25.0788 81.0462 25.462 81.1489 25.7814 81.2345C26.1008 81.3201 26.4031 81.4695 26.7053 81.6189C27.3737 81.935 28.0547 82.4597 28.8851 82.6822C29.0128 82.7164 29.1406 82.7507 29.2512 82.8488C29.9151 83.4374 30.8778 83.4215 31.6397 83.8995C32.4233 84.041 33.0404 84.5486 33.8069 84.754C34.0624 84.8225 34.2198 85.0016 34.4753 85.07C34.7947 85.1556 35.097 85.3051 35.4802 85.4078C35.7996 85.4933 36.119 85.5789 36.468 85.8093C36.6425 85.9246 36.8342 85.9759 37.0258 86.0273C37.6645 86.1984 38.3204 86.3057 38.8611 86.5875C39.6401 87.0016 40.4237 87.1431 41.156 87.4762C41.8883 87.8094 42.591 87.9976 43.2936 88.1859C43.9962 88.3742 44.7456 88.6434 45.4483 88.8317C46.2148 89.0371 47.0109 89.3873 47.7774 89.5927C48.0158 89.7251 48.2542 89.8574 48.5736 89.943C48.893 90.0285 49.2295 90.0503 49.5956 90.2168C49.8979 90.3663 50.2811 90.469 50.6986 90.4439C51.0522 90.4018 51.2689 90.8705 51.7035 90.7816C52.0526 91.0121 52.551 90.9403 52.9172 91.1068C53.3472 91.2905 53.7943 91.4103 54.2415 91.5301C54.6886 91.6499 55.1528 91.7059 55.5657 91.9534ZM59.4429 91.2809C59.3323 91.1828 59.3197 90.9741 59.0471 90.9695C58.5361 90.8325 58.0422 90.6318 57.5312 90.4948C56.7647 90.2894 56.0324 89.9563 55.2146 89.9425C55.0868 89.9083 54.959 89.8741 54.9123 89.7931L53.1238 89.3139C51.974 89.0058 50.7432 88.7445 49.5809 88.2276C49.4064 88.1124 49.2148 88.0611 49.087 88.0269C48.8783 88.0394 48.6399 87.907 48.495 87.9367C48.0479 87.8169 47.6521 87.5055 47.1536 87.5773C46.2001 87.0479 44.9305 87.1869 44.156 86.5002C44.0454 86.4021 43.8538 86.3508 43.7089 86.3804C42.9082 86.3028 42.2911 85.7951 41.4732 85.7814C41.3284 85.811 41.1539 85.6958 40.9793 85.5806C40.7113 85.3034 40.3452 85.1368 39.9106 85.2257C39.7657 85.2554 39.5912 85.1402 39.3996 85.0888C39.225 84.9736 39.1144 84.8755 38.9228 84.8242C38.5395 84.7215 38.1392 84.6826 37.854 84.4693C37.4879 84.3028 37.2027 84.0894 36.7556 83.9696L36.3723 83.8669C36.0529 83.7814 35.8488 83.5213 35.5123 83.4996C35.1758 83.4779 34.8906 83.2645 34.5713 83.179C33.9325 83.0078 33.3793 82.5173 32.7405 82.3461C32.4212 82.2606 32.1828 82.1282 31.8805 81.9788C31.4334 81.859 31.0501 81.7563 30.6372 81.5087C30.2882 81.2783 29.8878 81.2395 29.4749 80.9919C29.3004 80.8767 29.0449 80.8083 28.7894 80.7398C28.5339 80.6713 28.2487 80.458 28.0571 80.4067C27.6396 80.4317 27.5803 80.142 27.359 79.9458L27.2313 79.9116C26.337 79.6719 25.5626 78.9852 24.6683 78.7456C24.3489 78.66 24.0809 78.3828 23.7615 78.2973C23.3144 78.1775 22.9996 77.8193 22.5867 77.5717L21.3947 76.9101C21.1734 76.7139 20.8883 76.5005 20.5689 76.415C20.3134 76.3465 20.156 76.1674 19.9176 76.0351C19.6153 75.8856 19.4454 75.4978 19.0108 75.5867C18.9469 75.5696 18.8363 75.4715 18.7257 75.3734C18.3937 75.0791 18.0105 74.9764 17.6957 74.6182C17.4277 74.3411 17.0957 74.0467 16.7638 73.7524C16.5426 73.5562 16.3851 73.3772 16.0658 73.2916C15.9209 73.3212 15.8103 73.2231 15.6996 73.125L13.9465 71.4915C13.6146 71.1972 13.3169 70.7752 13.066 70.4341C12.8447 70.2379 12.7216 69.9311 12.4661 69.8626C12.4022 69.8455 12.2744 69.8113 12.2915 69.7474C12.2539 69.1212 11.5981 69.0139 11.3643 68.609C11.1304 68.2041 10.8966 67.7991 10.5647 67.5048C10.3434 67.3086 10.1393 67.0485 10.1439 66.7759C10.1313 66.5672 10.1017 66.4223 9.86329 66.29C9.62491 66.1577 9.42074 65.8976 9.4892 65.6421C9.52343 65.5144 9.49378 65.3695 9.36603 65.3353C8.87671 64.8619 8.89046 64.0441 8.56312 63.4772C8.4696 63.3152 8.47418 63.0426 8.2529 62.8464C8.20614 62.7654 8.12973 62.5396 8.14685 62.4757C8.24953 62.0925 8.10924 61.8495 8.00319 61.4788C7.82072 60.8823 7.766 60.32 7.93714 59.6813C7.97137 59.5535 7.95884 59.3448 7.92919 59.2C7.8106 58.6205 8.15625 58.097 8.10154 57.5347C8.08901 57.326 8.2681 57.1686 8.30233 57.0409C8.35367 56.8493 8.40501 56.6576 8.50312 56.547C8.57157 56.2915 8.43129 56.0486 8.56362 55.8102C8.74272 55.6528 8.85793 55.4783 8.90928 55.2867C9.04619 54.7758 9.61312 54.4485 9.6394 53.8394C9.94624 53.7162 10.0957 53.414 10.0535 53.0604C10.6376 52.6693 10.5703 51.8982 11.2992 51.4774C11.5422 51.3372 11.7555 51.052 11.905 50.7498C12.0544 50.4476 12.1867 50.2092 12.4468 50.0051C12.967 49.5968 13.3936 49.0265 13.9138 48.6183C15.0351 47.755 16.0287 46.8574 16.9116 45.8618C17.1079 45.6406 17.2698 45.547 17.4957 45.4706C17.8025 45.3475 18.1265 45.1605 18.3866 44.9563L19.6528 44.0634C20.092 43.7019 20.5608 43.4852 21 43.1237C21.1791 42.9663 21.4049 42.8899 21.6479 42.7497L22.9437 42.0016C23.4297 41.721 23.8517 41.4234 24.4312 41.3048C24.5122 41.2581 24.6571 41.2284 24.6742 41.1646C25.1476 40.6753 25.7909 40.5739 26.3578 40.2466C26.9248 39.9193 27.4917 39.592 28.1351 39.4906C28.2799 39.4609 28.3609 39.4142 28.4419 39.3674C29.0088 39.0401 29.5415 38.8406 30.0914 38.5772C30.6412 38.3138 31.2035 38.2591 31.6427 37.8975C32.3716 37.4768 33.2876 37.3799 34.0632 37.0401C34.8389 36.7003 35.6614 36.4415 36.437 36.1016C36.4541 36.0378 36.5351 35.991 36.599 36.0081C37.3016 36.1964 38.0009 35.6307 38.6785 35.4016L40.9199 34.7015L43.9838 33.7426C44.1926 33.7301 44.4184 33.6537 44.6272 33.6411L46.0929 33.2809C46.7066 33.0346 47.3032 32.8521 48.0104 32.7678C48.364 32.7257 48.6241 32.5215 48.9138 32.4622C49.4933 32.3437 50.0557 32.289 50.5541 32.2172C50.6351 32.1704 50.7629 32.2047 50.78 32.1408C51.4108 31.8306 52.118 31.7463 52.7614 31.6448L53.6944 31.4841C54.4826 31.353 55.2412 31.0771 55.9655 30.9289C56.2553 30.8696 56.545 30.8103 56.8176 30.8149C57.0264 30.8024 57.2522 30.726 57.4142 30.6325C57.5591 30.6029 57.6572 30.4922 57.721 30.5094C58.3598 30.6805 58.9906 30.3703 59.6339 30.2689C59.7149 30.2221 59.7959 30.1754 59.9237 30.2096C61.078 30.2451 62.2073 29.8631 63.2853 29.6728L63.7199 29.5838C64.1031 29.6865 64.41 29.5634 64.7636 29.5212L67.5628 29.0391C67.9164 28.9969 68.2529 29.0186 68.6236 28.9126C68.9943 28.8065 69.4118 28.7815 69.8293 28.7564C70.2468 28.7314 70.6472 28.7702 70.9415 28.4383C71.0396 28.3277 71.1844 28.2981 71.3122 28.3323C72.0787 28.5377 72.8544 28.1979 73.557 28.3861C73.8764 28.4717 74.2642 28.3018 74.5711 28.1787C74.9589 28.0088 75.3593 28.0476 75.7129 28.0054C76.0665 27.9633 76.3688 28.1127 76.7737 27.8789C76.8547 27.8322 76.9186 27.8493 76.9825 27.8664C77.2037 28.0626 77.3657 27.9691 77.5745 27.9566C77.9281 27.9144 78.2178 27.8551 78.4779 27.651C78.6992 27.8472 78.9889 27.7879 79.2615 27.7925C79.5809 27.8781 79.8113 27.5291 80.1136 27.6785C80.4159 27.828 80.6759 27.6239 80.9315 27.6923C81.187 27.7608 81.5406 27.7186 81.8132 27.7232C82.0219 27.7107 82.2945 27.7153 82.5204 27.6389C82.4098 27.5408 82.363 27.4598 82.3162 27.3788C82.3334 27.3149 82.2695 27.2978 82.2866 27.2339C82.3037 27.1701 82.3847 27.1233 82.4486 27.1404L82.7805 27.4347C82.8911 27.5328 83.0189 27.5671 83.1466 27.6013C83.5299 27.704 83.8117 27.1634 84.0968 27.3767C84.4926 27.6881 84.8166 27.5011 85.1234 27.378C85.3493 27.3016 85.4941 27.2719 85.7154 27.4681C85.7793 27.4852 85.907 27.5195 85.988 27.4727C86.555 27.1454 87.1766 27.3805 87.7218 27.3896C87.9945 27.3942 88.2671 27.3988 88.7017 27.3099C88.8465 27.2803 89.0849 27.4126 89.2937 27.4001C89.9838 27.3796 90.6397 27.4869 91.3001 27.3216C91.8157 27.1859 92.4373 27.4209 92.9997 27.3663C93.4982 27.2945 94.0263 27.3675 94.5715 27.3767L96.2882 27.3575L96.416 27.3917C97.5407 27.2823 98.6779 27.3817 99.8323 27.4172C100.105 27.4218 100.377 27.4264 100.633 27.4948C100.889 27.5633 101.114 27.4869 101.276 27.3934C101.421 27.3637 101.583 27.2702 101.711 27.3045C102.35 27.4756 103.074 27.3274 103.713 27.4986L103.904 27.5499C105.493 27.4965 106.997 27.7624 108.488 27.8196C109.062 27.9736 109.625 27.9189 110.234 27.9452C110.553 28.0308 110.89 28.0525 111.197 27.9294C111.423 27.853 111.44 27.7891 111.58 28.0321C111.627 28.113 111.627 28.113 111.691 28.1302C112.334 28.0287 112.938 28.3276 113.565 28.29C114.255 28.2696 114.975 28.394 115.63 28.5013C116.095 28.5572 116.623 28.6303 117.104 28.6223C117.381 28.3543 117.603 28.5505 117.841 28.6829C118.016 28.7981 118.207 28.8494 118.288 28.8027C118.774 28.5221 119.106 28.8164 119.489 28.9191L119.681 28.9705C120.32 29.1416 120.993 29.185 121.661 29.5011C122.202 29.7828 122.875 29.8263 123.513 29.9974C123.769 30.0659 124.007 30.1982 124.361 30.156C124.506 30.1264 124.472 30.2541 124.518 30.3351C124.659 30.5781 124.85 30.6294 125.059 30.6169C125.187 30.6511 125.204 30.5873 125.238 30.4595C125.208 30.3147 125.179 30.1698 125.307 30.204C125.388 30.1573 125.481 30.3193 125.528 30.4002C125.511 30.4641 125.557 30.5451 125.54 30.609C125.634 30.7709 125.698 30.7881 125.987 30.7288C126.311 30.5418 126.503 30.5931 126.383 31.0402C126.366 31.1041 126.349 31.1679 126.413 31.1851C126.732 31.2706 127.086 31.2285 127.371 31.4418C127.371 31.4418 127.516 31.4122 127.533 31.3483C127.631 31.2377 127.776 31.208 127.852 31.4339C127.929 31.6597 128.005 31.8855 128.261 31.954C128.644 32.0567 128.878 32.4616 129.376 32.3898C129.521 32.3602 129.76 32.4925 129.917 32.6716C130.121 32.9317 130.458 32.9534 130.76 33.1028C130.981 33.299 131.22 33.4314 131.573 33.3892C131.637 33.4063 131.765 33.4406 131.812 33.5215C132.186 34.1694 132.846 34.0041 133.421 34.1582C133.676 34.2266 133.949 34.2312 134.043 34.3932C134.276 34.7981 134.579 34.9476 134.928 35.178C135.515 35.5408 136.022 35.9503 136.626 36.2492C136.749 36.556 136.997 36.1432 137.09 36.3051C137.184 36.4671 137.358 36.5823 137.452 36.7443C137.779 37.3112 138.465 37.5633 138.954 38.0367C139.337 38.1394 139.686 38.3699 139.873 38.6938C139.92 38.7748 140.031 38.8729 140.159 38.9071C140.286 38.9414 140.495 38.9288 140.606 39.0269C140.716 39.125 140.729 39.3338 140.822 39.4957L141.154 39.79C142.039 40.5749 142.878 41.2787 143.682 42.1103L145.29 43.7734C145.937 44.4259 146.601 45.0145 147.004 45.8072C147.034 45.9521 147.081 46.0331 147.145 46.0502C147.587 46.4426 147.949 46.8818 148.212 47.4316C148.829 47.9392 149.122 48.6338 149.496 49.2817C149.964 50.0916 150.466 50.7737 150.772 51.6771L150.899 51.7113C151.091 51.7627 151.121 51.9075 151.231 52.0056C151.418 52.3296 151.235 52.7595 151.63 53.071C151.962 53.3653 151.843 53.8124 152.012 54.2002L152.645 55.6704C152.722 55.8963 152.798 56.1221 152.858 56.4119C153.095 57.5707 153.524 58.7809 153.582 60.0971L153.734 60.5488C153.777 60.9024 153.9 61.2092 153.814 61.5286C153.643 62.1673 153.953 62.7981 153.846 63.4539C154.173 64.0208 153.811 64.6082 153.946 65.1237C153.788 65.9712 153.71 66.7718 153.76 67.6068C153.547 67.8919 153.508 68.2922 153.469 68.6926C153.175 69.0244 153.311 69.54 153.016 69.8719C152.918 69.9825 152.948 70.1274 152.978 70.2722C152.939 70.6726 152.964 71.09 152.529 71.1789C152.384 71.2086 152.397 71.4173 152.508 71.5154C152.631 71.8222 152.643 72.031 152.383 72.2351L152.123 72.4392C151.88 72.5795 151.893 72.7882 151.76 73.0266C151.675 73.3459 151.7 73.7634 151.248 73.9162C151.145 74.2994 150.694 74.4522 150.766 74.9506C150.442 75.1377 150.467 75.5551 150.143 75.7421C150.045 75.8528 149.9 75.8824 149.802 75.993C149.507 76.3249 149.562 76.8872 149.076 77.1678C148.671 77.4015 148.522 77.7038 148.163 78.0185L147.089 78.9628L146.795 79.2947C146.5 79.6266 146.236 80.1033 145.686 80.3667C145.217 80.5834 144.888 81.043 144.466 81.3407C143.46 82.0295 142.518 82.7354 141.576 83.4413C141.235 83.6922 140.689 83.683 140.553 84.194C140.535 84.2578 140.391 84.2875 140.246 84.3171C139.168 84.5075 138.336 85.3115 137.364 85.8726C137.202 85.9661 137.04 86.0596 136.895 86.0892C136.316 86.2078 135.749 86.5351 135.199 86.7985C134.586 87.0448 134.083 87.3892 133.469 87.6355C132.037 87.868 130.771 88.761 129.322 89.0574C128.125 89.6948 126.727 89.7996 125.483 90.3561C124.933 90.6195 124.29 90.7209 123.727 90.7756C123.519 90.7881 123.31 90.8007 123.212 90.9113C122.917 91.2432 122.47 91.1234 122.1 91.2294C121.503 91.4118 121.005 91.4836 120.408 91.6661C120.182 91.7425 119.828 91.7846 119.556 91.78C118.257 91.7742 117.093 92.2839 115.887 92.44C114.971 92.5369 113.987 92.8892 113.024 92.9051C112.27 92.9084 111.448 93.1673 110.677 93.2345C110.051 93.272 109.373 93.5012 108.683 93.5217C107.929 93.525 107.124 93.72 106.399 93.8682C106.186 94.1533 105.999 93.8294 105.79 93.8419C104.84 94.0665 103.912 93.9546 102.978 94.1153C102.126 94.2293 101.164 94.2451 100.248 94.342L99.7492 94.4138L99.3146 94.5027C98.2116 94.2756 97.1508 94.4021 96.0899 94.5286C94.9652 94.638 93.8748 94.6196 92.8014 94.5374C92.1284 94.494 91.5022 94.5316 90.8121 94.552C89.9771 94.6021 89.0954 94.5712 88.2775 94.5574C86.9144 94.5345 85.5685 94.4476 84.2054 94.4247C83.051 94.3892 81.9138 94.2899 80.7765 94.1905L77.812 94.0123C77.2667 94.0031 76.7215 93.9939 76.2105 93.857C75.6356 93.7029 75.0904 93.6937 74.4813 93.6675C73.8721 93.6412 73.263 93.6149 72.6881 93.4608L72.4965 93.4095C71.8999 93.5919 71.4403 93.2634 70.9122 93.1903C70.3201 93.1001 69.6814 92.929 69.0552 92.9666C68.2202 93.0166 67.4708 92.7474 66.7682 92.5591C66.5127 92.4907 66.2572 92.4222 65.9845 92.4176C65.5671 92.4427 65.1199 92.3229 64.6728 92.203C64.4812 92.1517 64.2724 92.1642 64.1447 92.13C63.8253 92.0444 63.5059 91.9588 63.1694 91.9371C62.8797 91.9964 62.6584 91.8002 62.4029 91.7317C61.828 91.5777 61.2235 91.2788 60.5801 91.3802C60.2265 91.4224 59.8182 90.9023 59.4429 91.2809Z" fill="#FF0420"/>
    </svg>
    