<svg width="18" height="18" viewBox="0 0 18 18" fill="none" xmlns="http://www.w3.org/2000/svg">
<path d="M12.75 10.6667H12.7583M1.5 3.16667V14.8333C1.5 15.7538 2.24619 16.5 3.16667 16.5H14.8333C15.7538 16.5 16.5 15.7538 16.5 14.8333V6.5C16.5 5.57953 15.7538 4.83333 14.8333 4.83333L3.16667 4.83333C2.24619 4.83333 1.5 4.08714 1.5 3.16667ZM1.5 3.16667C1.5 2.24619 2.24619 1.5 3.16667 1.5H13.1667M13.1667 10.6667C13.1667 10.8968 12.9801 11.0833 12.75 11.0833C12.5199 11.0833 12.3333 10.8968 12.3333 10.6667C12.3333 10.4365 12.5199 10.25 12.75 10.25C12.9801 10.25 13.1667 10.4365 13.1667 10.6667Z" stroke="white" stroke-width="1.66667" stroke-linecap="round" stroke-linejoin="round"/>
</svg>
